{
.appVersion = "1349";
DisplayStrings = (
""
);
copyright = "Copyright (c) 2023 SIL International";
customParameters = (
{
name = hheaAscender;
value = 1970;
},
{
name = hheaDescender;
value = -467;
},
{
name = hheaLineGap;
value = 0;
},
{
name = panose;
value = (
2,
11,
8,
6,
3,
7,
2,
4,
2,
4
);
},
{
name = fsType;
value = (
);
},
{
name = typoAscender;
value = 1970;
},
{
name = typoDescender;
value = -467;
},
{
name = typoLineGap;
value = 0;
},
{
name = unicodeRanges;
value = (
0
);
},
{
name = strikeoutSize;
value = 102;
},
{
name = strikeoutPosition;
value = 530;
},
{
name = subscriptXSize;
value = 1434;
},
{
name = subscriptYSize;
value = 1331;
},
{
name = subscriptXOffset;
value = 0;
},
{
name = subscriptYOffset;
value = 283;
},
{
name = superscriptXSize;
value = 1434;
},
{
name = superscriptYSize;
value = 1331;
},
{
name = superscriptXOffset;
value = 0;
},
{
name = superscriptYOffset;
value = 977;
},
{
name = underlinePosition;
value = -205;
},
{
name = underlineThickness;
value = 102;
},
{
name = versionString;
value = "Version 1.000";
},
{
name = vendorID;
value = "SIL ";
},
{
name = license;

glyphs = (
{
glyphname = .notdef;
layers = (
{
layerId = "4E2DFB36-A0B4-46BB-956A-EE2289348F3B";
paths = (
{
closed = 1;
nodes = (
"1126 1444 LINE",
"102 1444 LINE",
"102 -362 LINE",
"1126 -362 LINE"
);
},
{
closed = 1;
nodes = (
"1012 1329 LINE",
"1012 -248 LINE",
"217 -248 LINE",
"217 1329 LINE"
);
}
);
vertWidth = 0;
width = 1247;
}
);
note = "";
},
{
glyphname = exclam;
layers = (
{
layerId = "4E2DFB36-A0B4-46BB-956A-EE2289348F3B";
paths = (
{
closed = 1;
nodes = (
"186 1450 LINE",
"186 1064 LINE",
"234 360 LINE",
"346 360 LINE",
"394 1064 LINE",
"394 1450 LINE"
);
},
{
closed = 1;
nodes = (
"194 192 LINE",
"194 0 LINE",
"386 0 LINE",
"386 192 LINE"
);
}
);
vertWidth = 0;
width = 569;
}
);
note = "";
unicode = 0021;
},
{
glyphname = quotedbl;
layers = (
{
layerId = "4E2DFB36-A0B4-46BB-956A-EE2289348F3B";
paths = (
{
closed = 1;
nodes = (
"434 1452 LINE",
"434 1204 LINE",
"478 949 LINE",
"582 949 LINE",
"626 1204 LINE",
"626 1452 LINE"
);
},
{
closed = 1;
nodes = (
"106 1452 LINE",
"106 1204 LINE",
"150 949 LINE",
"254 949 LINE",
"298 1204 LINE",
"298 1452 LINE"
);
}
);
vertWidth = 0;
width = 727;
}
);
note = "";
unicode = 0022;
},
{
glyphname = numbersign;
layers = (
{
layerId = "4E2DFB36-A0B4-46BB-956A-EE2289348F3B";
paths = (
{
closed = 1;
nodes = (
"825 556 LINE",
"897 919 LINE",
"1096 919 LINE",
"1096 1058 LINE",
"929 1058 LINE",
"1017 1452 LINE",
"881 1452 LINE",
"801 1056 LINE",
"466 1056 LINE",
"553 1452 LINE",
"418 1452 LINE",
"338 1054 LINE",
"34 1054 LINE",
"34 913 LINE",
"306 913 LINE",
"235 551 LINE",
"34 551 LINE",
"34 412 LINE",
"202 412 LINE",
"122 0 LINE",
"258 0 LINE",
"338 414 LINE",
"665 414 LINE",
"585 0 LINE",
"713 0 LINE",
"809 416 LINE",
"1096 416 LINE",
"1096 556 LINE"
);
},
{
closed = 1;
nodes = (
"370 559 LINE",
"442 911 LINE",
"761 911 LINE",
"689 559 LINE"
);
}
);
vertWidth = 0;
width = 1139;
}
);
note = "";
unicode = 0023;
},
{
glyphname = dollar;
layers = (
{
layerId = "4E2DFB36-A0B4-46BB-956A-EE2289348F3B";
paths = (
{
closed = 1;
nodes = (
"1018 571 OFFCURVE",
"948 682 OFFCURVE",
"815 741 CURVE SMOOTH",
"682 801 OFFCURVE",
"614 831 OFFCURVE",
"609 834 CURVE",
"609 1327 LINE",
"740 1303 OFFCURVE",
"798 1232 OFFCURVE",
"817 1105 CURVE",
"928 1121 OFFCURVE",
"986 1129 OFFCURVE",
"993 1129 CURVE",
"946 1362 OFFCURVE",
"826 1470 OFFCURVE",
"609 1470 CURVE",
"609 1556 LINE",
"514 1556 LINE",
"514 1470 LINE",
"289 1465 OFFCURVE",
"117 1325 OFFCURVE",
"117 1066 CURVE SMOOTH",
"117 978 OFFCURVE",
"143 903 OFFCURVE",
"196 840 CURVE",
"282 760 OFFCURVE",
"388 705 OFFCURVE",
"514 674 CURVE",
"514 118 LINE",
"353 125 OFFCURVE",
"265 228 OFFCURVE",
"250 427 CURVE",
"90 395 LINE",
"133 112 OFFCURVE",
"270 -21 OFFCURVE",
"514 -21 CURVE",
"514 -204 LINE",
"609 -204 LINE",
"609 -21 LINE",
"870 -2 OFFCURVE",
"1009 141 OFFCURVE",
"1025 407 CURVE"
);
},
{
closed = 1;
nodes = (
"355 895 OFFCURVE",
"288 998 OFFCURVE",
"288 1091 CURVE SMOOTH",
"288 1186 OFFCURVE",
"356 1306 OFFCURVE",
"514 1327 CURVE",
"514 858 LINE"
);
},
{
closed = 1;
nodes = (
"859 250 OFFCURVE",
"776 159 OFFCURVE",
"609 120 CURVE",
"609 650 LINE",
"769 597 OFFCURVE",
"852 512 OFFCURVE",
"859 395 CURVE"
);
}
);
vertWidth = 0;
width = 1139;
}
);
note = "";
unicode = 0024;
},
{
glyphname = percent;
layers = (
{
layerId = "4E2DFB36-A0B4-46BB-956A-EE2289348F3B";
paths = (
{
closed = 1;
nodes = (
"1667 609 OFFCURVE",
"1568 734 OFFCURVE",
"1369 739 CURVE",
"1170 734 OFFCURVE",
"1070 608 OFFCURVE",
"1070 363 CURVE SMOOTH",
"1070 113 OFFCURVE",
"1170 -15 OFFCURVE",
"1369 -20 CURVE",
"1568 -15 OFFCURVE",
"1667 112 OFFCURVE",
"1668 363 CURVE"
);
},
{
closed = 1;
nodes = (
"411 0 LINE",
"586 0 LINE",
"1369 1450 LINE",
"1194 1450 LINE"
);
},
{
closed = 1;
nodes = (
"1516 188 OFFCURVE",
"1466 99 OFFCURVE",
"1369 99 CURVE SMOOTH",
"1273 99 OFFCURVE",
"1221 188 OFFCURVE",
"1221 363 CURVE SMOOTH",
"1221 532 OFFCURVE",
"1273 619 OFFCURVE",
"1369 619 CURVE SMOOTH",
"1466 619 OFFCURVE",
"1516 532 OFFCURVE",
"1517 363 CURVE"
);
},
{
closed = 1;
nodes = (
"709 1340 OFFCURVE",
"610 1465 OFFCURVE",
"411 1470 CURVE",
"212 1465 OFFCURVE",
"112 1339 OFFCURVE",
"112 1094 CURVE SMOOTH",
"112 844 OFFCURVE",
"212 716 OFFCURVE",
"411 711 CURVE",
"610 716 OFFCURVE",
"709 843 OFFCURVE",
"710 1094 CURVE"
);
},
{
closed = 1;
nodes = (
"558 919 OFFCURVE",
"508 830 OFFCURVE",
"411 830 CURVE SMOOTH",
"315 830 OFFCURVE",
"263 919 OFFCURVE",
"263 1094 CURVE SMOOTH",
"263 1263 OFFCURVE",
"315 1350 OFFCURVE",
"411 1350 CURVE SMOOTH",
"508 1350 OFFCURVE",
"558 1263 OFFCURVE",
"559 1094 CURVE"
);
}
);
vertWidth = 0;
width = 1821;
}
);
note = "";
unicode = 0025;
},
{
glyphname = ampersand;
layers = (
{
layerId = "4E2DFB36-A0B4-46BB-956A-EE2289348F3B";
paths = (
{
closed = 1;
nodes = (
"1225 175 OFFCURVE",
"1153 245 OFFCURVE",
"1081 328 CURVE",
"1134 413 OFFCURVE",
"1177 514 OFFCURVE",
"1208 635 CURVE",
"1025 667 LINE",
"1020 601 OFFCURVE",
"999 537 OFFCURVE",
"961 475 CURVE",
"861 580 OFFCURVE",
"773 687 OFFCURVE",
"696 804 CURVE",
"877 895 OFFCURVE",
"968 1012 OFFCURVE",
"969 1154 CURVE",
"946 1351 OFFCURVE",
"837 1453 OFFCURVE",
"641 1458 CURVE",
"418 1455 OFFCURVE",
"289 1347 OFFCURVE",
"289 1134 CURVE SMOOTH",
"289 1059 OFFCURVE",
"343 956 OFFCURVE",
"450 827 CURVE",
"223 692 OFFCURVE",
"108 547 OFFCURVE",
"105 392 CURVE",
"122 133 OFFCURVE",
"271 -5 OFFCURVE",
"553 -20 CURVE",
"721 -15 OFFCURVE",
"859 49 OFFCURVE",
"968 172 CURVE",
"1054 86 OFFCURVE",
"1126 22 OFFCURVE",
"1184 -20 CURVE",
"1253 64 OFFCURVE",
"1291 108 OFFCURVE",
"1296 116 CURVE"
);
},
{
closed = 1;
nodes = (
"785 1075 OFFCURVE",
"726 997 OFFCURVE",
"608 916 CURVE",
"603 923 OFFCURVE",
"578 950 OFFCURVE",
"531 1006 CURVE SMOOTH",
"491 1053 OFFCURVE",
"471 1098 OFFCURVE",
"471 1142 CURVE SMOOTH",
"471 1250 OFFCURVE",
"520 1306 OFFCURVE",
"633 1314 CURVE",
"734 1305 OFFCURVE",
"785 1254 OFFCURVE",
"785 1163 CURVE SMOOTH",
"785 1150 LINE"
);
},
{
closed = 1;
nodes = (
"744 187 OFFCURVE",
"645 132 OFFCURVE",
"557 132 CURVE",
"401 144 OFFCURVE",
"314 235 OFFCURVE",
"297 404 CURVE",
"297 519 OFFCURVE",
"377 620 OFFCURVE",
"538 707 CURVE",
"651 555 OFFCURVE",
"756 425 OFFCURVE",
"857 308 CURVE"
);
}
);
vertWidth = 0;
width = 1366;
}
);
note = "";
unicode = 0026;
},
{
glyphname = quotesingle;
layers = (
{
layerId = "4E2DFB36-A0B4-46BB-956A-EE2289348F3B";
paths = (
{
closed = 1;
nodes = (
"106 1451 LINE",
"106 1195 LINE",
"111 1177 OFFCURVE",
"130 1052 OFFCURVE",
"146 948 CURVE",
"258 948 LINE",
"258 989 OFFCURVE",
"287 1157 OFFCURVE",
"298 1195 CURVE",
"298 1451 LINE"
);
}
);
vertWidth = 0;
width = 391;
}
);
note = "";
unicode = 0027;
},
{
glyphname = parenleft;
layers = (
{
layerId = "4E2DFB36-A0B4-46BB-956A-EE2289348F3B";
paths = (
{
closed = 1;
nodes = (
"590 -396 OFFCURVE",
"516 -265 OFFCURVE",
"505 -244 CURVE SMOOTH",
"377 3 OFFCURVE",
"313 263 OFFCURVE",
"313 518 CURVE SMOOTH",
"313 845 OFFCURVE",
"425 1135 OFFCURVE",
"601 1452 CURVE",
"482 1452 LINE",
"247 1132 OFFCURVE",
"137 855 OFFCURVE",
"137 526 CURVE SMOOTH",
"137 206 OFFCURVE",
"237 -81 OFFCURVE",
"482 -417 CURVE",
"601 -417 LINE"
);
}
);
vertWidth = 0;
width = 682;
}
);
note = "";
unicode = 0028;
},
{
glyphname = parenright;
layers = (
{
layerId = "4E2DFB36-A0B4-46BB-956A-EE2289348F3B";
paths = (
{
closed = 1;
nodes = (
"560 654 OFFCURVE",
"545 775 OFFCURVE",
"510 891 CURVE SMOOTH",
"457 1062 OFFCURVE",
"333 1261 OFFCURVE",
"218 1451 CURVE",
"98 1451 LINE",
"205 1253 LINE SMOOTH",
"333 1013 OFFCURVE",
"385 787 OFFCURVE",
"385 521 CURVE SMOOTH",
"385 373 OFFCURVE",
"363 223 OFFCURVE",
"320 72 CURVE SMOOTH",
"272 -94 OFFCURVE",
"189 -246 OFFCURVE",
"98 -418 CURVE",
"218 -418 LINE",
"229 -399 OFFCURVE",
"309 -283 OFFCURVE",
"322 -265 CURVE",
"485 -13 OFFCURVE",
"560 252 OFFCURVE",
"561 517 CURVE"
);
}
);
vertWidth = 0;
width = 682;
}
);
note = "";
unicode = 0029;
},
{
glyphname = asterisk;
layers = (
{
layerId = "4E2DFB36-A0B4-46BB-956A-EE2289348F3B";
paths = (
{
closed = 1;
nodes = (
"703 1218 OFFCURVE",
"687 1263 OFFCURVE",
"665 1307 CURVE",
"596 1284 OFFCURVE",
"524 1252 OFFCURVE",
"448 1211 CURVE",
"447 1220 OFFCURVE",
"446 1230 OFFCURVE",
"446 1241 CURVE SMOOTH",
"446 1276 OFFCURVE",
"456 1323 OFFCURVE",
"456 1371 CURVE SMOOTH",
"456 1396 OFFCURVE",
"454 1423 OFFCURVE",
"450 1450 CURVE",
"336 1450 LINE",
"332 1423 OFFCURVE",
"330 1396 OFFCURVE",
"330 1371 CURVE SMOOTH",
"330 1323 OFFCURVE",
"340 1276 OFFCURVE",
"340 1241 CURVE SMOOTH",
"340 1230 OFFCURVE",
"339 1220 OFFCURVE",
"338 1211 CURVE",
"262 1252 OFFCURVE",
"190 1284 OFFCURVE",
"121 1307 CURVE",
"99 1263 OFFCURVE",
"83 1218 OFFCURVE",
"73 1171 CURVE",
"317 1115 LINE",
"256 1050 OFFCURVE",
"201 989 OFFCURVE",
"154 932 CURVE",
"186 899 OFFCURVE",
"222 873 OFFCURVE",
"261 852 CURVE",
"393 1051 LINE",
"525 852 LINE",
"564 873 OFFCURVE",
"599 899 OFFCURVE",
"632 932 CURVE",
"585 989 OFFCURVE",
"530 1050 OFFCURVE",
"469 1115 CURVE",
"713 1171 LINE"
);
}
);
vertWidth = 0;
width = 797;
}
);
note = "";
unicode = 002A;
},
{
glyphname = plus;
layers = (
{
layerId = "4E2DFB36-A0B4-46BB-956A-EE2289348F3B";
paths = (
{
closed = 1;
nodes = (
"681 764 LINE",
"681 1155 LINE",
"522 1155 LINE",
"522 764 LINE",
"130 764 LINE",
"130 604 LINE",
"522 604 LINE",
"522 213 LINE",
"681 213 LINE",
"681 604 LINE",
"1073 604 LINE",
"1073 764 LINE"
);
}
);
vertWidth = 0;
width = 1196;
}
);
note = "";
unicode = 002B;
},
{
glyphname = comma;
layers = (
{
layerId = "4E2DFB36-A0B4-46BB-956A-EE2289348F3B";
paths = (
{
closed = 1;
nodes = (
"202 192 LINE",
"202 0 LINE",
"298 0 LINE",
"298 -56 LINE",
"261 -167 OFFCURVE",
"266 -167 OFFCURVE",
"186 -215 CURVE",
"218 -253 OFFCURVE",
"213 -247 OFFCURVE",
"234 -287 CURVE",
"344 -217 OFFCURVE",
"338 -237 OFFCURVE",
"394 -71 CURVE",
"394 192 LINE"
);
}
);
vertWidth = 0;
width = 569;
}
);
note = "";
unicode = 002C;
},
{
glyphname = hyphen;
layers = (
{
layerId = "4E2DFB36-A0B4-46BB-956A-EE2289348F3B";
paths = (
{
closed = 1;
nodes = (
"651 385 LINE",
"651 535 LINE",
"31 535 LINE",
"31 385 LINE"
);
}
);
vertWidth = 0;
width = 818;
}
);
note = "";
unicode = 002D;
},
{
glyphname = period;
layers = (
{
layerId = "4E2DFB36-A0B4-46BB-956A-EE2289348F3B";
paths = (
{
closed = 1;
nodes = (
"202 192 LINE",
"202 0 LINE",
"394 0 LINE",
"394 192 LINE"
);
}
);
vertWidth = 0;
width = 569;
}
);
note = "";
unicode = 002E;
},
{
glyphname = slash;
layers = (
{
layerId = "4E2DFB36-A0B4-46BB-956A-EE2289348F3B";
paths = (
{
closed = 1;
nodes = (
"18 0 LINE",
"154 0 LINE",
"569 1478 LINE",
"434 1478 LINE"
);
}
);
vertWidth = 0;
width = 569;
}
);
note = "";
unicode = 002F;
},
{
glyphname = zero;
layers = (
{
layerId = "4E2DFB36-A0B4-46BB-956A-EE2289348F3B";
paths = (
{
closed = 1;
nodes = (
"1025 1213 OFFCURVE",
"874 1462 OFFCURVE",
"557 1462 CURVE",
"256 1458 OFFCURVE",
"97 1223 OFFCURVE",
"97 742 CURVE SMOOTH",
"97 230 OFFCURVE",
"241 -20 OFFCURVE",
"561 -20 CURVE SMOOTH",
"866 -20 OFFCURVE",
"1025 229 OFFCURVE",
"1025 722 CURVE SMOOTH"
);
},
{
closed = 1;
nodes = (
"857 290 OFFCURVE",
"752 106 OFFCURVE",
"561 106 CURVE SMOOTH",
"365 106 OFFCURVE",
"265 309 OFFCURVE",
"265 722 CURVE SMOOTH",
"265 1135 OFFCURVE",
"366 1336 OFFCURVE",
"561 1336 CURVE SMOOTH",
"745 1336 OFFCURVE",
"857 1181 OFFCURVE",
"857 722 CURVE SMOOTH"
);
}
);
vertWidth = 0;
width = 1139;
}
);
note = "";
unicode = 0030;
},
{
glyphname = one;
layers = (
{
layerId = "4E2DFB36-A0B4-46BB-956A-EE2289348F3B";
paths = (
{
closed = 1;
nodes = (
"661 1450 LINE",
"598 1320 OFFCURVE",
"365 1127 OFFCURVE",
"234 1087 CURVE",
"234 941 LINE",
"358 989 OFFCURVE",
"352 981 OFFCURVE",
"599 1156 CURVE",
"599 0 LINE",
"761 0 LINE",
"761 1450 LINE"
);
}
);
vertWidth = 0;
width = 1139;
}
);
note = "";
unicode = 0031;
},
{
glyphname = two;
layers = (
{
layerId = "4E2DFB36-A0B4-46BB-956A-EE2289348F3B";
paths = (
{
closed = 1;
nodes = (
"294 150 LINE",
"309 202 OFFCURVE",
"444 335 OFFCURVE",
"698 550 CURVE",
"911 707 OFFCURVE",
"1017 873 OFFCURVE",
"1017 1050 CURVE SMOOTH",
"1017 1317 OFFCURVE",
"851 1466 OFFCURVE",
"561 1466 CURVE SMOOTH",
"297 1466 OFFCURVE",
"145 1332 OFFCURVE",
"106 1065 CURVE",
"106 1057 OFFCURVE",
"159 1049 OFFCURVE",
"266 1040 CURVE",
"289 1233 OFFCURVE",
"389 1336 OFFCURVE",
"565 1348 CURVE",
"764 1333 OFFCURVE",
"858 1240 OFFCURVE",
"858 1068 CURVE SMOOTH",
"858 921 OFFCURVE",
"758 773 OFFCURVE",
"558 624 CURVE",
"462 544 OFFCURVE",
"361 454 OFFCURVE",
"248 351 CURVE",
"129 230 OFFCURVE",
"74 115 OFFCURVE",
"74 0 CURVE",
"1017 0 LINE",
"1017 150 LINE"
);
}
);
vertWidth = 0;
width = 1139;
}
);
note = "";
unicode = 0032;
},
{
glyphname = three;
layers = (
{
layerId = "4E2DFB36-A0B4-46BB-956A-EE2289348F3B";
paths = (
{
closed = 1;
nodes = (
"1033 580 OFFCURVE",
"957 699 OFFCURVE",
"753 790 CURVE",
"894 866 OFFCURVE",
"959 960 OFFCURVE",
"959 1085 CURVE SMOOTH",
"959 1324 OFFCURVE",
"785 1462 OFFCURVE",
"532 1462 CURVE SMOOTH",
"316 1462 OFFCURVE",
"178 1340 OFFCURVE",
"117 1096 CURVE",
"218 1077 OFFCURVE",
"268 1067 OFFCURVE",
"271 1067 CURVE SMOOTH",
"270 1067 OFFCURVE",
"285 1109 OFFCURVE",
"314 1193 CURVE SMOOTH",
"343 1278 OFFCURVE",
"421 1344 OFFCURVE",
"549 1344 CURVE SMOOTH",
"714 1344 OFFCURVE",
"800 1256 OFFCURVE",
"800 1089 CURVE SMOOTH",
"800 916 OFFCURVE",
"669 828 OFFCURVE",
"472 828 CURVE",
"454 706 LINE",
"487 710 OFFCURVE",
"518 712 OFFCURVE",
"548 712 CURVE SMOOTH",
"760 712 OFFCURVE",
"865 616 OFFCURVE",
"865 412 CURVE SMOOTH",
"865 213 OFFCURVE",
"747 98 OFFCURVE",
"553 98 CURVE SMOOTH",
"389 98 OFFCURVE",
"285 200 OFFCURVE",
"234 381 CURVE",
"98 374 LINE",
"149 111 OFFCURVE",
"300 -20 OFFCURVE",
"553 -20 CURVE SMOOTH",
"854 -20 OFFCURVE",
"1014 148 OFFCURVE",
"1033 420 CURVE"
);
}
);
vertWidth = 0;
width = 1139;
}
);
note = "";
unicode = 0033;
},
{
glyphname = four;
layers = (
{
layerId = "4E2DFB36-A0B4-46BB-956A-EE2289348F3B";
paths = (
{
closed = 1;
nodes = (
"829 490 LINE",
"829 1448 LINE",
"705 1448 LINE",
"42 505 LINE",
"42 357 LINE",
"678 357 LINE",
"678 0 LINE",
"829 0 LINE",
"829 357 LINE",
"1025 357 LINE",
"1025 490 LINE"
);
},
{
closed = 1;
nodes = (
"670 1199 LINE",
"670 498 LINE",
"184 498 LINE"
);
}
);
vertWidth = 0;
width = 1139;
}
);
note = "";
unicode = 0034;
},
{
glyphname = five;
layers = (
{
layerId = "4E2DFB36-A0B4-46BB-956A-EE2289348F3B";
paths = (
{
closed = 1;
nodes = (
"1041 760 OFFCURVE",
"841 941 OFFCURVE",
"598 941 CURVE SMOOTH",
"467 941 OFFCURVE",
"370 908 OFFCURVE",
"307 842 CURVE",
"402 1308 LINE",
"977 1308 LINE",
"977 1450 LINE",
"270 1450 LINE",
"125 691 LINE",
"271 670 LINE",
"346 785 OFFCURVE",
"438 808 OFFCURVE",
"562 808 CURVE SMOOTH",
"677 808 OFFCURVE",
"730 772 OFFCURVE",
"788 714 CURVE SMOOTH",
"847 654 OFFCURVE",
"882 569 OFFCURVE",
"882 465 CURVE SMOOTH",
"882 253 OFFCURVE",
"734 98 OFFCURVE",
"553 98 CURVE SMOOTH",
"396 98 OFFCURVE",
"287 209 OFFCURVE",
"258 374 CURVE",
"110 354 LINE",
"118 132 OFFCURVE",
"336 -20 OFFCURVE",
"549 -20 CURVE SMOOTH",
"842 -20 OFFCURVE",
"1041 197 OFFCURVE",
"1041 485 CURVE SMOOTH"
);
}
);
vertWidth = 0;
width = 1139;
}
);
note = "";
unicode = 0035;
},
{
glyphname = six;
layers = (
{
layerId = "4E2DFB36-A0B4-46BB-956A-EE2289348F3B";
paths = (
{
closed = 1;
nodes = (
"1008 763 OFFCURVE",
"869 920 OFFCURVE",
"610 935 CURVE",
"434 928 OFFCURVE",
"314 860 OFFCURVE",
"251 731 CURVE",
"251 1130 OFFCURVE",
"360 1344 OFFCURVE",
"601 1344 CURVE SMOOTH",
"746 1344 OFFCURVE",
"835 1263 OFFCURVE",
"867 1100 CURVE",
"871 1100 OFFCURVE",
"876 1099 OFFCURVE",
"880 1099 CURVE SMOOTH",
"919 1099 OFFCURVE",
"957 1112 OFFCURVE",
"1000 1136 CURVE",
"936 1354 OFFCURVE",
"813 1463 OFFCURVE",
"630 1463 CURVE SMOOTH",
"280 1463 OFFCURVE",
"97 1225 OFFCURVE",
"89 690 CURVE",
"92 213 OFFCURVE",
"255 -20 OFFCURVE",
"582 -20 CURVE",
"858 -7 OFFCURVE",
"1006 155 OFFCURVE",
"1025 465 CURVE"
);
},
{
closed = 1;
nodes = (
"850 235 OFFCURVE",
"756 119 OFFCURVE",
"591 106 CURVE",
"402 134 OFFCURVE",
"300 254 OFFCURVE",
"287 465 CURVE",
"294 669 OFFCURVE",
"391 781 OFFCURVE",
"579 801 CURVE",
"770 789 OFFCURVE",
"867 673 OFFCURVE",
"871 452 CURVE"
);
}
);
vertWidth = 0;
width = 1139;
}
);
note = "";
unicode = 0036;
},
{
glyphname = seven;
layers = (
{
layerId = "4E2DFB36-A0B4-46BB-956A-EE2289348F3B";
paths = (
{
closed = 1;
nodes = (
"114 1453 LINE",
"114 1311 LINE",
"830 1311 LINE",
"564 941 OFFCURVE",
"350 476 OFFCURVE",
"318 0 CURVE",
"478 0 LINE",
"478 189 OFFCURVE",
"540 413 OFFCURVE",
"640 657 CURVE SMOOTH",
"741 902 OFFCURVE",
"880 1134 OFFCURVE",
"1033 1330 CURVE",
"1033 1453 LINE"
);
}
);
vertWidth = 0;
width = 1139;
}
);
note = "";
unicode = 0037;
},
{
glyphname = eight;
layers = (
{
layerId = "4E2DFB36-A0B4-46BB-956A-EE2289348F3B";
paths = (
{
closed = 1;
nodes = (
"1033 588 OFFCURVE",
"958 683 OFFCURVE",
"753 779 CURVE",
"854 844 OFFCURVE",
"912 887 OFFCURVE",
"927 907 CURVE SMOOTH",
"960 950 OFFCURVE",
"976 1009 OFFCURVE",
"976 1085 CURVE SMOOTH",
"976 1316 OFFCURVE",
"801 1462 OFFCURVE",
"565 1462 CURVE SMOOTH",
"326 1462 OFFCURVE",
"154 1299 OFFCURVE",
"154 1089 CURVE SMOOTH",
"154 945 OFFCURVE",
"215 865 OFFCURVE",
"378 790 CURVE",
"345 771 OFFCURVE",
"311 754 OFFCURVE",
"278 735 CURVE SMOOTH",
"153 663 OFFCURVE",
"97 561 OFFCURVE",
"97 412 CURVE SMOOTH",
"97 156 OFFCURVE",
"308 -20 OFFCURVE",
"565 -20 CURVE SMOOTH",
"843 -20 OFFCURVE",
"1033 160 OFFCURVE",
"1033 408 CURVE SMOOTH"
);
},
{
closed = 1;
nodes = (
"808 951 OFFCURVE",
"700 844 OFFCURVE",
"565 844 CURVE SMOOTH",
"426 844 OFFCURVE",
"322 958 OFFCURVE",
"322 1093 CURVE SMOOTH",
"322 1202 OFFCURVE",
"421 1336 OFFCURVE",
"557 1336 CURVE SMOOTH",
"565 1336 LINE",
"573 1336 LINE SMOOTH",
"698 1336 OFFCURVE",
"808 1208 OFFCURVE",
"808 1089 CURVE SMOOTH"
);
},
{
closed = 1;
nodes = (
"865 238 OFFCURVE",
"739 106 OFFCURVE",
"569 106 CURVE SMOOTH",
"405 106 OFFCURVE",
"265 245 OFFCURVE",
"265 416 CURVE SMOOTH",
"265 573 OFFCURVE",
"402 718 OFFCURVE",
"561 718 CURVE SMOOTH",
"724 718 OFFCURVE",
"865 585 OFFCURVE",
"865 408 CURVE SMOOTH"
);
}
);
vertWidth = 0;
width = 1139;
}
);
note = "";
unicode = 0038;
},
{
glyphname = nine;
layers = (
{
layerId = "4E2DFB36-A0B4-46BB-956A-EE2289348F3B";
paths = (
{
closed = 1;
nodes = (
"1033 1204 OFFCURVE",
"862 1462 OFFCURVE",
"540 1462 CURVE SMOOTH",
"272 1462 OFFCURVE",
"97 1239 OFFCURVE",
"97 962 CURVE SMOOTH",
"97 689 OFFCURVE",
"279 499 OFFCURVE",
"520 499 CURVE SMOOTH",
"677 499 OFFCURVE",
"804 563 OFFCURVE",
"872 703 CURVE",
"879 670 OFFCURVE",
"882 633 OFFCURVE",
"882 594 CURVE SMOOTH",
"882 375 OFFCURVE",
"774 98 OFFCURVE",
"528 98 CURVE SMOOTH",
"387 98 OFFCURVE",
"291 188 OFFCURVE",
"275 325 CURVE",
"244 325 OFFCURVE",
"151 317 OFFCURVE",
"126 311 CURVE",
"203 67 OFFCURVE",
"291 -20 OFFCURVE",
"520 -20 CURVE SMOOTH",
"852 -20 OFFCURVE",
"1033 253 OFFCURVE",
"1033 749 CURVE SMOOTH"
);
},
{
closed = 1;
nodes = (
"825 783 OFFCURVE",
"724 633 OFFCURVE",
"565 633 CURVE SMOOTH",
"401 633 OFFCURVE",
"265 779 OFFCURVE",
"265 959 CURVE SMOOTH",
"265 1047 OFFCURVE",
"299 1132 OFFCURVE",
"355 1212 CURVE SMOOTH",
"411 1293 OFFCURVE",
"485 1336 OFFCURVE",
"569 1336 CURVE SMOOTH",
"649 1336 OFFCURVE",
"721 1305 OFFCURVE",
"773 1229 CURVE SMOOTH",
"824 1156 OFFCURVE",
"857 1072 OFFCURVE",
"857 971 CURVE"
);
}
);
vertWidth = 0;
width = 1139;
}
);
note = "";
unicode = 0039;
},
{
glyphname = colon;
layers = (
{
layerId = "4E2DFB36-A0B4-46BB-956A-EE2289348F3B";
paths = (
{
closed = 1;
nodes = (
"194 1038 LINE",
"194 847 LINE",
"386 847 LINE",
"386 1038 LINE"
);
},
{
closed = 1;
nodes = (
"194 192 LINE",
"194 0 LINE",
"386 0 LINE",
"386 192 LINE"
);
}
);
vertWidth = 0;
width = 569;
}
);
note = "";
unicode = 003A;
},
{
glyphname = semicolon;
layers = (
{
layerId = "4E2DFB36-A0B4-46BB-956A-EE2289348F3B";
paths = (
{
closed = 1;
nodes = (
"202 1038 LINE",
"202 847 LINE",
"394 847 LINE",
"394 1038 LINE"
);
},
{
closed = 1;
nodes = (
"202 192 LINE",
"202 0 LINE",
"298 0 LINE",
"298 -56 LINE",
"279 -99 OFFCURVE",
"270 -167 OFFCURVE",
"186 -207 CURVE",
"207 -236 OFFCURVE",
"207 -231 OFFCURVE",
"234 -279 CURVE",
"352 -207 OFFCURVE",
"357 -195 OFFCURVE",
"394 -63 CURVE",
"394 192 LINE"
);
}
);
vertWidth = 0;
width = 569;
}
);
note = "";
unicode = 003B;
},
{
glyphname = less;
layers = (
{
layerId = "4E2DFB36-A0B4-46BB-956A-EE2289348F3B";
paths = (
{
closed = 1;
nodes = (
"322 704 LINE",
"1073 1015 LINE",
"1073 1183 LINE",
"130 784 LINE",
"130 625 LINE",
"1073 217 LINE",
"1073 374 LINE"
);
}
);
vertWidth = 0;
width = 1196;
}
);
note = "";
unicode = 003C;
},
{
glyphname = equal;
layers = (
{
layerId = "4E2DFB36-A0B4-46BB-956A-EE2289348F3B";
paths = (
{
closed = 1;
nodes = (
"130 1000 LINE",
"130 840 LINE",
"1065 840 LINE",
"1065 1000 LINE"
);
},
{
closed = 1;
nodes = (
"130 568 LINE",
"130 409 LINE",
"1065 409 LINE",
"1065 568 LINE"
);
}
);
vertWidth = 0;
width = 1196;
}
);
note = "";
unicode = 003D;
},
{
glyphname = greater;
layers = (
{
layerId = "4E2DFB36-A0B4-46BB-956A-EE2289348F3B";
paths = (
{
closed = 1;
nodes = (
"129 1183 LINE",
"129 1015 LINE",
"880 704 LINE",
"129 374 LINE",
"129 217 LINE",
"1072 625 LINE",
"1072 784 LINE"
);
}
);
vertWidth = 0;
width = 1196;
}
);
note = "";
unicode = 003E;
},
{
glyphname = question;
layers = (
{
layerId = "4E2DFB36-A0B4-46BB-956A-EE2289348F3B";
paths = (
{
closed = 1;
nodes = (
"1025 1307 OFFCURVE",
"826 1462 OFFCURVE",
"569 1462 CURVE SMOOTH",
"324 1462 OFFCURVE",
"222 1415 OFFCURVE",
"106 1083 CURVE",
"164 1062 OFFCURVE",
"180 1057 OFFCURVE",
"266 1052 CURVE",
"293 1235 OFFCURVE",
"414 1344 OFFCURVE",
"569 1344 CURVE SMOOTH",
"732 1344 OFFCURVE",
"866 1205 OFFCURVE",
"866 1067 CURVE SMOOTH",
"866 931 OFFCURVE",
"738 856 OFFCURVE",
"642 755 CURVE SMOOTH",
"574 683 OFFCURVE",
"525 582 OFFCURVE",
"490 465 CURVE",
"490 357 LINE",
"632 357 LINE",
"632 396 OFFCURVE",
"637 440 OFFCURVE",
"649 487 CURVE SMOOTH",
"674 581 OFFCURVE",
"656 574 OFFCURVE",
"808 706 CURVE SMOOTH",
"968 845 OFFCURVE",
"1025 939 OFFCURVE",
"1025 1076 CURVE SMOOTH"
);
},
{
closed = 1;
nodes = (
"482 174 LINE",
"482 0 LINE",
"657 0 LINE",
"657 174 LINE"
);
}
);
vertWidth = 0;
width = 1139;
}
);
note = "";
unicode = 003F;
},
{
glyphname = at;
layers = (
{
layerId = "4E2DFB36-A0B4-46BB-956A-EE2289348F3B";
paths = (
{
closed = 1;
nodes = (
"1575 -212 OFFCURVE",
"1451 -282 OFFCURVE",
"1104 -282 CURVE SMOOTH",
"556 -282 OFFCURVE",
"249 4 OFFCURVE",
"249 472 CURVE SMOOTH",
"249 957 OFFCURVE",
"604 1342 OFFCURVE",
"1072 1342 CURVE SMOOTH",
"1458 1342 OFFCURVE",
"1783 1061 OFFCURVE",
"1783 708 CURVE SMOOTH",
"1783 456 OFFCURVE",
"1577 156 OFFCURVE",
"1399 156 CURVE SMOOTH",
"1358 156 OFFCURVE",
"1340 171 OFFCURVE",
"1327 224 CURVE",
"1496 1026 LINE",
"1328 1026 LINE",
"1325 989 OFFCURVE",
"1304 908 OFFCURVE",
"1296 883 CURVE",
"1211 968 OFFCURVE",
"1162 1014 OFFCURVE",
"1148 1022 CURVE SMOOTH",
"1106 1046 OFFCURVE",
"1057 1058 OFFCURVE",
"1001 1058 CURVE SMOOTH",
"746 1058 OFFCURVE",
"497 752 OFFCURVE",
"497 436 CURVE SMOOTH",
"497 196 OFFCURVE",
"648 -4 OFFCURVE",
"845 -4 CURVE SMOOTH",
"949 -4 OFFCURVE",
"1019 31 OFFCURVE",
"1144 156 CURVE",
"1159 121 OFFCURVE",
"1174 82 OFFCURVE",
"1191 37 CURVE",
"1212 10 OFFCURVE",
"1258 -4 OFFCURVE",
"1327 -4 CURVE SMOOTH",
"1631 -4 OFFCURVE",
"1919 340 OFFCURVE",
"1919 696 CURVE SMOOTH",
"1919 1156 OFFCURVE",
"1529 1470 OFFCURVE",
"1084 1470 CURVE SMOOTH",
"845 1470 OFFCURVE",
"645 1403 OFFCURVE",
"484 1269 CURVE SMOOTH",
"268 1088 OFFCURVE",
"121 750 OFFCURVE",
"121 464 CURVE SMOOTH",
"121 -77 OFFCURVE",
"508 -410 OFFCURVE",
"1136 -410 CURVE SMOOTH",
"1510 -410 OFFCURVE",
"1773 -278 OFFCURVE",
"1967 12 CURVE",
"1799 12 LINE"
);
},
{
closed = 1;
nodes = (
"1231 395 OFFCURVE",
"1069 132 OFFCURVE",
"885 132 CURVE SMOOTH",
"769 132 OFFCURVE",
"681 261 OFFCURVE",
"681 432 CURVE SMOOTH",
"681 667 OFFCURVE",
"844 924 OFFCURVE",
"1013 924 CURVE SMOOTH",
"1145 924 OFFCURVE",
"1231 809 OFFCURVE",
"1231 636 CURVE SMOOTH"
);
}
);
vertWidth = 0;
width = 2079;
}
);
note = "";
unicode = 0040;
},
{
glyphname = A;
layers = (
{
layerId = "4E2DFB36-A0B4-46BB-956A-EE2289348F3B";
paths = (
{
closed = 1;
nodes = (
"371 446 LINE",
"971 446 LINE",
"1140 0 LINE",
"1324 0 LINE",
"776 1450 LINE",
"566 1450 LINE",
"18 0 LINE",
"202 0 LINE"
);
},
{
closed = 1;
nodes = (
"623 1132 OFFCURVE",
"639 1169 OFFCURVE",
"671 1259 CURVE",
"703 1169 OFFCURVE",
"719 1132 OFFCURVE",
"738 1075 CURVE",
"920 579 LINE",
"422 579 LINE",
"604 1075 LINE"
);
}
);
vertWidth = 0;
width = 1366;
}
);
note = "";
unicode = 0041;
},
{
glyphname = B;
layers = (
{
layerId = "4E2DFB36-A0B4-46BB-956A-EE2289348F3B";
paths = (
{
closed = 1;
nodes = (
"1239 594 OFFCURVE",
"1171 674 OFFCURVE",
"951 768 CURVE",
"1099 843 OFFCURVE",
"1166 936 OFFCURVE",
"1166 1079 CURVE SMOOTH",
"1166 1291 OFFCURVE",
"971 1450 OFFCURVE",
"770 1450 CURVE SMOOTH",
"162 1450 LINE",
"162 0 LINE",
"795 0 LINE SMOOTH",
"1051 0 OFFCURVE",
"1239 157 OFFCURVE",
"1239 412 CURVE SMOOTH"
);
},
{
closed = 1;
nodes = (
"1011 913 OFFCURVE",
"910 830 OFFCURVE",
"746 830 CURVE SMOOTH",
"337 830 LINE",
"337 1300 LINE",
"756 1300 LINE SMOOTH",
"900 1300 OFFCURVE",
"1011 1208 OFFCURVE",
"1011 1060 CURVE SMOOTH"
);
},
{
closed = 1;
nodes = (
"1058 260 OFFCURVE",
"935 150 OFFCURVE",
"787 150 CURVE SMOOTH",
"337 150 LINE",
"337 672 LINE",
"770 672 LINE SMOOTH",
"958 672 OFFCURVE",
"1058 583 OFFCURVE",
"1058 408 CURVE SMOOTH"
);
}
);
vertWidth = 0;
width = 1366;
}
);
note = "";
unicode = 0042;
},
{
glyphname = C;
layers = (
{
layerId = "4E2DFB36-A0B4-46BB-956A-EE2289348F3B";
paths = (
{
closed = 1;
nodes = (
"1267 1335 OFFCURVE",
"1084 1470 OFFCURVE",
"791 1470 CURVE",
"352 1459 OFFCURVE",
"126 1215 OFFCURVE",
"113 736 CURVE",
"116 243 OFFCURVE",
"338 -9 OFFCURVE",
"779 -20 CURVE",
"1096 -13 OFFCURVE",
"1285 143 OFFCURVE",
"1344 446 CURVE",
"1187 479 LINE",
"1136 236 OFFCURVE",
"995 114 OFFCURVE",
"766 114 CURVE",
"435 129 OFFCURVE",
"280 332 OFFCURVE",
"280 724 CURVE",
"285 1117 OFFCURVE",
"451 1317 OFFCURVE",
"779 1324 CURVE",
"992 1323 OFFCURVE",
"1127 1222 OFFCURVE",
"1185 1020 CURVE",
"1344 1054 LINE"
);
}
);
vertWidth = 0;
width = 1479;
}
);
note = "";
unicode = 0043;
},
{
glyphname = D;
layers = (
{
layerId = "4E2DFB36-A0B4-46BB-956A-EE2289348F3B";
paths = (
{
closed = 1;
nodes = (
"1351 1153 OFFCURVE",
"1132 1450 OFFCURVE",
"777 1450 CURVE SMOOTH",
"170 1450 LINE",
"170 0 LINE",
"761 0 LINE SMOOTH",
"1129 0 OFFCURVE",
"1351 277 OFFCURVE",
"1351 724 CURVE SMOOTH"
);
},
{
closed = 1;
nodes = (
"1168 367 OFFCURVE",
"1006 150 OFFCURVE",
"728 150 CURVE SMOOTH",
"345 150 LINE",
"345 1300 LINE",
"769 1300 LINE SMOOTH",
"1029 1300 OFFCURVE",
"1168 1096 OFFCURVE",
"1168 732 CURVE SMOOTH"
);
}
);
vertWidth = 0;
width = 1479;
}
);
note = "";
unicode = 0044;
},
{
glyphname = E;
layers = (
{
layerId = "4E2DFB36-A0B4-46BB-956A-EE2289348F3B";
paths = (
{
closed = 1;
nodes = (
"345 142 LINE",
"345 672 LINE",
"1150 672 LINE",
"1150 814 LINE",
"345 814 LINE",
"345 1308 LINE",
"1207 1308 LINE",
"1207 1450 LINE",
"178 1450 LINE",
"178 0 LINE",
"1240 0 LINE",
"1240 142 LINE"
);
}
);
vertWidth = 0;
width = 1366;
}
);
note = "";
unicode = 0045;
},
{
glyphname = F;
layers = (
{
layerId = "4E2DFB36-A0B4-46BB-956A-EE2289348F3B";
paths = (
{
closed = 1;
nodes = (
"178 1450 LINE",
"178 0 LINE",
"345 0 LINE",
"345 684 LINE",
"1031 684 LINE",
"1031 826 LINE",
"345 826 LINE",
"345 1308 LINE",
"1136 1308 LINE",
"1136 1450 LINE"
);
}
);
vertWidth = 0;
width = 1251;
}
);
note = "";
unicode = 0046;
},
{
glyphname = G;
layers = (
{
layerId = "4E2DFB36-A0B4-46BB-956A-EE2289348F3B";
paths = (
{
closed = 1;
nodes = (
"893 713 LINE",
"893 571 LINE",
"1282 571 LINE",
"1282 281 LINE",
"1170 185 OFFCURVE",
"994 122 OFFCURVE",
"846 122 CURVE SMOOTH",
"506 122 OFFCURVE",
"296 344 OFFCURVE",
"296 720 CURVE SMOOTH",
"296 1084 OFFCURVE",
"495 1325 OFFCURVE",
"834 1325 CURVE SMOOTH",
"939 1325 OFFCURVE",
"1027 1303 OFFCURVE",
"1098 1260 CURVE SMOOTH",
"1186 1207 OFFCURVE",
"1217 1166 OFFCURVE",
"1278 1014 CURVE",
"1423 1056 LINE",
"1338 1336 OFFCURVE",
"1149 1469 OFFCURVE",
"838 1469 CURVE SMOOTH",
"399 1469 OFFCURVE",
"121 1180 OFFCURVE",
"121 716 CURVE SMOOTH",
"121 264 OFFCURVE",
"391 -20 OFFCURVE",
"850 -20 CURVE SMOOTH",
"1074 -20 OFFCURVE",
"1283 69 OFFCURVE",
"1440 202 CURVE",
"1440 713 LINE"
);
}
);
vertWidth = 0;
width = 1593;
}
);
note = "";
unicode = 0047;
},
{
glyphname = H;
layers = (
{
layerId = "4E2DFB36-A0B4-46BB-956A-EE2289348F3B";
paths = (
{
closed = 1;
nodes = (
"1129 1450 LINE",
"1129 839 LINE",
"345 839 LINE",
"345 1450 LINE",
"178 1450 LINE",
"178 0 LINE",
"345 0 LINE",
"345 697 LINE",
"1129 697 LINE",
"1129 0 LINE",
"1296 0 LINE",
"1296 1450 LINE"
);
}
);
vertWidth = 0;
width = 1479;
}
);
note = "";
unicode = 0048;
},
{
glyphname = I;
layers = (
{
layerId = "4E2DFB36-A0B4-46BB-956A-EE2289348F3B";
paths = (
{
closed = 1;
nodes = (
"192 1450 LINE",
"192 0 LINE",
"376 0 LINE",
"376 1450 LINE"
);
}
);
vertWidth = 0;
width = 569;
}
);
note = "";
unicode = 0049;
},
{
glyphname = J;
layers = (
{
layerId = "4E2DFB36-A0B4-46BB-956A-EE2289348F3B";
paths = (
{
closed = 1;
nodes = (
"719 1450 LINE",
"719 375 LINE SMOOTH",
"719 231 OFFCURVE",
"632 132 OFFCURVE",
"483 132 CURVE SMOOTH",
"319 132 OFFCURVE",
"270 200 OFFCURVE",
"249 413 CURVE",
"104 391 LINE",
"104 118 OFFCURVE",
"239 -20 OFFCURVE",
"487 -20 CURVE SMOOTH",
"723 -20 OFFCURVE",
"887 130 OFFCURVE",
"887 359 CURVE SMOOTH",
"887 1450 LINE"
);
}
);
vertWidth = 0;
width = 1024;
}
);
note = "";
unicode = 004A;
},
{
glyphname = K;
layers = (
{
layerId = "4E2DFB36-A0B4-46BB-956A-EE2289348F3B";
paths = (
{
closed = 1;
nodes = (
"1307 1450 LINE",
"1095 1450 LINE",
"337 692 LINE",
"337 1450 LINE",
"162 1450 LINE",
"162 0 LINE",
"335 0 LINE",
"335 479 LINE",
"585 729 LINE",
"1095 0 LINE",
"1307 0 LINE",
"712 856 LINE"
);
}
);
vertWidth = 0;
width = 1366;
}
);
note = "";
unicode = 004B;
},
{
glyphname = L;
layers = (
{
layerId = "4E2DFB36-A0B4-46BB-956A-EE2289348F3B";
paths = (
{
closed = 1;
nodes = (
"330 142 LINE",
"330 1450 LINE",
"162 1450 LINE",
"162 0 LINE",
"1057 0 LINE",
"1057 142 LINE"
);
}
);
vertWidth = 0;
width = 1139;
}
);
note = "";
unicode = 004C;
},
{
glyphname = M;
layers = (
{
layerId = "4E2DFB36-A0B4-46BB-956A-EE2289348F3B";
paths = (
{
closed = 1;
nodes = (
"1260 1450 LINE",
"849 169 LINE",
"438 1450 LINE",
"162 1450 LINE",
"162 0 LINE",
"328 0 LINE",
"328 1225 LINE",
"348 1228 LINE",
"759 0 LINE",
"939 0 LINE",
"1350 1228 LINE",
"1370 1225 LINE",
"1370 0 LINE",
"1536 0 LINE",
"1536 1450 LINE"
);
}
);
vertWidth = 0;
width = 1706;
}
);
note = "";
unicode = 004D;
},
{
glyphname = N;
layers = (
{
layerId = "4E2DFB36-A0B4-46BB-956A-EE2289348F3B";
paths = (
{
closed = 1;
nodes = (
"1132 1450 LINE",
"1132 270 LINE",
"345 1450 LINE",
"170 1450 LINE",
"170 0 LINE",
"334 0 LINE",
"334 1180 LINE",
"1121 0 LINE",
"1296 0 LINE",
"1296 1450 LINE"
);
}
);
vertWidth = 0;
width = 1479;
}
);
note = "";
unicode = 004E;
},
{
glyphname = O;
layers = (
{
layerId = "4E2DFB36-A0B4-46BB-956A-EE2289348F3B";
paths = (
{
closed = 1;
nodes = (
"1479 1150 OFFCURVE",
"1201 1470 OFFCURVE",
"797 1470 CURVE SMOOTH",
"380 1470 OFFCURVE",
"113 1179 OFFCURVE",
"113 712 CURVE SMOOTH",
"113 287 OFFCURVE",
"400 -20 OFFCURVE",
"797 -20 CURVE SMOOTH",
"1220 -20 OFFCURVE",
"1479 264 OFFCURVE",
"1479 720 CURVE SMOOTH"
);
},
{
closed = 1;
nodes = (
"1296 362 OFFCURVE",
"1106 122 OFFCURVE",
"797 122 CURVE SMOOTH",
"487 122 OFFCURVE",
"296 364 OFFCURVE",
"296 704 CURVE SMOOTH",
"296 1069 OFFCURVE",
"492 1320 OFFCURVE",
"797 1320 CURVE SMOOTH",
"1106 1320 OFFCURVE",
"1296 1073 OFFCURVE",
"1296 720 CURVE SMOOTH"
);
}
);
vertWidth = 0;
width = 1593;
}
);
note = "";
unicode = 004F;
},
{
glyphname = P;
layers = (
{
layerId = "4E2DFB36-A0B4-46BB-956A-EE2289348F3B";
paths = (
{
closed = 1;
nodes = (
"1255 1310 OFFCURVE",
"1085 1448 OFFCURVE",
"754 1448 CURVE SMOOTH",
"170 1448 LINE",
"170 0 LINE",
"337 0 LINE",
"337 607 LINE",
"811 607 LINE",
"1072 610 OFFCURVE",
"1255 764 OFFCURVE",
"1255 1041 CURVE SMOOTH"
);
},
{
closed = 1;
nodes = (
"1074 851 OFFCURVE",
"951 763 OFFCURVE",
"778 758 CURVE",
"345 758 LINE",
"345 1290 LINE",
"844 1290 LINE",
"1019 1240 OFFCURVE",
"1074 1176 OFFCURVE",
"1074 1037 CURVE SMOOTH"
);
}
);
vertWidth = 0;
width = 1366;
}
);
note = "";
unicode = 0050;
},
{
glyphname = Q;
layers = (
{
layerId = "4E2DFB36-A0B4-46BB-956A-EE2289348F3B";
paths = (
{
closed = 1;
nodes = (
"1422 29 OFFCURVE",
"1308 93 OFFCURVE",
"1249 146 CURVE",
"1406 303 OFFCURVE",
"1473 474 OFFCURVE",
"1473 715 CURVE SMOOTH",
"1473 1149 OFFCURVE",
"1194 1470 OFFCURVE",
"790 1470 CURVE SMOOTH",
"371 1470 OFFCURVE",
"105 1178 OFFCURVE",
"105 719 CURVE SMOOTH",
"105 287 OFFCURVE",
"389 -22 OFFCURVE",
"786 -22 CURVE SMOOTH",
"939 -22 OFFCURVE",
"1074 22 OFFCURVE",
"1141 68 CURVE",
"1144 68 OFFCURVE",
"1255 -16 OFFCURVE",
"1447 -107 CURVE",
"1464 -78 OFFCURVE",
"1481 -38 OFFCURVE",
"1496 3 CURVE"
);
},
{
closed = 1;
nodes = (
"1290 506 OFFCURVE",
"1249 382 OFFCURVE",
"1118 227 CURVE",
"1065 288 OFFCURVE",
"959 347 OFFCURVE",
"850 379 CURVE",
"845 348 OFFCURVE",
"832 310 OFFCURVE",
"816 263 CURVE",
"862 255 OFFCURVE",
"972 201 OFFCURVE",
"1000 170 CURVE",
"898 122 OFFCURVE",
"869 120 OFFCURVE",
"790 120 CURVE SMOOTH",
"499 120 OFFCURVE",
"288 360 OFFCURVE",
"288 715 CURVE SMOOTH",
"288 1071 OFFCURVE",
"487 1320 OFFCURVE",
"790 1320 CURVE SMOOTH",
"1104 1320 OFFCURVE",
"1290 1064 OFFCURVE",
"1290 711 CURVE SMOOTH"
);
}
);
vertWidth = 0;
width = 1593;
}
);
note = "";
unicode = 0051;
},
{
glyphname = R;
layers = (
{
layerId = "4E2DFB36-A0B4-46BB-956A-EE2289348F3B";
paths = (
{
closed = 1;
nodes = (
"1399 51 OFFCURVE",
"1340 145 OFFCURVE",
"1252 290 CURVE SMOOTH",
"1153 451 OFFCURVE",
"1100 521 OFFCURVE",
"1015 582 CURVE",
"985 601 OFFCURVE",
"941 631 OFFCURVE",
"941 635 CURVE SMOOTH",
"941 648 OFFCURVE",
"981 668 OFFCURVE",
"1060 696 CURVE SMOOTH",
"1245 761 OFFCURVE",
"1326 872 OFFCURVE",
"1326 1051 CURVE SMOOTH",
"1326 1295 OFFCURVE",
"1156 1450 OFFCURVE",
"912 1450 CURVE SMOOTH",
"178 1450 LINE",
"178 0 LINE",
"346 0 LINE",
"346 648 LINE",
"658 648 LINE SMOOTH",
"739 648 OFFCURVE",
"798 625 OFFCURVE",
"928 450 CURVE",
"995 355 OFFCURVE",
"1171 86 OFFCURVE",
"1220 0 CURVE",
"1432 0 LINE"
);
},
{
closed = 1;
nodes = (
"1141 909 OFFCURVE",
"1006 798 OFFCURVE",
"846 798 CURVE SMOOTH",
"354 798 LINE",
"354 1308 LINE",
"897 1308 LINE",
"1105 1239 OFFCURVE",
"1141 1199 OFFCURVE",
"1141 1051 CURVE SMOOTH"
);
}
);
vertWidth = 0;
width = 1479;
}
);
note = "";
unicode = 0052;
},
{
glyphname = S;
layers = (
{
layerId = "4E2DFB36-A0B4-46BB-956A-EE2289348F3B";
paths = (
{
closed = 1;
nodes = (
"1239 590 OFFCURVE",
"1106 722 OFFCURVE",
"833 801 CURVE",
"701 826 OFFCURVE",
"584 856 OFFCURVE",
"480 893 CURVE SMOOTH",
"376 930 OFFCURVE",
"323 993 OFFCURVE",
"321 1082 CURVE",
"341 1239 OFFCURVE",
"456 1321 OFFCURVE",
"665 1328 CURVE",
"890 1319 OFFCURVE",
"1014 1221 OFFCURVE",
"1039 1033 CURVE",
"1191 1046 LINE",
"1172 1317 OFFCURVE",
"998 1458 OFFCURVE",
"669 1470 CURVE",
"350 1458 OFFCURVE",
"181 1325 OFFCURVE",
"162 1070 CURVE",
"162 871 OFFCURVE",
"326 739 OFFCURVE",
"675 667 CURVE SMOOTH",
"946 611 OFFCURVE",
"1082 518 OFFCURVE",
"1082 389 CURVE SMOOTH",
"1082 235 OFFCURVE",
"942 142 OFFCURVE",
"710 121 CURVE SMOOTH",
"697 120 OFFCURVE",
"685 121 OFFCURVE",
"673 120 CURVE",
"422 120 OFFCURVE",
"282 239 OFFCURVE",
"251 478 CURVE",
"106 451 LINE",
"137 143 OFFCURVE",
"335 -14 OFFCURVE",
"702 -21 CURVE",
"1039 0 OFFCURVE",
"1218 140 OFFCURVE",
"1239 399 CURVE"
);
}
);
vertWidth = 0;
width = 1366;
}
);
note = "";
unicode = 0053;
},
{
glyphname = T;
layers = (
{
layerId = "4E2DFB36-A0B4-46BB-956A-EE2289348F3B";
paths = (
{
closed = 1;
nodes = (
"66 1450 LINE",
"66 1308 LINE",
"547 1308 LINE",
"547 0 LINE",
"712 0 LINE",
"712 1308 LINE",
"1192 1308 LINE",
"1192 1450 LINE"
);
}
);
vertWidth = 0;
width = 1251;
}
);
note = "";
unicode = 0054;
},
{
glyphname = U;
layers = (
{
layerId = "4E2DFB36-A0B4-46BB-956A-EE2289348F3B";
paths = (
{
closed = 1;
nodes = (
"1129 1450 LINE",
"1129 520 LINE SMOOTH",
"1129 251 OFFCURVE",
"998 122 OFFCURVE",
"733 122 CURVE SMOOTH",
"488 122 OFFCURVE",
"345 259 OFFCURVE",
"345 504 CURVE SMOOTH",
"345 1450 LINE",
"178 1450 LINE",
"178 496 LINE SMOOTH",
"178 165 OFFCURVE",
"377 -20 OFFCURVE",
"737 -20 CURVE SMOOTH",
"1080 -20 OFFCURVE",
"1296 169 OFFCURVE",
"1296 504 CURVE SMOOTH",
"1296 1450 LINE"
);
}
);
vertWidth = 0;
width = 1479;
}
);
note = "";
unicode = 0055;
},
{
glyphname = V;
layers = (
{
layerId = "4E2DFB36-A0B4-46BB-956A-EE2289348F3B";
paths = (
{
closed = 1;
nodes = (
"684 117 LINE",
"209 1450 LINE",
"26 1450 LINE",
"579 0 LINE",
"793 0 LINE",
"1336 1450 LINE",
"1168 1450 LINE"
);
}
);
vertWidth = 0;
width = 1366;
}
);
note = "";
unicode = 0056;
},
{
glyphname = W;
layers = (
{
layerId = "4E2DFB36-A0B4-46BB-956A-EE2289348F3B";
paths = (
{
closed = 1;
nodes = (
"1408 191 LINE",
"1066 1450 LINE",
"856 1450 LINE",
"514 191 LINE",
"216 1450 LINE",
"42 1450 LINE",
"399 0 LINE",
"629 0 LINE",
"961 1293 LINE",
"1293 0 LINE",
"1523 0 LINE",
"1880 1450 LINE",
"1706 1450 LINE"
);
}
);
vertWidth = 0;
width = 1933;
}
);
note = "";
unicode = 0057;
},
{
glyphname = X;
layers = (
{
layerId = "4E2DFB36-A0B4-46BB-956A-EE2289348F3B";
paths = (
{
closed = 1;
nodes = (
"696 603 LINE",
"1122 0 LINE",
"1327 0 LINE",
"798 749 LINE",
"1293 1450 LINE",
"1088 1450 LINE",
"696 894 LINE",
"304 1450 LINE",
"99 1450 LINE",
"593 749 LINE",
"65 0 LINE",
"270 0 LINE"
);
}
);
vertWidth = 0;
width = 1366;
}
);
note = "";
unicode = 0058;
},
{
glyphname = Y;
layers = (
{
layerId = "4E2DFB36-A0B4-46BB-956A-EE2289348F3B";
paths = (
{
closed = 1;
nodes = (
"673 752 LINE",
"225 1450 LINE",
"18 1450 LINE",
"586 600 LINE",
"586 0 LINE",
"760 0 LINE",
"760 600 LINE",
"1328 1450 LINE",
"1121 1450 LINE"
);
}
);
vertWidth = 0;
width = 1366;
}
);
note = "";
unicode = 0059;
},
{
glyphname = Z;
layers = (
{
layerId = "4E2DFB36-A0B4-46BB-956A-EE2289348F3B";
paths = (
{
closed = 1;
nodes = (
"238 146 LINE",
"1160 1294 LINE",
"1160 1450 LINE",
"148 1450 LINE",
"148 1304 LINE",
"964 1304 LINE",
"58 165 LINE",
"58 0 LINE",
"1184 0 LINE",
"1184 146 LINE"
);
}
);
vertWidth = 0;
width = 1251;
}
);
note = "";
unicode = 005A;
},
{
glyphname = bracketleft;
layers = (
{
layerId = "4E2DFB36-A0B4-46BB-956A-EE2289348F3B";
paths = (
{
closed = 1;
nodes = (
"310 -292 LINE",
"310 1333 LINE",
"538 1333 LINE",
"538 1450 LINE",
"154 1450 LINE",
"154 -409 LINE",
"538 -409 LINE",
"538 -292 LINE"
);
}
);
vertWidth = 0;
width = 569;
}
);
note = "";
unicode = 005B;
},
{
glyphname = backslash;
layers = (
{
layerId = "4E2DFB36-A0B4-46BB-956A-EE2289348F3B";
paths = (
{
closed = 1;
nodes = (
"18 1470 LINE",
"450 -20 LINE",
"569 -20 LINE",
"138 1470 LINE"
);
}
);
vertWidth = 0;
width = 569;
}
);
note = "";
unicode = 005C;
},
{
glyphname = bracketright;
layers = (
{
layerId = "4E2DFB36-A0B4-46BB-956A-EE2289348F3B";
paths = (
{
closed = 1;
nodes = (
"58 1450 LINE",
"58 1333 LINE",
"286 1333 LINE",
"286 -293 LINE",
"58 -293 LINE",
"58 -410 LINE",
"442 -410 LINE",
"442 1450 LINE"
);
}
);
vertWidth = 0;
width = 569;
}
);
note = "";
unicode = 005D;
},
{
glyphname = asciicircum;
layers = (
{
layerId = "4E2DFB36-A0B4-46BB-956A-EE2289348F3B";
paths = (
{
closed = 1;
nodes = (
"402 1468 LINE",
"66 703 LINE",
"242 703 LINE",
"474 1286 LINE",
"721 703 LINE",
"889 703 LINE",
"545 1468 LINE"
);
}
);
vertWidth = 0;
width = 961;
}
);
note = "";
unicode = 005E;
},
{
glyphname = underscore;
layers = (
{
layerId = "4E2DFB36-A0B4-46BB-956A-EE2289348F3B";
paths = (
{
closed = 1;
nodes = (
"0 -282 LINE",
"0 -410 LINE",
"1139 -410 LINE",
"1139 -282 LINE"
);
}
);
vertWidth = 0;
width = 1139;
}
);
note = "";
unicode = 005F;
},
{
glyphname = grave;
layers = (
{
layerId = "4E2DFB36-A0B4-46BB-956A-EE2289348F3B";
paths = (
{
closed = 1;
nodes = (
"109 1450 LINE",
"333 1178 LINE",
"469 1178 LINE",
"341 1450 LINE"
);
}
);
vertWidth = 0;
width = 682;
}
);
note = "";
unicode = 0060;
},
{
glyphname = a;
layers = (
{
layerId = "4E2DFB36-A0B4-46BB-956A-EE2289348F3B";
paths = (
{
closed = 1;
nodes = (
"972 92 OFFCURVE",
"958 172 OFFCURVE",
"945 324 CURVE",
"945 803 LINE SMOOTH",
"945 951 OFFCURVE",
"768 1074 OFFCURVE",
"581 1074 CURVE SMOOTH",
"387 1074 OFFCURVE",
"158 906 OFFCURVE",
"138 739 CURVE",
"212 728 OFFCURVE",
"226 723 OFFCURVE",
"258 715 CURVE",
"306 864 OFFCURVE",
"424 948 OFFCURVE",
"577 948 CURVE SMOOTH",
"697 948 OFFCURVE",
"766 899 OFFCURVE",
"817 787 CURVE",
"817 643 LINE",
"798 641 OFFCURVE",
"757 633 OFFCURVE",
"692 619 CURVE SMOOTH",
"459 567 OFFCURVE",
"493 580 OFFCURVE",
"377 556 CURVE SMOOTH",
"202 520 OFFCURVE",
"121 412 OFFCURVE",
"121 236 CURVE SMOOTH",
"121 61 OFFCURVE",
"232 -20 OFFCURVE",
"481 -20 CURVE SMOOTH",
"620 -20 OFFCURVE",
"716 23 OFFCURVE",
"833 140 CURVE",
"836 132 OFFCURVE",
"838 72 OFFCURVE",
"881 -20 CURVE",
"918 -3 OFFCURVE",
"962 9 OFFCURVE",
"1001 20 CURVE"
);
},
{
closed = 1;
nodes = (
"709 205 OFFCURVE",
"625 116 OFFCURVE",
"481 116 CURVE SMOOTH",
"332 116 OFFCURVE",
"257 160 OFFCURVE",
"257 248 CURVE SMOOTH",
"257 320 OFFCURVE",
"289 373 OFFCURVE",
"354 408 CURVE SMOOTH",
"429 447 OFFCURVE",
"756 495 OFFCURVE",
"809 515 CURVE",
"809 292 LINE"
);
}
);
vertWidth = 0;
width = 1139;
}
);
note = "";
unicode = 0061;
},
{
glyphname = b;
layers = (
{
layerId = "4E2DFB36-A0B4-46BB-956A-EE2289348F3B";
paths = (
{
closed = 1;
nodes = (
"1025 820 OFFCURVE",
"834 1074 OFFCURVE",
"589 1074 CURVE SMOOTH",
"477 1074 OFFCURVE",
"405 1040 OFFCURVE",
"304 939 CURVE",
"304 1450 LINE",
"170 1450 LINE",
"170 0 LINE",
"304 0 LINE",
"304 116 LINE",
"401 19 OFFCURVE",
"477 -20 OFFCURVE",
"589 -20 CURVE SMOOTH",
"839 -20 OFFCURVE",
"1025 223 OFFCURVE",
"1025 520 CURVE SMOOTH"
);
},
{
closed = 1;
nodes = (
"889 307 OFFCURVE",
"761 116 OFFCURVE",
"589 116 CURVE SMOOTH",
"422 116 OFFCURVE",
"305 299 OFFCURVE",
"305 520 CURVE SMOOTH",
"305 732 OFFCURVE",
"428 940 OFFCURVE",
"589 940 CURVE SMOOTH",
"756 940 OFFCURVE",
"889 745 OFFCURVE",
"889 520 CURVE SMOOTH"
);
}
);
vertWidth = 0;
width = 1139;
}
);
note = "";
unicode = 0062;
},
{
glyphname = c;
layers = (
{
layerId = "4E2DFB36-A0B4-46BB-956A-EE2289348F3B";
paths = (
{
closed = 1;
nodes = (
"951 353 OFFCURVE",
"884 372 OFFCURVE",
"857 380 CURVE",
"797 203 OFFCURVE",
"698 108 OFFCURVE",
"557 108 CURVE SMOOTH",
"377 108 OFFCURVE",
"241 297 OFFCURVE",
"241 516 CURVE SMOOTH",
"241 743 OFFCURVE",
"372 948 OFFCURVE",
"549 948 CURVE SMOOTH",
"681 948 OFFCURVE",
"761 864 OFFCURVE",
"849 707 CURVE",
"854 709 OFFCURVE",
"928 730 OFFCURVE",
"961 755 CURVE",
"881 952 OFFCURVE",
"721 1074 OFFCURVE",
"545 1074 CURVE SMOOTH",
"298 1074 OFFCURVE",
"113 816 OFFCURVE",
"113 516 CURVE SMOOTH",
"113 225 OFFCURVE",
"302 -20 OFFCURVE",
"553 -20 CURVE SMOOTH",
"761 -20 OFFCURVE",
"909 109 OFFCURVE",
"977 348 CURVE"
);
}
);
vertWidth = 0;
width = 1024;
}
);
note = "";
unicode = 0063;
},
{
glyphname = d;
layers = (
{
layerId = "4E2DFB36-A0B4-46BB-956A-EE2289348F3B";
paths = (
{
closed = 1;
nodes = (
"826 1450 LINE",
"825 939 LINE",
"723 1038 OFFCURVE",
"654 1074 OFFCURVE",
"541 1074 CURVE SMOOTH",
"294 1074 OFFCURVE",
"105 817 OFFCURVE",
"105 521 CURVE SMOOTH",
"105 234 OFFCURVE",
"294 -20 OFFCURVE",
"541 -20 CURVE SMOOTH",
"656 -20 OFFCURVE",
"716 8 OFFCURVE",
"825 117 CURVE",
"825 0 LINE",
"961 0 LINE",
"961 1450 LINE"
);
},
{
closed = 1;
nodes = (
"825 302 OFFCURVE",
"710 116 OFFCURVE",
"541 116 CURVE SMOOTH",
"381 116 OFFCURVE",
"241 299 OFFCURVE",
"241 521 CURVE SMOOTH",
"241 732 OFFCURVE",
"372 940 OFFCURVE",
"541 940 CURVE SMOOTH",
"711 940 OFFCURVE",
"825 756 OFFCURVE",
"825 521 CURVE SMOOTH"
);
}
);
vertWidth = 0;
width = 1139;
}
);
note = "";
unicode = 0064;
},
{
glyphname = e;
layers = (
{
layerId = "4E2DFB36-A0B4-46BB-956A-EE2289348F3B";
paths = (
{
closed = 1;
nodes = (
"1025 860 OFFCURVE",
"828 1074 OFFCURVE",
"565 1074 CURVE SMOOTH",
"428 1074 OFFCURVE",
"318 1013 OFFCURVE",
"238 909 CURVE SMOOTH",
"198 857 OFFCURVE",
"167 798 OFFCURVE",
"146 731 CURVE SMOOTH",
"124 663 OFFCURVE",
"113 598 OFFCURVE",
"113 537 CURVE SMOOTH",
"113 357 OFFCURVE",
"168 232 OFFCURVE",
"256 136 CURVE SMOOTH",
"299 89 OFFCURVE",
"345 51 OFFCURVE",
"393 22 CURVE SMOOTH",
"440 -6 OFFCURVE",
"497 -20 OFFCURVE",
"565 -20 CURVE SMOOTH",
"777 -20 OFFCURVE",
"956 92 OFFCURVE",
"1009 284 CURVE",
"972 297 OFFCURVE",
"936 311 OFFCURVE",
"897 324 CURVE",
"854 184 OFFCURVE",
"713 108 OFFCURVE",
"565 108 CURVE SMOOTH",
"392 108 OFFCURVE",
"250 268 OFFCURVE",
"250 467 CURVE",
"1025 467 LINE",
"1025 603 LINE"
);
},
{
closed = 1;
nodes = (
"250 775 OFFCURVE",
"392 940 OFFCURVE",
"565 940 CURVE SMOOTH",
"754 940 OFFCURVE",
"889 787 OFFCURVE",
"889 603 CURVE",
"250 603 LINE"
);
}
);
vertWidth = 0;
width = 1139;
}
);
note = "";
unicode = 0065;
},
{
glyphname = f;
layers = (
{
layerId = "4E2DFB36-A0B4-46BB-956A-EE2289348F3B";
paths = (
{
closed = 1;
nodes = (
"346 1294 OFFCURVE",
"380 1322 OFFCURVE",
"625 1322 CURVE",
"633 1450 LINE",
"625 1449 OFFCURVE",
"617 1448 OFFCURVE",
"606 1448 CURVE SMOOTH",
"578 1448 OFFCURVE",
"544 1450 OFFCURVE",
"525 1450 CURVE SMOOTH",
"422 1450 OFFCURVE",
"347 1434 OFFCURVE",
"300 1403 CURVE SMOOTH",
"226 1353 OFFCURVE",
"218 1325 OFFCURVE",
"218 1054 CURVE",
"34 1054 LINE",
"34 927 LINE",
"218 927 LINE",
"218 0 LINE",
"346 0 LINE",
"346 927 LINE",
"569 927 LINE",
"569 1054 LINE",
"346 1054 LINE",
"346 1182 LINE SMOOTH"
);
}
);
vertWidth = 0;
width = 569;
}
);
note = "";
unicode = 0066;
},
{
glyphname = g;
layers = (
{
layerId = "4E2DFB36-A0B4-46BB-956A-EE2289348F3B";
paths = (
{
closed = 1;
nodes = (
"825 1054 LINE",
"825 931 LINE",
"713 1043 OFFCURVE",
"647 1074 OFFCURVE",
"541 1074 CURVE SMOOTH",
"297 1074 OFFCURVE",
"105 816 OFFCURVE",
"105 524 CURVE SMOOTH",
"105 229 OFFCURVE",
"292 -20 OFFCURVE",
"541 -20 CURVE SMOOTH",
"652 -20 OFFCURVE",
"692 -1 OFFCURVE",
"825 132 CURVE",
"823 -44 LINE",
"820 -193 OFFCURVE",
"712 -290 OFFCURVE",
"541 -290 CURVE SMOOTH",
"398 -290 OFFCURVE",
"289 -224 OFFCURVE",
"262 -117 CURVE",
"134 -99 LINE",
"171 -303 OFFCURVE",
"327 -410 OFFCURVE",
"545 -410 CURVE SMOOTH",
"795 -410 OFFCURVE",
"970 -264 OFFCURVE",
"970 -25 CURVE",
"969 140 LINE",
"968 1054 LINE"
);
},
{
closed = 1;
nodes = (
"825 302 OFFCURVE",
"708 116 OFFCURVE",
"541 116 CURVE SMOOTH",
"374 116 OFFCURVE",
"241 303 OFFCURVE",
"241 524 CURVE SMOOTH",
"241 736 OFFCURVE",
"372 940 OFFCURVE",
"541 940 CURVE SMOOTH",
"711 940 OFFCURVE",
"825 759 OFFCURVE",
"825 524 CURVE SMOOTH"
);
}
);
vertWidth = 0;
width = 1139;
}
);
note = "";
unicode = 0067;
},
{
glyphname = h;
layers = (
{
layerId = "4E2DFB36-A0B4-46BB-956A-EE2289348F3B";
paths = (
{
closed = 1;
nodes = (
"977 944 OFFCURVE",
"820 1074 OFFCURVE",
"629 1074 CURVE SMOOTH",
"504 1074 OFFCURVE",
"402 1024 OFFCURVE",
"297 919 CURVE",
"296 1450 LINE",
"162 1450 LINE",
"162 0 LINE",
"290 0 LINE",
"290 687 LINE SMOOTH",
"290 810 OFFCURVE",
"460 948 OFFCURVE",
"621 948 CURVE SMOOTH",
"750 948 OFFCURVE",
"849 851 OFFCURVE",
"849 751 CURVE SMOOTH",
"849 0 LINE",
"977 0 LINE",
"977 759 LINE SMOOTH"
);
}
);
vertWidth = 0;
width = 1139;
}
);
note = "";
unicode = 0068;
},
{
glyphname = i;
layers = (
{
layerId = "4E2DFB36-A0B4-46BB-956A-EE2289348F3B";
paths = (
{
closed = 1;
nodes = (
"297 1338 OFFCURVE",
"268 1378 OFFCURVE",
"221 1378 CURVE SMOOTH",
"174 1378 OFFCURVE",
"145 1331 OFFCURVE",
"145 1278 CURVE SMOOTH",
"145 1229 OFFCURVE",
"177 1186 OFFCURVE",
"221 1186 CURVE SMOOTH",
"270 1186 OFFCURVE",
"297 1225 OFFCURVE",
"297 1282 CURVE SMOOTH"
);
},
{
closed = 1;
nodes = (
"154 1054 LINE",
"154 0 LINE",
"282 0 LINE",
"282 1054 LINE"
);
}
);
vertWidth = 0;
width = 455;
}
);
note = "";
unicode = 0069;
},
{
glyphname = j;
layers = (
{
layerId = "4E2DFB36-A0B4-46BB-956A-EE2289348F3B";
paths = (
{
closed = 1;
nodes = (
"350 1346 OFFCURVE",
"314 1378 OFFCURVE",
"274 1378 CURVE SMOOTH",
"227 1378 OFFCURVE",
"198 1331 OFFCURVE",
"198 1278 CURVE SMOOTH",
"198 1229 OFFCURVE",
"229 1186 OFFCURVE",
"274 1186 CURVE SMOOTH",
"323 1186 OFFCURVE",
"350 1225 OFFCURVE",
"350 1282 CURVE SMOOTH",
"350 1285 LINE"
);
},
{
closed = 1;
nodes = (
"210 1054 LINE",
"210 -107 LINE SMOOTH",
"210 -223 OFFCURVE",
"176 -279 OFFCURVE",
"100 -279 CURVE SMOOTH",
"75 -279 OFFCURVE",
"45 -272 OFFCURVE",
"17 -261 CURVE",
"-35 -385 LINE",
"32 -402 OFFCURVE",
"69 -410 OFFCURVE",
"105 -410 CURVE SMOOTH",
"260 -410 OFFCURVE",
"338 -320 OFFCURVE",
"338 -139 CURVE SMOOTH",
"338 1054 LINE"
);
}
);
vertWidth = 0;
width = 455;
}
);
note = "";
unicode = 006A;
},
{
glyphname = k;
layers = (
{
layerId = "4E2DFB36-A0B4-46BB-956A-EE2289348F3B";
paths = (
{
closed = 1;
nodes = (
"889 987 LINE",
"801 1074 LINE",
"303 599 LINE",
"303 1450 LINE",
"170 1450 LINE",
"170 0 LINE",
"298 0 LINE",
"298 414 LINE",
"442 545 LINE",
"833 -21 LINE",
"937 59 LINE",
"537 644 LINE"
);
}
);
vertWidth = 0;
width = 1024;
}
);
note = "";
unicode = 006B;
},
{
glyphname = l;
layers = (
{
layerId = "4E2DFB36-A0B4-46BB-956A-EE2289348F3B";
paths = (
{
closed = 1;
nodes = (
"162 1450 LINE",
"162 0 LINE",
"290 0 LINE",
"290 1450 LINE"
);
}
);
vertWidth = 0;
width = 455;
}
);
note = "";
unicode = 006C;
},
{
glyphname = m;
layers = (
{
layerId = "4E2DFB36-A0B4-46BB-956A-EE2289348F3B";
paths = (
{
closed = 1;
nodes = (
"1536 892 OFFCURVE",
"1375 1074 OFFCURVE",
"1203 1074 CURVE SMOOTH",
"1032 1074 OFFCURVE",
"972 990 OFFCURVE",
"881 899 CURVE",
"804 1032 OFFCURVE",
"727 1074 OFFCURVE",
"589 1074 CURVE",
"434 1050 OFFCURVE",
"441 1060 OFFCURVE",
"296 915 CURVE",
"296 1054 LINE",
"162 1054 LINE",
"162 0 LINE",
"290 0 LINE",
"290 679 LINE SMOOTH",
"290 775 OFFCURVE",
"473 948 OFFCURVE",
"589 948 CURVE SMOOTH",
"686 948 OFFCURVE",
"785 827 OFFCURVE",
"785 719 CURVE SMOOTH",
"785 0 LINE",
"913 0 LINE",
"913 675 LINE",
"956 798 OFFCURVE",
"1078 949 OFFCURVE",
"1182 949 CURVE SMOOTH",
"1187 949 OFFCURVE",
"1192 949 OFFCURVE",
"1199 948 CURVE",
"1287 948 OFFCURVE",
"1408 822 OFFCURVE",
"1408 711 CURVE SMOOTH",
"1408 0 LINE",
"1536 0 LINE",
"1536 727 LINE SMOOTH"
);
}
);
vertWidth = 0;
width = 1706;
}
);
note = "";
unicode = 006D;
},
{
glyphname = n;
layers = (
{
layerId = "4E2DFB36-A0B4-46BB-956A-EE2289348F3B";
paths = (
{
closed = 1;
nodes = (
"977 882 OFFCURVE",
"802 1074 OFFCURVE",
"613 1074 CURVE SMOOTH",
"500 1074 OFFCURVE",
"403 1026 OFFCURVE",
"296 919 CURVE",
"296 1054 LINE",
"162 1054 LINE",
"162 0 LINE",
"290 0 LINE",
"290 655 LINE",
"326 786 OFFCURVE",
"485 949 OFFCURVE",
"600 949 CURVE SMOOTH",
"709 949 OFFCURVE",
"849 838 OFFCURVE",
"849 703 CURVE SMOOTH",
"849 0 LINE",
"977 0 LINE",
"977 711 LINE SMOOTH"
);
}
);
vertWidth = 0;
width = 1139;
}
);
note = "";
unicode = 006E;
},
{
glyphname = o;
layers = (
{
layerId = "4E2DFB36-A0B4-46BB-956A-EE2289348F3B";
paths = (
{
closed = 1;
nodes = (
"1025 811 OFFCURVE",
"819 1074 OFFCURVE",
"561 1074 CURVE SMOOTH",
"302 1074 OFFCURVE",
"105 808 OFFCURVE",
"105 512 CURVE SMOOTH",
"105 222 OFFCURVE",
"304 -20 OFFCURVE",
"561 -20 CURVE SMOOTH",
"824 -20 OFFCURVE",
"1025 220 OFFCURVE",
"1025 512 CURVE SMOOTH"
);
},
{
closed = 1;
nodes = (
"889 300 OFFCURVE",
"743 116 OFFCURVE",
"561 116 CURVE SMOOTH",
"398 116 OFFCURVE",
"241 293 OFFCURVE",
"241 512 CURVE SMOOTH",
"241 728 OFFCURVE",
"389 940 OFFCURVE",
"561 940 CURVE SMOOTH",
"741 940 OFFCURVE",
"889 739 OFFCURVE",
"889 512 CURVE SMOOTH"
);
}
);
vertWidth = 0;
width = 1139;
}
);
note = "";
unicode = 006F;
},
{
glyphname = p;
layers = (
{
layerId = "4E2DFB36-A0B4-46BB-956A-EE2289348F3B";
paths = (
{
closed = 1;
nodes = (
"1025 815 OFFCURVE",
"838 1074 OFFCURVE",
"589 1074 CURVE SMOOTH",
"479 1074 OFFCURVE",
"409 1040 OFFCURVE",
"304 935 CURVE",
"304 1054 LINE",
"170 1054 LINE",
"170 -409 LINE",
"304 -409 LINE",
"304 117 LINE",
"402 19 OFFCURVE",
"483 -20 OFFCURVE",
"589 -20 CURVE SMOOTH",
"840 -20 OFFCURVE",
"1025 227 OFFCURVE",
"1025 521 CURVE SMOOTH"
);
},
{
closed = 1;
nodes = (
"889 306 OFFCURVE",
"759 116 OFFCURVE",
"589 116 CURVE SMOOTH",
"420 116 OFFCURVE",
"305 302 OFFCURVE",
"305 521 CURVE SMOOTH",
"305 738 OFFCURVE",
"429 940 OFFCURVE",
"589 940 CURVE SMOOTH",
"756 940 OFFCURVE",
"889 749 OFFCURVE",
"889 521 CURVE SMOOTH"
);
}
);
vertWidth = 0;
width = 1139;
}
);
note = "";
unicode = 0070;
},
{
glyphname = q;
layers = (
{
layerId = "4E2DFB36-A0B4-46BB-956A-EE2289348F3B";
paths = (
{
closed = 1;
nodes = (
"825 1054 LINE",
"825 929 LINE",
"757 1021 OFFCURVE",
"654 1074 OFFCURVE",
"541 1074 CURVE SMOOTH",
"297 1074 OFFCURVE",
"105 814 OFFCURVE",
"105 520 CURVE SMOOTH",
"105 231 OFFCURVE",
"290 -20 OFFCURVE",
"541 -20 CURVE SMOOTH",
"650 -20 OFFCURVE",
"744 27 OFFCURVE",
"825 108 CURVE",
"825 -410 LINE",
"961 -410 LINE",
"961 1054 LINE"
);
},
{
closed = 1;
nodes = (
"825 303 OFFCURVE",
"708 116 OFFCURVE",
"541 116 CURVE SMOOTH",
"383 116 OFFCURVE",
"241 303 OFFCURVE",
"241 520 CURVE SMOOTH",
"241 733 OFFCURVE",
"372 940 OFFCURVE",
"541 940 CURVE SMOOTH",
"711 940 OFFCURVE",
"825 755 OFFCURVE",
"825 520 CURVE SMOOTH"
);
}
);
vertWidth = 0;
width = 1139;
}
);
note = "";
unicode = 0071;
},
{
glyphname = r;
layers = (
{
layerId = "4E2DFB36-A0B4-46BB-956A-EE2289348F3B";
paths = (
{
closed = 1;
nodes = (
"699 1006 OFFCURVE",
"607 1074 OFFCURVE",
"509 1074 CURVE SMOOTH",
"407 1074 OFFCURVE",
"360 1042 OFFCURVE",
"288 935 CURVE",
"288 1054 LINE",
"154 1054 LINE",
"154 0 LINE",
"282 0 LINE",
"282 591 LINE SMOOTH",
"282 710 OFFCURVE",
"369 948 OFFCURVE",
"501 948 CURVE SMOOTH",
"546 948 OFFCURVE",
"605 927 OFFCURVE",
"641 900 CURVE",
"657 900 OFFCURVE",
"713 977 OFFCURVE",
"721 995 CURVE"
);
}
);
vertWidth = 0;
width = 682;
}
);
note = "";
unicode = 0072;
},
{
glyphname = s;
layers = (
{
layerId = "4E2DFB36-A0B4-46BB-956A-EE2289348F3B";
paths = (
{
closed = 1;
nodes = (
"921 418 OFFCURVE",
"877 499 OFFCURVE",
"585 579 CURVE SMOOTH",
"306 656 OFFCURVE",
"257 692 OFFCURVE",
"257 808 CURVE SMOOTH",
"257 892 OFFCURVE",
"371 948 OFFCURVE",
"501 948 CURVE SMOOTH",
"617 948 OFFCURVE",
"729 881 OFFCURVE",
"745 779 CURVE",
"873 803 LINE",
"873 929 OFFCURVE",
"693 1074 OFFCURVE",
"509 1074 CURVE SMOOTH",
"296 1074 OFFCURVE",
"129 944 OFFCURVE",
"129 808 CURVE SMOOTH",
"129 689 OFFCURVE",
"186 601 OFFCURVE",
"301 544 CURVE SMOOTH",
"314 537 OFFCURVE",
"417 505 OFFCURVE",
"621 444 CURVE SMOOTH",
"736 409 OFFCURVE",
"793 360 OFFCURVE",
"793 296 CURVE SMOOTH",
"793 200 OFFCURVE",
"646 108 OFFCURVE",
"513 108 CURVE SMOOTH",
"357 108 OFFCURVE",
"289 152 OFFCURVE",
"220 316 CURVE",
"98 284 LINE",
"166 77 OFFCURVE",
"297 -20 OFFCURVE",
"513 -20 CURVE SMOOTH",
"736 -20 OFFCURVE",
"921 133 OFFCURVE",
"921 292 CURVE SMOOTH"
);
}
);
vertWidth = 0;
width = 1024;
}
);
note = "";
unicode = 0073;
},
{
glyphname = t;
layers = (
{
layerId = "4E2DFB36-A0B4-46BB-956A-EE2289348F3B";
paths = (
{
closed = 1;
nodes = (
"564 36 OFFCURVE",
"551 79 OFFCURVE",
"538 132 CURVE",
"495 117 OFFCURVE",
"467 111 OFFCURVE",
"430 111 CURVE SMOOTH",
"366 111 OFFCURVE",
"330 140 OFFCURVE",
"330 204 CURVE SMOOTH",
"330 927 LINE",
"530 927 LINE",
"530 1054 LINE",
"330 1054 LINE",
"330 1330 LINE",
"202 1330 LINE",
"202 1054 LINE",
"58 1054 LINE",
"58 927 LINE",
"202 927 LINE",
"202 188 LINE SMOOTH",
"202 49 OFFCURVE",
"274 -20 OFFCURVE",
"417 -20 CURVE SMOOTH",
"468 -20 OFFCURVE",
"524 -7 OFFCURVE",
"577 4 CURVE"
);
}
);
vertWidth = 0;
width = 569;
}
);
note = "";
unicode = 0074;
},
{
glyphname = u;
layers = (
{
layerId = "4E2DFB36-A0B4-46BB-956A-EE2289348F3B";
paths = (
{
closed = 1;
nodes = (
"841 1054 LINE",
"841 388 LINE",
"793 249 OFFCURVE",
"654 107 OFFCURVE",
"529 107 CURVE SMOOTH",
"407 107 OFFCURVE",
"282 220 OFFCURVE",
"282 348 CURVE SMOOTH",
"282 1054 LINE",
"154 1054 LINE",
"154 332 LINE SMOOTH",
"154 161 OFFCURVE",
"328 -20 OFFCURVE",
"517 -20 CURVE SMOOTH",
"630 -20 OFFCURVE",
"729 28 OFFCURVE",
"833 132 CURVE",
"839 113 OFFCURVE",
"842 92 OFFCURVE",
"842 71 CURVE SMOOTH",
"842 47 OFFCURVE",
"839 25 OFFCURVE",
"833 4 CURVE",
"969 4 LINE",
"969 1054 LINE"
);
}
);
vertWidth = 0;
width = 1139;
}
);
note = "";
unicode = 0075;
},
{
glyphname = v;
layers = (
{
layerId = "4E2DFB36-A0B4-46BB-956A-EE2289348F3B";
paths = (
{
closed = 1;
nodes = (
"514 232 LINE",
"210 1054 LINE",
"74 1054 LINE",
"457 0 LINE",
"584 0 LINE",
"953 1054 LINE",
"817 1054 LINE"
);
}
);
vertWidth = 0;
width = 1024;
}
);
note = "";
unicode = 0076;
},
{
glyphname = w;
layers = (
{
layerId = "4E2DFB36-A0B4-46BB-956A-EE2289348F3B";
paths = (
{
closed = 1;
nodes = (
"1033 192 LINE",
"809 1054 LINE",
"663 1054 LINE",
"426 208 LINE",
"186 1054 LINE",
"42 1054 LINE",
"346 0 LINE",
"506 0 LINE",
"729 815 LINE",
"953 0 LINE",
"1112 0 LINE",
"1424 1054 LINE",
"1296 1054 LINE"
);
}
);
vertWidth = 0;
width = 1479;
}
);
note = "";
unicode = 0077;
},
{
glyphname = x;
layers = (
{
layerId = "4E2DFB36-A0B4-46BB-956A-EE2289348F3B";
paths = (
{
closed = 1;
nodes = (
"945 1054 LINE",
"777 1054 LINE",
"506 663 LINE",
"258 1054 LINE",
"82 1054 LINE",
"434 543 LINE",
"58 0 LINE",
"218 0 LINE",
"522 440 LINE",
"801 0 LINE",
"977 0 LINE",
"601 560 LINE"
);
}
);
vertWidth = 0;
width = 1024;
}
);
note = "";
unicode = 0078;
},
{
glyphname = y;
layers = (
{
layerId = "4E2DFB36-A0B4-46BB-956A-EE2289348F3B";
paths = (
{
closed = 1;
nodes = (
"522 236 LINE",
"218 1054 LINE",
"82 1054 LINE",
"449 44 LINE",
"417 -55 OFFCURVE",
"352 -285 OFFCURVE",
"261 -285 CURVE SMOOTH",
"198 -285 OFFCURVE",
"172 -266 OFFCURVE",
"129 -234 CURVE",
"33 -318 LINE",
"43 -362 OFFCURVE",
"161 -410 OFFCURVE",
"241 -410 CURVE SMOOTH",
"431 -410 OFFCURVE",
"487 -218 OFFCURVE",
"583 38 CURVE SMOOTH",
"961 1054 LINE",
"817 1054 LINE"
);
}
);
vertWidth = 0;
width = 1024;
}
);
note = "";
unicode = 0079;
},
{
glyphname = z;
layers = (
{
layerId = "4E2DFB36-A0B4-46BB-956A-EE2289348F3B";
paths = (
{
closed = 1;
nodes = (
"250 128 LINE",
"929 947 LINE",
"929 1053 LINE",
"106 1053 LINE",
"106 934 LINE",
"745 934 LINE",
"66 136 LINE",
"66 0 LINE",
"961 0 LINE",
"961 128 LINE"
);
}
);
vertWidth = 0;
width = 1024;
}
);
note = "";
unicode = 007A;
},
{
glyphname = braceleft;
layers = (
{
layerId = "4E2DFB36-A0B4-46BB-956A-EE2289348F3B";
paths = (
{
closed = 1;
nodes = (
"485 -279 OFFCURVE",
"427 -240 OFFCURVE",
"427 -147 CURVE SMOOTH",
"427 183 LINE SMOOTH",
"427 365 OFFCURVE",
"349 437 OFFCURVE",
"213 541 CURVE",
"372 634 OFFCURVE",
"427 721 OFFCURVE",
"427 878 CURVE SMOOTH",
"427 1184 LINE SMOOTH",
"427 1300 OFFCURVE",
"482 1340 OFFCURVE",
"633 1340 CURVE",
"633 1465 LINE",
"495 1465 LINE",
"336 1412 OFFCURVE",
"281 1331 OFFCURVE",
"281 1160 CURVE SMOOTH",
"281 829 LINE SMOOTH",
"281 714 OFFCURVE",
"191 602 OFFCURVE",
"74 602 CURVE",
"74 467 LINE",
"200 451 OFFCURVE",
"281 363 OFFCURVE",
"281 240 CURVE SMOOTH",
"281 -74 LINE SMOOTH",
"281 -274 OFFCURVE",
"341 -356 OFFCURVE",
"506 -404 CURVE",
"633 -404 LINE",
"633 -279 LINE"
);
}
);
vertWidth = 0;
width = 684;
}
);
note = "";
unicode = 007B;
},
{
glyphname = bar;
layers = (
{
layerId = "4E2DFB36-A0B4-46BB-956A-EE2289348F3B";
paths = (
{
closed = 1;
nodes = (
"202 1465 LINE",
"202 -404 LINE",
"346 -404 LINE",
"346 1465 LINE"
);
}
);
vertWidth = 0;
width = 532;
}
);
note = "";
unicode = 007C;
},
{
glyphname = braceright;
layers = (
{
layerId = "4E2DFB36-A0B4-46BB-956A-EE2289348F3B";
paths = (
{
closed = 1;
nodes = (
"508 618 OFFCURVE",
"419 702 OFFCURVE",
"419 805 CURVE SMOOTH",
"419 1063 LINE SMOOTH",
"419 1330 OFFCURVE",
"369 1406 OFFCURVE",
"197 1465 CURVE",
"66 1465 LINE",
"66 1340 LINE",
"226 1340 OFFCURVE",
"273 1298 OFFCURVE",
"273 1184 CURVE SMOOTH",
"273 878 LINE SMOOTH",
"273 689 OFFCURVE",
"349 627 OFFCURVE",
"480 528 CURVE",
"303 423 OFFCURVE",
"273 345 OFFCURVE",
"273 127 CURVE SMOOTH",
"273 -115 LINE SMOOTH",
"273 -239 OFFCURVE",
"218 -279 OFFCURVE",
"66 -279 CURVE",
"66 -404 LINE",
"197 -404 LINE",
"366 -348 OFFCURVE",
"419 -272 OFFCURVE",
"419 -107 CURVE SMOOTH",
"419 232 LINE SMOOTH",
"419 368 OFFCURVE",
"497 467 OFFCURVE",
"625 467 CURVE",
"625 602 LINE"
);
}
);
vertWidth = 0;
width = 684;
}
);
note = "";
unicode = 007D;
},
{
glyphname = asciitilde;
layers = (
{
layerId = "4E2DFB36-A0B4-46BB-956A-EE2289348F3B";
paths = (
{
closed = 1;
nodes = (
"1024 780 OFFCURVE",
"917 721 OFFCURVE",
"846 721 CURVE SMOOTH",
"722 721 OFFCURVE",
"497 875 OFFCURVE",
"360 875 CURVE SMOOTH",
"211 875 OFFCURVE",
"98 792 OFFCURVE",
"98 748 CURVE SMOOTH",
"98 577 LINE",
"193 675 OFFCURVE",
"257 709 OFFCURVE",
"340 709 CURVE SMOOTH",
"508 709 OFFCURVE",
"644 555 OFFCURVE",
"818 555 CURVE SMOOTH",
"948 555 OFFCURVE",
"998 577 OFFCURVE",
"1088 667 CURVE",
"1088 855 LINE"
);
}
);
vertWidth = 0;
width = 1196;
}
);
note = "";
unicode = 007E;
},
{
glyphname = Euro;
layers = (
{
layerId = "4E2DFB36-A0B4-46BB-956A-EE2289348F3B";
paths = (
{
closed = 1;
nodes = (
"1057 1466 OFFCURVE",
"949 1491 OFFCURVE",
"837 1491 CURVE SMOOTH",
"522 1491 OFFCURVE",
"203 1279 OFFCURVE",
"166 935 CURVE",
"50 935 LINE",
"50 799 LINE",
"155 799 LINE",
"155 669 LINE",
"50 669 LINE",
"50 536 LINE",
"175 536 LINE",
"202 188 OFFCURVE",
"504 -26 OFFCURVE",
"827 -26 CURVE SMOOTH",
"924 -26 OFFCURVE",
"1022 -7 OFFCURVE",
"1117 33 CURVE",
"1117 239 LINE",
"1037 171 OFFCURVE",
"937 141 OFFCURVE",
"833 141 CURVE SMOOTH",
"613 141 OFFCURVE",
"390 284 OFFCURVE",
"374 535 CURVE",
"939 535 LINE",
"957 669 LINE",
"353 669 LINE",
"353 672 OFFCURVE",
"352 696 OFFCURVE",
"352 724 CURVE SMOOTH",
"352 766 LINE SMOOTH",
"352 781 OFFCURVE",
"352 792 OFFCURVE",
"353 801 CURVE",
"974 801 LINE",
"991 935 LINE",
"369 935 LINE",
"393 1171 OFFCURVE",
"615 1326 OFFCURVE",
"834 1326 CURVE SMOOTH",
"934 1326 OFFCURVE",
"1034 1295 OFFCURVE",
"1117 1224 CURVE",
"1157 1410 LINE"
);
}
);
vertWidth = 0;
width = 1207;
}
);
note = "";
unicode = 20AC;
},
{
glyphname = alt;
layers = (
{
layerId = "4E2DFB36-A0B4-46BB-956A-EE2289348F3B";
paths = (
{
closed = 1;
nodes = (
"523 1060 OFFCURVE",
"534 1082 OFFCURVE",
"545 1114 CURVE",
"560 1086 OFFCURVE",
"566 1058 OFFCURVE",
"573 1033 CURVE",
"696 698 LINE",
"392 698 LINE",
"514 1033 LINE"
);
},
{
closed = 1;
nodes = (
"1213 1323 OFFCURVE",
"1204 1332 OFFCURVE",
"1193 1332 CURVE SMOOTH",
"1100 1332 LINE SMOOTH",
"1089 1332 OFFCURVE",
"1080 1323 OFFCURVE",
"1080 1312 CURVE SMOOTH",
"1080 258 LINE SMOOTH",
"1080 247 OFFCURVE",
"1089 238 OFFCURVE",
"1100 238 CURVE SMOOTH",
"1193 238 LINE SMOOTH",
"1204 238 OFFCURVE",
"1213 247 OFFCURVE",
"1213 258 CURVE SMOOTH",
"1213 1312 LINE"
);
},
{
closed = 1;
nodes = (
"1716 308 OFFCURVE",
"1707 338 OFFCURVE",
"1698 373 CURVE SMOOTH",
"1696 383 OFFCURVE",
"1690 388 OFFCURVE",
"1679 388 CURVE SMOOTH",
"1676 388 OFFCURVE",
"1674 388 OFFCURVE",
"1673 387 CURVE",
"1644 379 OFFCURVE",
"1625 374 OFFCURVE",
"1600 374 CURVE SMOOTH",
"1567 374 OFFCURVE",
"1547 389 OFFCURVE",
"1547 420 CURVE SMOOTH",
"1547 927 LINE",
"1673 927 LINE SMOOTH",
"1684 927 OFFCURVE",
"1693 936 OFFCURVE",
"1693 947 CURVE SMOOTH",
"1693 1039 LINE SMOOTH",
"1693 1050 OFFCURVE",
"1684 1059 OFFCURVE",
"1673 1059 CURVE SMOOTH",
"1547 1059 LINE",
"1547 1239 LINE SMOOTH",
"1547 1250 OFFCURVE",
"1538 1259 OFFCURVE",
"1527 1259 CURVE SMOOTH",
"1434 1259 LINE SMOOTH",
"1423 1259 OFFCURVE",
"1414 1250 OFFCURVE",
"1414 1239 CURVE SMOOTH",
"1414 1059 LINE",
"1330 1059 LINE SMOOTH",
"1319 1059 OFFCURVE",
"1310 1050 OFFCURVE",
"1310 1039 CURVE SMOOTH",
"1310 947 LINE SMOOTH",
"1310 936 OFFCURVE",
"1319 927 OFFCURVE",
"1330 927 CURVE SMOOTH",
"1414 927 LINE",
"1414 409 LINE SMOOTH",
"1414 295 OFFCURVE",
"1473 238 OFFCURVE",
"1591 238 CURVE SMOOTH",
"1623 238 OFFCURVE",
"1654 243 OFFCURVE",
"1685 250 CURVE SMOOTH",
"1711 255 LINE",
"1726 283 LINE"
);
},
{
closed = 1;
nodes = (
"210 238 OFFCURVE",
"219 244 OFFCURVE",
"222 251 CURVE SMOOTH",
"340 563 LINE",
"748 563 LINE",
"866 251 LINE SMOOTH",
"869 244 OFFCURVE",
"878 238 OFFCURVE",
"885 238 CURVE SMOOTH",
"1019 238 LINE SMOOTH",
"1032 238 OFFCURVE",
"1039 244 OFFCURVE",
"1039 257 CURVE SMOOTH",
"1039 260 OFFCURVE",
"1038 263 OFFCURVE",
"1037 264 CURVE SMOOTH",
"639 1319 LINE SMOOTH",
"636 1326 OFFCURVE",
"627 1332 OFFCURVE",
"620 1332 CURVE SMOOTH",
"468 1332 LINE SMOOTH",
"461 1332 OFFCURVE",
"452 1326 OFFCURVE",
"449 1319 CURVE SMOOTH",
"51 265 LINE SMOOTH",
"50 263 OFFCURVE",
"50 260 OFFCURVE",
"50 257 CURVE SMOOTH",
"50 244 OFFCURVE",
"57 238 OFFCURVE",
"70 238 CURVE SMOOTH",
"203 238 LINE"
);
}
);
vertWidth = 0;
width = 1776;
}
);
note = "";
unicode = E000;
},
{
glyphname = ctrl;
layers = (
{
layerId = "4E2DFB36-A0B4-46BB-956A-EE2289348F3B";
paths = (
{
closed = 1;
nodes = (
"2239 1320 OFFCURVE",
"2230 1329 OFFCURVE",
"2219 1329 CURVE SMOOTH",
"2126 1329 LINE SMOOTH",
"2115 1329 OFFCURVE",
"2106 1320 OFFCURVE",
"2106 1309 CURVE SMOOTH",
"2106 257 LINE SMOOTH",
"2106 246 OFFCURVE",
"2115 237 OFFCURVE",
"2126 237 CURVE SMOOTH",
"2219 237 LINE SMOOTH",
"2230 237 OFFCURVE",
"2239 246 OFFCURVE",
"2239 257 CURVE SMOOTH",
"2239 1309 LINE"
);
},
{
closed = 1;
nodes = (
"1985 1009 OFFCURVE",
"1928 1056 OFFCURVE",
"1853 1056 CURVE SMOOTH",
"1796 1056 OFFCURVE",
"1750 1035 OFFCURVE",
"1713 996 CURVE",
"1713 1021 LINE SMOOTH",
"1713 1032 OFFCURVE",
"1704 1041 OFFCURVE",
"1693 1041 CURVE SMOOTH",
"1595 1041 LINE SMOOTH",
"1584 1041 OFFCURVE",
"1575 1032 OFFCURVE",
"1575 1021 CURVE SMOOTH",
"1575 257 LINE SMOOTH",
"1575 246 OFFCURVE",
"1584 237 OFFCURVE",
"1595 237 CURVE SMOOTH",
"1688 237 LINE SMOOTH",
"1699 237 OFFCURVE",
"1708 246 OFFCURVE",
"1708 257 CURVE SMOOTH",
"1708 686 LINE SMOOTH",
"1708 766 OFFCURVE",
"1764 925 OFFCURVE",
"1848 925 CURVE SMOOTH",
"1876 925 OFFCURVE",
"1915 910 OFFCURVE",
"1942 890 CURVE",
"1960 890 OFFCURVE",
"2020 955 OFFCURVE",
"2026 972 CURVE",
"2014 998 LINE"
);
},
{
closed = 1;
nodes = (
"1466 303 OFFCURVE",
"1458 332 OFFCURVE",
"1449 371 CURVE SMOOTH",
"1446 382 OFFCURVE",
"1438 387 OFFCURVE",
"1429 387 CURVE SMOOTH",
"1426 387 OFFCURVE",
"1423 387 OFFCURVE",
"1422 386 CURVE SMOOTH",
"1393 375 OFFCURVE",
"1374 372 OFFCURVE",
"1350 372 CURVE SMOOTH",
"1315 372 OFFCURVE",
"1297 388 OFFCURVE",
"1297 419 CURVE SMOOTH",
"1297 924 LINE",
"1422 924 LINE SMOOTH",
"1433 924 OFFCURVE",
"1442 933 OFFCURVE",
"1442 944 CURVE SMOOTH",
"1442 1036 LINE SMOOTH",
"1442 1047 OFFCURVE",
"1433 1056 OFFCURVE",
"1422 1056 CURVE SMOOTH",
"1297 1056 LINE",
"1297 1237 LINE SMOOTH",
"1297 1248 OFFCURVE",
"1288 1257 OFFCURVE",
"1277 1257 CURVE SMOOTH",
"1184 1257 LINE SMOOTH",
"1173 1257 OFFCURVE",
"1164 1248 OFFCURVE",
"1164 1237 CURVE SMOOTH",
"1164 1056 LINE",
"1080 1056 LINE SMOOTH",
"1069 1056 OFFCURVE",
"1060 1047 OFFCURVE",
"1060 1036 CURVE SMOOTH",
"1060 944 LINE SMOOTH",
"1060 933 OFFCURVE",
"1069 924 OFFCURVE",
"1080 924 CURVE SMOOTH",
"1164 924 LINE",
"1164 408 LINE SMOOTH",
"1164 294 OFFCURVE",
"1223 237 OFFCURVE",
"1340 237 CURVE SMOOTH",
"1373 237 OFFCURVE",
"1402 242 OFFCURVE",
"1433 249 CURVE SMOOTH",
"1460 254 LINE",
"1475 282 LINE"
);
},
{
closed = 1;
nodes = (
"973 1003 OFFCURVE",
"978 1009 OFFCURVE",
"978 1020 CURVE SMOOTH",
"978 1023 OFFCURVE",
"978 1025 OFFCURVE",
"977 1026 CURVE",
"918 1236 OFFCURVE",
"781 1341 OFFCURVE",
"567 1341 CURVE SMOOTH",
"555 1341 LINE SMOOTH",
"222 1336 OFFCURVE",
"54 1152 OFFCURVE",
"50 791 CURVE SMOOTH",
"50 778 LINE SMOOTH",
"50 413 OFFCURVE",
"216 230 OFFCURVE",
"548 229 CURVE SMOOTH",
"551 229 LINE SMOOTH",
"791 229 OFFCURVE",
"931 345 OFFCURVE",
"978 577 CURVE",
"978 581 LINE SMOOTH",
"978 592 OFFCURVE",
"973 599 OFFCURVE",
"962 601 CURVE SMOOTH",
"845 624 LINE",
"834 624 OFFCURVE",
"827 619 OFFCURVE",
"824 608 CURVE",
"789 443 OFFCURVE",
"692 362 OFFCURVE",
"539 359 CURVE",
"328 374 OFFCURVE",
"212 521 OFFCURVE",
"212 772 CURVE SMOOTH",
"212 782 LINE SMOOTH",
"215 1036 OFFCURVE",
"340 1184 OFFCURVE",
"548 1197 CURVE",
"689 1194 OFFCURVE",
"784 1128 OFFCURVE",
"823 992 CURVE SMOOTH",
"826 982 OFFCURVE",
"833 977 OFFCURVE",
"843 977 CURVE SMOOTH",
"846 977 LINE",
"962 1001 LINE"
);
}
);
vertWidth = 0;
width = 2289;
}
);
note = "";
unicode = E001;
},
{
glyphname = altctrl;
layers = (
{
layerId = "4E2DFB36-A0B4-46BB-956A-EE2289348F3B";
paths = (
{
closed = 1;
nodes = (
"739 1667 OFFCURVE",
"748 1688 OFFCURVE",
"759 1719 CURVE",
"790 1640 LINE",
"912 1306 LINE",
"608 1306 LINE",
"730 1640 LINE"
);
},
{
closed = 1;
nodes = (
"1458 1930 OFFCURVE",
"1449 1939 OFFCURVE",
"1438 1939 CURVE SMOOTH",
"1345 1939 LINE SMOOTH",
"1334 1939 OFFCURVE",
"1325 1930 OFFCURVE",
"1325 1919 CURVE SMOOTH",
"1325 867 LINE SMOOTH",
"1325 856 OFFCURVE",
"1334 847 OFFCURVE",
"1345 847 CURVE SMOOTH",
"1438 847 LINE SMOOTH",
"1449 847 OFFCURVE",
"1458 856 OFFCURVE",
"1458 867 CURVE SMOOTH",
"1458 1919 LINE"
);
},
{
closed = 1;
nodes = (
"2235 722 OFFCURVE",
"2226 731 OFFCURVE",
"2215 731 CURVE SMOOTH",
"2122 731 LINE SMOOTH",
"2111 731 OFFCURVE",
"2102 722 OFFCURVE",
"2102 711 CURVE SMOOTH",
"2102 -342 LINE SMOOTH",
"2102 -353 OFFCURVE",
"2111 -362 OFFCURVE",
"2122 -362 CURVE SMOOTH",
"2215 -362 LINE SMOOTH",
"2226 -362 OFFCURVE",
"2235 -353 OFFCURVE",
"2235 -342 CURVE SMOOTH",
"2235 711 LINE"
);
},
{
closed = 1;
nodes = (
"2010 401 OFFCURVE",
"2003 404 OFFCURVE",
"1996 408 CURVE SMOOTH",
"1987 413 LINE SMOOTH",
"1955 430 OFFCURVE",
"1906 457 OFFCURVE",
"1851 457 CURVE SMOOTH",
"1788 457 OFFCURVE",
"1749 442 OFFCURVE",
"1710 398 CURVE",
"1710 423 LINE SMOOTH",
"1710 434 OFFCURVE",
"1701 443 OFFCURVE",
"1690 443 CURVE SMOOTH",
"1593 443 LINE SMOOTH",
"1582 443 OFFCURVE",
"1573 434 OFFCURVE",
"1573 423 CURVE SMOOTH",
"1573 -342 LINE SMOOTH",
"1573 -353 OFFCURVE",
"1582 -362 OFFCURVE",
"1593 -362 CURVE SMOOTH",
"1686 -362 LINE SMOOTH",
"1697 -362 OFFCURVE",
"1706 -353 OFFCURVE",
"1706 -342 CURVE SMOOTH",
"1706 87 LINE SMOOTH",
"1706 167 OFFCURVE",
"1761 325 OFFCURVE",
"1845 325 CURVE SMOOTH",
"1874 325 OFFCURVE",
"1914 311 OFFCURVE",
"1941 292 CURVE",
"1957 292 OFFCURVE",
"2018 357 OFFCURVE",
"2024 374 CURVE",
"2010 400 LINE"
);
},
{
closed = 1;
nodes = (
"1473 -306 OFFCURVE",
"1464 -276 OFFCURVE",
"1455 -241 CURVE SMOOTH",
"1453 -231 OFFCURVE",
"1447 -226 OFFCURVE",
"1436 -226 CURVE SMOOTH",
"1433 -226 OFFCURVE",
"1431 -226 OFFCURVE",
"1430 -227 CURVE",
"1422 -229 LINE SMOOTH",
"1398 -236 OFFCURVE",
"1380 -241 OFFCURVE",
"1359 -241 CURVE SMOOTH",
"1324 -241 OFFCURVE",
"1306 -225 OFFCURVE",
"1306 -194 CURVE SMOOTH",
"1306 311 LINE",
"1431 311 LINE SMOOTH",
"1442 311 OFFCURVE",
"1451 320 OFFCURVE",
"1451 331 CURVE SMOOTH",
"1451 423 LINE SMOOTH",
"1451 434 OFFCURVE",
"1442 443 OFFCURVE",
"1431 443 CURVE SMOOTH",
"1306 443 LINE",
"1306 624 LINE SMOOTH",
"1306 635 OFFCURVE",
"1297 644 OFFCURVE",
"1286 644 CURVE SMOOTH",
"1193 644 LINE SMOOTH",
"1182 644 OFFCURVE",
"1173 635 OFFCURVE",
"1173 624 CURVE SMOOTH",
"1173 443 LINE",
"1089 443 LINE SMOOTH",
"1078 443 OFFCURVE",
"1069 434 OFFCURVE",
"1069 423 CURVE SMOOTH",
"1069 331 LINE SMOOTH",
"1069 320 OFFCURVE",
"1078 311 OFFCURVE",
"1089 311 CURVE SMOOTH",
"1173 311 LINE",
"1173 -205 LINE SMOOTH",
"1173 -319 OFFCURVE",
"1232 -376 OFFCURVE",
"1349 -376 CURVE SMOOTH",
"1382 -376 OFFCURVE",
"1411 -371 OFFCURVE",
"1442 -364 CURVE SMOOTH",
"1469 -359 LINE",
"1484 -332 LINE"
);
},
{
closed = 1;
nodes = (
"1996 917 OFFCURVE",
"1987 947 OFFCURVE",
"1978 982 CURVE SMOOTH",
"1976 992 OFFCURVE",
"1970 997 OFFCURVE",
"1959 997 CURVE SMOOTH",
"1956 997 OFFCURVE",
"1953 997 OFFCURVE",
"1952 996 CURVE SMOOTH",
"1923 985 OFFCURVE",
"1905 982 OFFCURVE",
"1880 982 CURVE SMOOTH",
"1845 982 OFFCURVE",
"1828 998 OFFCURVE",
"1828 1029 CURVE SMOOTH",
"1828 1534 LINE",
"1953 1534 LINE SMOOTH",
"1964 1534 OFFCURVE",
"1973 1543 OFFCURVE",
"1973 1554 CURVE SMOOTH",
"1973 1646 LINE SMOOTH",
"1973 1657 OFFCURVE",
"1964 1666 OFFCURVE",
"1953 1666 CURVE SMOOTH",
"1828 1666 LINE",
"1828 1847 LINE SMOOTH",
"1828 1858 OFFCURVE",
"1819 1867 OFFCURVE",
"1808 1867 CURVE SMOOTH",
"1715 1867 LINE SMOOTH",
"1704 1867 OFFCURVE",
"1695 1858 OFFCURVE",
"1695 1847 CURVE SMOOTH",
"1695 1666 LINE",
"1611 1666 LINE SMOOTH",
"1600 1666 OFFCURVE",
"1591 1657 OFFCURVE",
"1591 1646 CURVE SMOOTH",
"1591 1554 LINE SMOOTH",
"1591 1543 OFFCURVE",
"1600 1534 OFFCURVE",
"1611 1534 CURVE SMOOTH",
"1695 1534 LINE",
"1695 1018 LINE SMOOTH",
"1695 904 OFFCURVE",
"1754 847 OFFCURVE",
"1871 847 CURVE SMOOTH",
"1904 847 OFFCURVE",
"1933 852 OFFCURVE",
"1964 859 CURVE SMOOTH",
"1991 864 LINE",
"2006 892 LINE"
);
},
{
closed = 1;
nodes = (
"973 406 OFFCURVE",
"978 412 OFFCURVE",
"978 423 CURVE",
"977 428 LINE SMOOTH",
"919 637 OFFCURVE",
"783 742 OFFCURVE",
"568 742 CURVE SMOOTH",
"556 742 LINE SMOOTH",
"225 737 OFFCURVE",
"54 553 OFFCURVE",
"50 193 CURVE SMOOTH",
"50 180 LINE SMOOTH",
"50 -185 OFFCURVE",
"216 -366 OFFCURVE",
"547 -369 CURVE SMOOTH",
"553 -369 LINE SMOOTH",
"793 -369 OFFCURVE",
"933 -251 OFFCURVE",
"978 -22 CURVE",
"978 -18 LINE SMOOTH",
"978 -7 OFFCURVE",
"973 0 OFFCURVE",
"962 2 CURVE SMOOTH",
"844 25 LINE",
"833 25 OFFCURVE",
"826 20 OFFCURVE",
"824 9 CURVE SMOOTH",
"789 -156 OFFCURVE",
"693 -237 OFFCURVE",
"540 -240 CURVE",
"328 -225 OFFCURVE",
"212 -78 OFFCURVE",
"212 173 CURVE SMOOTH",
"212 183 LINE SMOOTH",
"215 437 OFFCURVE",
"340 586 OFFCURVE",
"547 599 CURVE",
"690 596 OFFCURVE",
"785 530 OFFCURVE",
"824 394 CURVE SMOOTH",
"827 384 OFFCURVE",
"834 379 OFFCURVE",
"844 379 CURVE SMOOTH",
"847 379 LINE",
"962 403 LINE"
);
},
{
closed = 1;
nodes = (
"426 847 OFFCURVE",
"435 853 OFFCURVE",
"438 860 CURVE SMOOTH",
"557 1171 LINE",
"964 1171 LINE",
"1081 860 LINE SMOOTH",
"1084 853 OFFCURVE",
"1093 847 OFFCURVE",
"1100 847 CURVE SMOOTH",
"1233 847 LINE SMOOTH",
"1246 847 OFFCURVE",
"1253 853 OFFCURVE",
"1253 866 CURVE SMOOTH",
"1253 869 OFFCURVE",
"1253 872 OFFCURVE",
"1252 874 CURVE SMOOTH",
"856 1926 LINE SMOOTH",
"853 1933 OFFCURVE",
"844 1939 OFFCURVE",
"837 1939 CURVE SMOOTH",
"684 1939 LINE SMOOTH",
"677 1939 OFFCURVE",
"668 1933 OFFCURVE",
"665 1926 CURVE SMOOTH",
"588 1719 OFFCURVE",
"505 1500 OFFCURVE",
"426 1293 CURVE SMOOTH",
"267 874 LINE SMOOTH",
"266 872 OFFCURVE",
"266 869 OFFCURVE",
"266 866 CURVE SMOOTH",
"266 853 OFFCURVE",
"273 847 OFFCURVE",
"286 847 CURVE SMOOTH",
"419 847 LINE"
);
}
);
vertWidth = 0;
width = 2285;
}
);
note = "";
unicode = E002;
},
{
glyphname = uppercase;
layers = (
{
layerId = "4E2DFB36-A0B4-46BB-956A-EE2289348F3B";
paths = (
{
closed = 1;
nodes = (
"525 1060 OFFCURVE",
"535 1082 OFFCURVE",
"544 1111 CURVE",
"550 1094 LINE SMOOTH",
"558 1071 OFFCURVE",
"565 1054 OFFCURVE",
"573 1033 CURVE SMOOTH",
"696 699 LINE",
"392 699 LINE",
"514 1033 LINE"
);
},
{
closed = 1;
nodes = (
"1763 934 OFFCURVE",
"1699 882 OFFCURVE",
"1591 882 CURVE SMOOTH",
"1315 882 LINE",
"1315 1183 LINE",
"1598 1183 LINE SMOOTH",
"1694 1183 OFFCURVE",
"1763 1125 OFFCURVE",
"1763 1029 CURVE SMOOTH"
);
},
{
closed = 1;
nodes = (
"1798 459 OFFCURVE",
"1718 388 OFFCURVE",
"1621 388 CURVE SMOOTH",
"1315 388 LINE",
"1315 727 LINE",
"1609 727 LINE SMOOTH",
"1733 727 OFFCURVE",
"1798 669 OFFCURVE",
"1798 556 CURVE SMOOTH"
);
},
{
closed = 1;
nodes = (
"2997 1020 OFFCURVE",
"3002 1026 OFFCURVE",
"3002 1037 CURVE SMOOTH",
"3002 1040 OFFCURVE",
"3002 1042 OFFCURVE",
"3001 1043 CURVE",
"2942 1253 OFFCURVE",
"2805 1358 OFFCURVE",
"2591 1358 CURVE SMOOTH",
"2579 1358 LINE SMOOTH",
"2246 1353 OFFCURVE",
"2078 1169 OFFCURVE",
"2074 808 CURVE SMOOTH",
"2074 795 LINE SMOOTH",
"2074 430 OFFCURVE",
"2240 247 OFFCURVE",
"2572 246 CURVE SMOOTH",
"2575 246 LINE SMOOTH",
"2815 246 OFFCURVE",
"2955 362 OFFCURVE",
"3002 594 CURVE",
"3002 598 LINE SMOOTH",
"3002 609 OFFCURVE",
"2997 616 OFFCURVE",
"2986 618 CURVE SMOOTH",
"2869 641 LINE",
"2858 641 OFFCURVE",
"2851 636 OFFCURVE",
"2848 625 CURVE",
"2813 460 OFFCURVE",
"2716 379 OFFCURVE",
"2563 376 CURVE",
"2352 391 OFFCURVE",
"2236 538 OFFCURVE",
"2236 789 CURVE SMOOTH",
"2236 799 LINE SMOOTH",
"2239 1053 OFFCURVE",
"2364 1201 OFFCURVE",
"2572 1214 CURVE",
"2713 1211 OFFCURVE",
"2808 1145 OFFCURVE",
"2847 1009 CURVE SMOOTH",
"2850 999 OFFCURVE",
"2857 994 OFFCURVE",
"2867 994 CURVE SMOOTH",
"2870 994 LINE",
"2986 1018 LINE"
);
},
{
closed = 1;
nodes = (
"210 239 OFFCURVE",
"219 245 OFFCURVE",
"222 252 CURVE SMOOTH",
"339 563 LINE",
"747 563 LINE",
"864 252 LINE SMOOTH",
"867 245 OFFCURVE",
"876 239 OFFCURVE",
"883 239 CURVE SMOOTH",
"1018 239 LINE SMOOTH",
"1031 239 OFFCURVE",
"1038 245 OFFCURVE",
"1038 258 CURVE SMOOTH",
"1038 261 OFFCURVE",
"1037 264 OFFCURVE",
"1035 265 CURVE",
"639 1319 LINE SMOOTH",
"636 1326 OFFCURVE",
"627 1332 OFFCURVE",
"620 1332 CURVE SMOOTH",
"467 1332 LINE SMOOTH",
"460 1332 OFFCURVE",
"451 1326 OFFCURVE",
"448 1319 CURVE SMOOTH",
"51 266 LINE SMOOTH",
"50 264 OFFCURVE",
"50 261 OFFCURVE",
"50 258 CURVE SMOOTH",
"50 245 OFFCURVE",
"57 239 OFFCURVE",
"70 239 CURVE SMOOTH",
"203 239 LINE"
);
},
{
closed = 1;
nodes = (
"1969 685 OFFCURVE",
"1921 755 OFFCURVE",
"1785 819 CURVE",
"1877 874 OFFCURVE",
"1916 942 OFFCURVE",
"1916 1042 CURVE SMOOTH",
"1916 1207 OFFCURVE",
"1766 1332 OFFCURVE",
"1609 1332 CURVE SMOOTH",
"1168 1332 LINE SMOOTH",
"1157 1332 OFFCURVE",
"1148 1323 OFFCURVE",
"1148 1312 CURVE SMOOTH",
"1148 259 LINE SMOOTH",
"1148 248 OFFCURVE",
"1157 239 OFFCURVE",
"1168 239 CURVE SMOOTH",
"1627 239 LINE SMOOTH",
"1825 239 OFFCURVE",
"1969 361 OFFCURVE",
"1969 558 CURVE SMOOTH"
);
}
);
vertWidth = 0;
width = 3052;
}
);
note = "";
unicode = E010;
},
{
glyphname = lowercase;
layers = (
{
layerId = "4E2DFB36-A0B4-46BB-956A-EE2289348F3B";
paths = (
{
closed = 1;
nodes = (
"540 479 LINE SMOOTH",
"479 426 OFFCURVE",
"418 371 OFFCURVE",
"331 371 CURVE SMOOTH",
"236 371 OFFCURVE",
"188 396 OFFCURVE",
"188 446 CURVE SMOOTH",
"188 563 OFFCURVE",
"282 552 OFFCURVE",
"549 613 CURVE",
"549 486 LINE"
);
},
{
closed = 1;
nodes = (
"1414 498 OFFCURVE",
"1330 371 OFFCURVE",
"1216 371 CURVE SMOOTH",
"1107 371 OFFCURVE",
"1031 494 OFFCURVE",
"1031 643 CURVE SMOOTH",
"1031 788 OFFCURVE",
"1111 928 OFFCURVE",
"1216 928 CURVE SMOOTH",
"1327 928 OFFCURVE",
"1414 796 OFFCURVE",
"1414 643 CURVE SMOOTH"
);
},
{
closed = 1;
nodes = (
"2312 542 OFFCURVE",
"2257 561 OFFCURVE",
"2240 561 CURVE SMOOTH",
"2232 561 OFFCURVE",
"2224 555 OFFCURVE",
"2221 547 CURVE SMOOTH",
"2181 428 OFFCURVE",
"2115 364 OFFCURVE",
"2023 364 CURVE SMOOTH",
"1903 364 OFFCURVE",
"1813 491 OFFCURVE",
"1813 639 CURVE SMOOTH",
"1813 795 OFFCURVE",
"1900 933 OFFCURVE",
"2017 933 CURVE SMOOTH",
"2103 933 OFFCURVE",
"2156 877 OFFCURVE",
"2217 768 CURVE SMOOTH",
"2221 761 OFFCURVE",
"2227 758 OFFCURVE",
"2234 758 CURVE SMOOTH",
"2239 758 OFFCURVE",
"2244 760 OFFCURVE",
"2248 764 CURVE",
"2249 763 LINE",
"2267 763 OFFCURVE",
"2335 789 OFFCURVE",
"2335 816 CURVE SMOOTH",
"2335 818 OFFCURVE",
"2335 820 OFFCURVE",
"2334 821 CURVE SMOOTH",
"2275 971 OFFCURVE",
"2149 1065 OFFCURVE",
"2014 1065 CURVE SMOOTH",
"1821 1065 OFFCURVE",
"1681 867 OFFCURVE",
"1681 639 CURVE SMOOTH",
"1681 419 OFFCURVE",
"1825 231 OFFCURVE",
"2020 231 CURVE SMOOTH",
"2180 231 OFFCURVE",
"2294 329 OFFCURVE",
"2347 512 CURVE",
"2333 537 LINE"
);
},
{
closed = 1;
nodes = (
"710 338 OFFCURVE",
"699 402 OFFCURVE",
"688 503 CURVE",
"688 849 LINE SMOOTH",
"688 967 OFFCURVE",
"549 1065 OFFCURVE",
"403 1065 CURVE SMOOTH",
"255 1065 OFFCURVE",
"76 935 OFFCURVE",
"63 804 CURVE SMOOTH",
"63 802 LINE SMOOTH",
"63 791 OFFCURVE",
"70 783 OFFCURVE",
"81 782 CURVE SMOOTH",
"137 777 OFFCURVE",
"140 770 OFFCURVE",
"166 765 CURVE",
"170 765 LINE SMOOTH",
"179 765 OFFCURVE",
"186 770 OFFCURVE",
"189 779 CURVE SMOOTH",
"220 879 OFFCURVE",
"297 934 OFFCURVE",
"401 934 CURVE SMOOTH",
"474 934 OFFCURVE",
"523 900 OFFCURVE",
"555 835 CURVE",
"555 750 LINE",
"542 749 OFFCURVE",
"528 745 OFFCURVE",
"480 734 CURVE",
"480 735 LINE",
"468 731 OFFCURVE",
"258 689 OFFCURVE",
"252 689 CURVE",
"113 658 OFFCURVE",
"50 574 OFFCURVE",
"50 438 CURVE SMOOTH",
"50 295 OFFCURVE",
"135 231 OFFCURVE",
"331 231 CURVE SMOOTH",
"426 231 OFFCURVE",
"496 256 OFFCURVE",
"573 328 CURVE",
"575 316 OFFCURVE",
"596 231 OFFCURVE",
"621 231 CURVE SMOOTH",
"630 231 OFFCURVE",
"678 249 OFFCURVE",
"702 257 CURVE SMOOTH",
"715 261 LINE",
"727 287 LINE"
);
},
{
closed = 1;
nodes = (
"1553 872 OFFCURVE",
"1407 1065 OFFCURVE",
"1216 1065 CURVE SMOOTH",
"1144 1065 OFFCURVE",
"1090 1045 OFFCURVE",
"1029 993 CURVE",
"1029 1319 LINE SMOOTH",
"1029 1330 OFFCURVE",
"1020 1339 OFFCURVE",
"1009 1339 CURVE SMOOTH",
"913 1339 LINE SMOOTH",
"902 1339 OFFCURVE",
"893 1330 OFFCURVE",
"893 1319 CURVE SMOOTH",
"893 266 LINE SMOOTH",
"893 255 OFFCURVE",
"902 246 OFFCURVE",
"913 246 CURVE SMOOTH",
"1009 246 LINE SMOOTH",
"1020 246 OFFCURVE",
"1029 255 OFFCURVE",
"1029 266 CURVE SMOOTH",
"1029 305 LINE",
"1089 256 OFFCURVE",
"1144 231 OFFCURVE",
"1216 231 CURVE SMOOTH",
"1409 231 OFFCURVE",
"1553 416 OFFCURVE",
"1553 643 CURVE SMOOTH"
);
}
);
vertWidth = 0;
width = 2397;
}
);
note = "";
unicode = E011;
},
{
glyphname = caps;
layers = (
{
layerId = "4E2DFB36-A0B4-46BB-956A-EE2289348F3B";
paths = (
{
closed = 1;
nodes = (
"1417 416 OFFCURVE",
"1359 368 OFFCURVE",
"1284 368 CURVE SMOOTH",
"1202 368 OFFCURVE",
"1161 389 OFFCURVE",
"1161 431 CURVE SMOOTH",
"1161 468 OFFCURVE",
"1178 496 OFFCURVE",
"1212 516 CURVE SMOOTH",
"1211 515 LINE SMOOTH",
"1247 534 OFFCURVE",
"1406 557 OFFCURVE",
"1470 573 CURVE",
"1470 467 LINE"
);
},
{
closed = 1;
nodes = (
"2196 479 OFFCURVE",
"2123 368 OFFCURVE",
"2025 368 CURVE SMOOTH",
"1932 368 OFFCURVE",
"1867 476 OFFCURVE",
"1867 603 CURVE SMOOTH",
"1867 731 OFFCURVE",
"1934 849 OFFCURVE",
"2025 849 CURVE SMOOTH",
"2121 849 OFFCURVE",
"2196 737 OFFCURVE",
"2196 603 CURVE SMOOTH"
);
},
{
closed = 1;
nodes = (
"2962 549 OFFCURVE",
"2930 604 OFFCURVE",
"2732 660 CURVE",
"2570 708 OFFCURVE",
"2540 721 OFFCURVE",
"2540 786 CURVE SMOOTH",
"2540 826 OFFCURVE",
"2603 854 OFFCURVE",
"2675 854 CURVE SMOOTH",
"2737 854 OFFCURVE",
"2801 821 OFFCURVE",
"2809 765 CURVE SMOOTH",
"2810 754 OFFCURVE",
"2818 747 OFFCURVE",
"2829 747 CURVE",
"2914 762 LINE",
"2925 765 OFFCURVE",
"2930 771 OFFCURVE",
"2930 782 CURVE SMOOTH",
"2930 872 OFFCURVE",
"2808 974 OFFCURVE",
"2680 974 CURVE SMOOTH",
"2535 974 OFFCURVE",
"2419 881 OFFCURVE",
"2419 786 CURVE SMOOTH",
"2419 701 OFFCURVE",
"2458 640 OFFCURVE",
"2537 601 CURVE",
"2552 590 OFFCURVE",
"2618 575 OFFCURVE",
"2746 536 CURVE SMOOTH",
"2809 517 OFFCURVE",
"2840 492 OFFCURVE",
"2840 461 CURVE SMOOTH",
"2840 409 OFFCURVE",
"2758 363 OFFCURVE",
"2682 363 CURVE SMOOTH",
"2594 363 OFFCURVE",
"2554 388 OFFCURVE",
"2514 481 CURVE SMOOTH",
"2511 488 OFFCURVE",
"2504 492 OFFCURVE",
"2495 492 CURVE",
"2414 472 LINE",
"2405 469 OFFCURVE",
"2399 462 OFFCURVE",
"2399 454 CURVE SMOOTH",
"2399 451 OFFCURVE",
"2399 448 OFFCURVE",
"2400 447 CURVE SMOOTH",
"2447 308 OFFCURVE",
"2535 241 OFFCURVE",
"2682 241 CURVE SMOOTH",
"2833 241 OFFCURVE",
"2962 348 OFFCURVE",
"2962 459 CURVE SMOOTH"
);
},
{
closed = 1;
nodes = (
"1611 334 OFFCURVE",
"1606 392 OFFCURVE",
"1598 480 CURVE",
"1598 783 LINE SMOOTH",
"1598 884 OFFCURVE",
"1474 974 OFFCURVE",
"1347 974 CURVE SMOOTH",
"1210 974 OFFCURVE",
"1065 857 OFFCURVE",
"1046 745 CURVE SMOOTH",
"1046 742 LINE SMOOTH",
"1046 731 OFFCURVE",
"1053 723 OFFCURVE",
"1064 722 CURVE SMOOTH",
"1118 717 OFFCURVE",
"1126 706 OFFCURVE",
"1142 706 CURVE SMOOTH",
"1151 706 OFFCURVE",
"1158 711 OFFCURVE",
"1161 720 CURVE SMOOTH",
"1189 807 OFFCURVE",
"1256 853 OFFCURVE",
"1344 853 CURVE SMOOTH",
"1408 853 OFFCURVE",
"1448 825 OFFCURVE",
"1476 769 CURVE",
"1476 699 LINE",
"1465 698 OFFCURVE",
"1453 695 OFFCURVE",
"1412 686 CURVE",
"1360 673 OFFCURVE",
"1239 652 OFFCURVE",
"1214 646 CURVE SMOOTH",
"1097 619 OFFCURVE",
"1035 541 OFFCURVE",
"1035 424 CURVE SMOOTH",
"1035 299 OFFCURVE",
"1111 241 OFFCURVE",
"1284 241 CURVE SMOOTH",
"1368 241 OFFCURVE",
"1425 263 OFFCURVE",
"1493 322 CURVE",
"1496 306 OFFCURVE",
"1514 241 OFFCURVE",
"1537 241 CURVE SMOOTH",
"1547 241 OFFCURVE",
"1583 257 OFFCURVE",
"1605 263 CURVE",
"1604 262 LINE",
"1609 263 OFFCURVE",
"1614 266 OFFCURVE",
"1618 267 CURVE",
"1631 295 LINE"
);
},
{
closed = 1;
nodes = (
"962 1008 OFFCURVE",
"967 1014 OFFCURVE",
"967 1025 CURVE SMOOTH",
"967 1028 OFFCURVE",
"967 1030 OFFCURVE",
"966 1031 CURVE",
"908 1238 OFFCURVE",
"773 1341 OFFCURVE",
"562 1341 CURVE SMOOTH",
"550 1341 LINE SMOOTH",
"223 1334 OFFCURVE",
"54 1153 OFFCURVE",
"50 797 CURVE SMOOTH",
"50 784 LINE SMOOTH",
"50 424 OFFCURVE",
"213 244 OFFCURVE",
"541 241 CURVE SMOOTH",
"544 241 LINE SMOOTH",
"783 241 OFFCURVE",
"922 356 OFFCURVE",
"967 584 CURVE",
"967 588 LINE SMOOTH",
"967 599 OFFCURVE",
"962 606 OFFCURVE",
"951 608 CURVE SMOOTH",
"834 633 LINE",
"823 633 OFFCURVE",
"816 628 OFFCURVE",
"814 617 CURVE SMOOTH",
"780 455 OFFCURVE",
"687 373 OFFCURVE",
"534 371 CURVE",
"325 386 OFFCURVE",
"210 532 OFFCURVE",
"210 780 CURVE SMOOTH",
"210 790 LINE SMOOTH",
"213 1040 OFFCURVE",
"337 1188 OFFCURVE",
"542 1199 CURVE",
"682 1196 OFFCURVE",
"775 1129 OFFCURVE",
"814 996 CURVE SMOOTH",
"817 987 OFFCURVE",
"824 982 OFFCURVE",
"833 982 CURVE SMOOTH",
"837 982 LINE",
"951 1006 LINE"
);
},
{
closed = 1;
nodes = (
"2322 799 OFFCURVE",
"2197 974 OFFCURVE",
"2025 974 CURVE SMOOTH",
"1964 974 OFFCURVE",
"1921 958 OFFCURVE",
"1865 911 CURVE",
"1865 941 LINE SMOOTH",
"1865 952 OFFCURVE",
"1856 961 OFFCURVE",
"1845 961 CURVE SMOOTH",
"1761 961 LINE SMOOTH",
"1750 961 OFFCURVE",
"1741 952 OFFCURVE",
"1741 941 CURVE SMOOTH",
"1741 15 LINE SMOOTH",
"1741 4 OFFCURVE",
"1750 -5 OFFCURVE",
"1761 -5 CURVE SMOOTH",
"1845 -5 LINE SMOOTH",
"1856 -5 OFFCURVE",
"1865 4 OFFCURVE",
"1865 15 CURVE SMOOTH",
"1865 305 LINE",
"1920 260 OFFCURVE",
"1962 241 OFFCURVE",
"2025 241 CURVE SMOOTH",
"2198 241 OFFCURVE",
"2322 407 OFFCURVE",
"2322 603 CURVE SMOOTH"
);
}
);
vertWidth = 0;
width = 3012;
}
);
note = "";
unicode = E003;
},
{
glyphname = digits;
layers = (
{
layerId = "4E2DFB36-A0B4-46BB-956A-EE2289348F3B";
paths = (
{
closed = 1;
nodes = (
"470 1315 OFFCURVE",
"461 1324 OFFCURVE",
"450 1324 CURVE SMOOTH",
"378 1324 LINE SMOOTH",
"371 1324 OFFCURVE",
"363 1318 OFFCURVE",
"360 1313 CURVE SMOOTH",
"315 1225 OFFCURVE",
"156 1090 OFFCURVE",
"64 1063 CURVE SMOOTH",
"56 1060 OFFCURVE",
"50 1052 OFFCURVE",
"50 1044 CURVE SMOOTH",
"50 938 LINE SMOOTH",
"50 926 OFFCURVE",
"58 917 OFFCURVE",
"69 917 CURVE SMOOTH",
"74 917 OFFCURVE",
"83 921 OFFCURVE",
"90 924 CURVE SMOOTH",
"161 950 OFFCURVE",
"170 953 OFFCURVE",
"313 1054 CURVE",
"313 261 LINE SMOOTH",
"313 250 OFFCURVE",
"322 241 OFFCURVE",
"333 241 CURVE SMOOTH",
"450 241 LINE SMOOTH",
"461 241 OFFCURVE",
"470 250 OFFCURVE",
"470 261 CURVE SMOOTH",
"470 1304 LINE"
);
},
{
closed = 1;
nodes = (
"2223 687 OFFCURVE",
"2163 771 OFFCURVE",
"2043 836 CURVE",
"2128 890 OFFCURVE",
"2170 961 OFFCURVE",
"2170 1048 CURVE SMOOTH",
"2170 1051 LINE SMOOTH",
"2145 1236 OFFCURVE",
"2038 1332 OFFCURVE",
"1849 1339 CURVE SMOOTH",
"1846 1339 LINE SMOOTH",
"1679 1339 OFFCURVE",
"1572 1246 OFFCURVE",
"1525 1060 CURVE",
"1524 1059 OFFCURVE",
"1524 1057 OFFCURVE",
"1524 1054 CURVE SMOOTH",
"1524 1030 OFFCURVE",
"1576 1027 OFFCURVE",
"1595 1024 CURVE SMOOTH",
"1631 1017 OFFCURVE",
"1651 1014 OFFCURVE",
"1654 1014 CURVE SMOOTH",
"1661 1014 OFFCURVE",
"1670 1020 OFFCURVE",
"1673 1027 CURVE SMOOTH",
"1676 1034 OFFCURVE",
"1678 1041 OFFCURVE",
"1681 1050 CURVE SMOOTH",
"1705 1118 LINE SMOOTH",
"1722 1169 OFFCURVE",
"1783 1201 OFFCURVE",
"1858 1214 CURVE",
"1958 1207 OFFCURVE",
"2012 1156 OFFCURVE",
"2016 1053 CURVE",
"2000 940 OFFCURVE",
"1928 883 OFFCURVE",
"1800 882 CURVE SMOOTH",
"1791 882 OFFCURVE",
"1781 874 OFFCURVE",
"1780 865 CURVE SMOOTH",
"1766 773 LINE",
"1766 760 OFFCURVE",
"1772 754 OFFCURVE",
"1785 754 CURVE SMOOTH",
"1788 754 LINE SMOOTH",
"1812 757 OFFCURVE",
"1834 758 OFFCURVE",
"1854 758 CURVE SMOOTH",
"1991 758 OFFCURVE",
"2060 694 OFFCURVE",
"2063 565 CURVE",
"2052 442 OFFCURVE",
"1973 370 OFFCURVE",
"1858 357 CURVE",
"1754 366 OFFCURVE",
"1680 428 OFFCURVE",
"1647 545 CURVE",
"1644 553 OFFCURVE",
"1635 560 OFFCURVE",
"1627 560 CURVE SMOOTH",
"1530 555 LINE SMOOTH",
"1517 554 OFFCURVE",
"1511 547 OFFCURVE",
"1511 535 CURVE SMOOTH",
"1511 531 LINE",
"1549 333 OFFCURVE",
"1665 233 OFFCURVE",
"1858 232 CURVE",
"2086 248 OFFCURVE",
"2208 360 OFFCURVE",
"2223 568 CURVE",
"2223 583 LINE"
);
},
{
closed = 1;
nodes = (
"1444 380 OFFCURVE",
"1435 389 OFFCURVE",
"1424 389 CURVE SMOOTH",
"936 389 LINE",
"971 436 OFFCURVE",
"1060 517 OFFCURVE",
"1208 642 CURVE SMOOTH",
"1207 641 LINE SMOOTH",
"1364 757 OFFCURVE",
"1443 882 OFFCURVE",
"1443 1015 CURVE SMOOTH",
"1443 1027 LINE SMOOTH",
"1435 1226 OFFCURVE",
"1321 1330 OFFCURVE",
"1102 1337 CURVE SMOOTH",
"1096 1337 LINE SMOOTH",
"895 1337 OFFCURVE",
"780 1235 OFFCURVE",
"749 1031 CURVE",
"749 1012 OFFCURVE",
"793 998 OFFCURVE",
"882 990 CURVE SMOOTH",
"884 990 LINE SMOOTH",
"895 990 OFFCURVE",
"903 997 OFFCURVE",
"904 1008 CURVE SMOOTH",
"919 1135 OFFCURVE",
"984 1203 OFFCURVE",
"1099 1212 CURVE",
"1226 1202 OFFCURVE",
"1290 1142 OFFCURVE",
"1290 1032 CURVE SMOOTH",
"1290 932 OFFCURVE",
"1220 831 OFFCURVE",
"1083 723 CURVE SMOOTH",
"1012 667 OFFCURVE",
"938 602 OFFCURVE",
"857 529 CURVE",
"769 439 OFFCURVE",
"725 351 OFFCURVE",
"725 264 CURVE SMOOTH",
"725 261 LINE SMOOTH",
"725 250 OFFCURVE",
"734 241 OFFCURVE",
"745 241 CURVE SMOOTH",
"1424 241 LINE SMOOTH",
"1435 241 OFFCURVE",
"1444 250 OFFCURVE",
"1444 261 CURVE SMOOTH",
"1444 369 LINE"
);
}
);
vertWidth = 0;
width = 2273;
}
);
note = "";
unicode = E013;
},
{
glyphname = currencies;
layers = (
{
layerId = "4E2DFB36-A0B4-46BB-956A-EE2289348F3B";
paths = (
{
closed = 1;
nodes = (
"1682 1314 OFFCURVE",
"1495 1336 OFFCURVE",
"1461 1336 CURVE SMOOTH",
"1233 1336 OFFCURVE",
"1131 1221 OFFCURVE",
"1131 965 CURVE SMOOTH",
"1131 818 LINE",
"1012 818 LINE SMOOTH",
"999 818 OFFCURVE",
"993 812 OFFCURVE",
"993 799 CURVE SMOOTH",
"993 699 LINE SMOOTH",
"993 688 OFFCURVE",
"1001 680 OFFCURVE",
"1012 680 CURVE SMOOTH",
"1131 680 LINE",
"1131 395 LINE",
"985 395 LINE SMOOTH",
"974 395 OFFCURVE",
"966 387 OFFCURVE",
"966 376 CURVE SMOOTH",
"966 257 LINE SMOOTH",
"966 246 OFFCURVE",
"974 237 OFFCURVE",
"985 237 CURVE SMOOTH",
"1677 237 LINE SMOOTH",
"1688 237 OFFCURVE",
"1696 246 OFFCURVE",
"1696 257 CURVE SMOOTH",
"1696 376 LINE SMOOTH",
"1696 387 OFFCURVE",
"1688 395 OFFCURVE",
"1677 395 CURVE SMOOTH",
"1308 395 LINE",
"1308 680 LINE",
"1562 680 LINE SMOOTH",
"1573 680 OFFCURVE",
"1581 688 OFFCURVE",
"1581 699 CURVE SMOOTH",
"1581 799 LINE SMOOTH",
"1581 810 OFFCURVE",
"1573 818 OFFCURVE",
"1562 818 CURVE SMOOTH",
"1308 818 LINE",
"1308 949 LINE SMOOTH",
"1308 1141 OFFCURVE",
"1350 1186 OFFCURVE",
"1474 1186 CURVE SMOOTH",
"1527 1186 OFFCURVE",
"1586 1167 OFFCURVE",
"1653 1130 CURVE SMOOTH",
"1655 1129 OFFCURVE",
"1658 1128 OFFCURVE",
"1663 1128 CURVE SMOOTH",
"1674 1128 OFFCURVE",
"1682 1136 OFFCURVE",
"1682 1148 CURVE SMOOTH",
"1682 1274 LINE"
);
},
{
closed = 1;
nodes = (
"2600 670 OFFCURVE",
"2591 678 OFFCURVE",
"2580 678 CURVE SMOOTH",
"2312 678 LINE",
"2312 687 LINE",
"2329 720 OFFCURVE",
"2345 750 OFFCURVE",
"2364 783 CURVE",
"2580 783 LINE SMOOTH",
"2591 783 OFFCURVE",
"2600 791 OFFCURVE",
"2600 802 CURVE SMOOTH",
"2600 888 LINE SMOOTH",
"2600 899 OFFCURVE",
"2591 907 OFFCURVE",
"2580 907 CURVE SMOOTH",
"2430 907 LINE",
"2636 1287 LINE SMOOTH",
"2638 1290 OFFCURVE",
"2639 1293 OFFCURVE",
"2639 1297 CURVE SMOOTH",
"2639 1308 OFFCURVE",
"2630 1316 OFFCURVE",
"2619 1316 CURVE SMOOTH",
"2485 1316 LINE SMOOTH",
"2480 1316 OFFCURVE",
"2471 1310 OFFCURVE",
"2468 1305 CURVE SMOOTH",
"2387 1154 OFFCURVE",
"2305 1002 OFFCURVE",
"2222 850 CURVE",
"1977 1305 LINE SMOOTH",
"1974 1310 OFFCURVE",
"1966 1316 OFFCURVE",
"1959 1316 CURVE SMOOTH",
"1827 1316 LINE SMOOTH",
"1816 1316 OFFCURVE",
"1807 1309 OFFCURVE",
"1807 1298 CURVE SMOOTH",
"1807 1294 OFFCURVE",
"1808 1291 OFFCURVE",
"1810 1288 CURVE SMOOTH",
"2016 907 LINE",
"1864 907 LINE SMOOTH",
"1853 907 OFFCURVE",
"1845 899 OFFCURVE",
"1845 888 CURVE SMOOTH",
"1845 802 LINE SMOOTH",
"1845 791 OFFCURVE",
"1853 783 OFFCURVE",
"1864 783 CURVE SMOOTH",
"2083 783 LINE",
"2134 687 LINE",
"2134 678 LINE",
"1864 678 LINE SMOOTH",
"1853 678 OFFCURVE",
"1845 670 OFFCURVE",
"1845 659 CURVE SMOOTH",
"1845 573 LINE SMOOTH",
"1845 562 OFFCURVE",
"1853 554 OFFCURVE",
"1864 554 CURVE SMOOTH",
"2134 554 LINE",
"2134 256 LINE SMOOTH",
"2134 245 OFFCURVE",
"2142 237 OFFCURVE",
"2153 237 CURVE SMOOTH",
"2293 237 LINE SMOOTH",
"2304 237 OFFCURVE",
"2313 245 OFFCURVE",
"2313 256 CURVE SMOOTH",
"2313 554 LINE",
"2580 554 LINE SMOOTH",
"2591 554 OFFCURVE",
"2600 562 OFFCURVE",
"2600 573 CURVE SMOOTH",
"2600 659 LINE"
);
},
{
closed = 1;
nodes = (
"859 1239 LINE SMOOTH",
"859 1246 OFFCURVE",
"855 1270 OFFCURVE",
"850 1273 CURVE SMOOTH",
"778 1313 OFFCURVE",
"698 1333 OFFCURVE",
"617 1333 CURVE SMOOTH",
"389 1333 OFFCURVE",
"162 1191 OFFCURVE",
"133 946 CURVE",
"69 946 LINE SMOOTH",
"58 946 OFFCURVE",
"50 938 OFFCURVE",
"50 927 CURVE SMOOTH",
"50 831 LINE SMOOTH",
"50 822 OFFCURVE",
"58 813 OFFCURVE",
"67 813 CURVE SMOOTH",
"123 813 LINE",
"123 760 LINE",
"69 760 LINE SMOOTH",
"58 760 OFFCURVE",
"50 752 OFFCURVE",
"50 741 CURVE SMOOTH",
"50 648 LINE SMOOTH",
"50 637 OFFCURVE",
"58 629 OFFCURVE",
"69 629 CURVE SMOOTH",
"139 629 LINE",
"163 383 OFFCURVE",
"378 237 OFFCURVE",
"612 237 CURVE SMOOTH",
"661 237 OFFCURVE",
"831 257 OFFCURVE",
"831 299 CURVE SMOOTH",
"831 441 LINE SMOOTH",
"831 453 OFFCURVE",
"822 460 OFFCURVE",
"813 460 CURVE SMOOTH",
"808 460 OFFCURVE",
"803 458 OFFCURVE",
"800 455 CURVE SMOOTH",
"749 412 OFFCURVE",
"683 392 OFFCURVE",
"614 392 CURVE SMOOTH",
"477 392 OFFCURVE",
"335 475 OFFCURVE",
"316 629 CURVE",
"688 629 LINE SMOOTH",
"699 629 OFFCURVE",
"707 637 OFFCURVE",
"708 646 CURVE SMOOTH",
"720 742 LINE",
"720 753 OFFCURVE",
"712 760 OFFCURVE",
"701 760 CURVE SMOOTH",
"299 760 LINE",
"299 813 LINE",
"712 813 LINE SMOOTH",
"723 813 OFFCURVE",
"731 820 OFFCURVE",
"732 831 CURVE SMOOTH",
"743 928 LINE",
"743 939 OFFCURVE",
"735 946 OFFCURVE",
"724 946 CURVE SMOOTH",
"314 946 LINE",
"341 1089 OFFCURVE",
"477 1179 OFFCURVE",
"613 1179 CURVE SMOOTH",
"681 1179 OFFCURVE",
"744 1158 OFFCURVE",
"800 1113 CURVE SMOOTH",
"804 1109 OFFCURVE",
"810 1108 OFFCURVE",
"814 1108 CURVE SMOOTH",
"823 1108 OFFCURVE",
"829 1113 OFFCURVE",
"831 1123 CURVE SMOOTH",
"859 1235 LINE"
);
}
);
vertWidth = 0;
width = 2689;
}
);
note = "";
unicode = E014;
},
{
glyphname = symbols;
layers = (
{
layerId = "4E2DFB36-A0B4-46BB-956A-EE2289348F3B";
paths = (
{
closed = 1;
nodes = (
"2071 1335 OFFCURVE",
"2062 1344 OFFCURVE",
"2051 1344 CURVE SMOOTH",
"1907 1344 LINE SMOOTH",
"1896 1344 OFFCURVE",
"1887 1335 OFFCURVE",
"1887 1324 CURVE SMOOTH",
"1887 1144 LINE SMOOTH",
"1887 1133 OFFCURVE",
"1896 1124 OFFCURVE",
"1907 1124 CURVE SMOOTH",
"2051 1124 LINE SMOOTH",
"2062 1124 OFFCURVE",
"2071 1133 OFFCURVE",
"2071 1144 CURVE SMOOTH",
"2071 1324 LINE"
);
},
{
closed = 1;
nodes = (
"1411 1335 OFFCURVE",
"1402 1344 OFFCURVE",
"1391 1344 CURVE SMOOTH",
"1247 1344 LINE SMOOTH",
"1236 1344 OFFCURVE",
"1227 1335 OFFCURVE",
"1227 1324 CURVE SMOOTH",
"1227 1144 LINE SMOOTH",
"1227 1133 OFFCURVE",
"1236 1124 OFFCURVE",
"1247 1124 CURVE SMOOTH",
"1391 1124 LINE SMOOTH",
"1402 1124 OFFCURVE",
"1411 1133 OFFCURVE",
"1411 1144 CURVE SMOOTH",
"1411 1324 LINE"
);
},
{
closed = 1;
nodes = (
"791 884 OFFCURVE",
"783 893 OFFCURVE",
"772 893 CURVE SMOOTH",
"767 893 OFFCURVE",
"761 890 OFFCURVE",
"756 885 CURVE SMOOTH",
"713 836 OFFCURVE",
"646 798 OFFCURVE",
"600 798 CURVE SMOOTH",
"513 798 OFFCURVE",
"356 906 OFFCURVE",
"256 906 CURVE SMOOTH",
"139 906 OFFCURVE",
"50 833 OFFCURVE",
"50 797 CURVE SMOOTH",
"50 675 LINE SMOOTH",
"50 662 OFFCURVE",
"58 654 OFFCURVE",
"69 654 CURVE SMOOTH",
"75 654 OFFCURVE",
"80 656 OFFCURVE",
"84 661 CURVE SMOOTH",
"148 726 OFFCURVE",
"189 748 OFFCURVE",
"241 748 CURVE SMOOTH",
"296 748 OFFCURVE",
"346 724 OFFCURVE",
"398 697 CURVE",
"455 669 OFFCURVE",
"512 640 OFFCURVE",
"580 640 CURVE SMOOTH",
"678 640 OFFCURVE",
"716 656 OFFCURVE",
"785 725 CURVE SMOOTH",
"788 728 OFFCURVE",
"791 736 OFFCURVE",
"791 739 CURVE SMOOTH",
"791 872 LINE"
);
},
{
closed = 1;
nodes = (
"2057 984 LINE SMOOTH",
"2056 997 OFFCURVE",
"2049 1003 OFFCURVE",
"2037 1003 CURVE SMOOTH",
"1922 1003 LINE SMOOTH",
"1911 1003 OFFCURVE",
"1903 995 OFFCURVE",
"1902 984 CURVE SMOOTH",
"1887 731 LINE",
"1887 267 LINE SMOOTH",
"1887 256 OFFCURVE",
"1896 247 OFFCURVE",
"1907 247 CURVE SMOOTH",
"2051 247 LINE SMOOTH",
"2062 247 OFFCURVE",
"2071 256 OFFCURVE",
"2071 267 CURVE SMOOTH",
"2071 731 LINE"
);
},
{
closed = 1;
nodes = (
"1232 904 OFFCURVE",
"1228 881 OFFCURVE",
"1224 862 CURVE",
"1224 863 LINE",
"1217 842 OFFCURVE",
"1207 823 OFFCURVE",
"1163 782 CURVE SMOOTH",
"1100 722 LINE SMOOTH",
"1013 638 OFFCURVE",
"980 573 OFFCURVE",
"980 496 CURVE SMOOTH",
"980 336 OFFCURVE",
"1105 227 OFFCURVE",
"1289 227 CURVE SMOOTH",
"1388 227 OFFCURVE",
"1483 254 OFFCURVE",
"1574 309 CURVE SMOOTH",
"1579 312 OFFCURVE",
"1584 321 OFFCURVE",
"1584 326 CURVE SMOOTH",
"1584 459 LINE SMOOTH",
"1584 471 OFFCURVE",
"1576 479 OFFCURVE",
"1565 479 CURVE SMOOTH",
"1560 479 OFFCURVE",
"1556 478 OFFCURVE",
"1553 475 CURVE",
"1465 415 OFFCURVE",
"1385 382 OFFCURVE",
"1314 382 CURVE SMOOTH",
"1222 382 OFFCURVE",
"1164 431 OFFCURVE",
"1164 503 CURVE SMOOTH",
"1164 543 OFFCURVE",
"1185 578 OFFCURVE",
"1234 627 CURVE SMOOTH",
"1298 691 LINE SMOOTH",
"1381 774 OFFCURVE",
"1407 828 OFFCURVE",
"1407 930 CURVE SMOOTH",
"1407 1040 LINE SMOOTH",
"1407 1051 OFFCURVE",
"1398 1060 OFFCURVE",
"1387 1060 CURVE SMOOTH",
"1252 1060 LINE SMOOTH",
"1241 1060 OFFCURVE",
"1232 1051 OFFCURVE",
"1232 1040 CURVE SMOOTH",
"1232 952 LINE"
);
}
);
vertWidth = 0;
width = 2121;
}
);
note = "";
unicode = E015;
},
{
glyphname = shift;
layers = (
{
layerId = "4E2DFB36-A0B4-46BB-956A-EE2289348F3B";
paths = (
{
closed = 1;
nodes = (
"780 147 LINE",
"780 679 LINE",
"277 679 LINE",
"970 1371 LINE",
"998 1371 LINE",
"1690 679 LINE",
"1187 679 LINE",
"1187 147 LINE"
);
},
{
closed = 1;
nodes = (
"1069 1612 OFFCURVE",
"1026 1634 OFFCURVE",
"984 1634 CURVE SMOOTH",
"941 1634 OFFCURVE",
"898 1612 OFFCURVE",
"854 1568 CURVE SMOOTH",
"104 818 LINE SMOOTH",
"69 783 OFFCURVE",
"50 726 OFFCURVE",
"50 661 CURVE SMOOTH",
"50 521 OFFCURVE",
"150 458 OFFCURVE",
"233 458 CURVE SMOOTH",
"599 458 LINE",
"599 159 LINE SMOOTH",
"599 36 OFFCURVE",
"681 -64 OFFCURVE",
"782 -64 CURVE SMOOTH",
"1185 -64 LINE SMOOTH",
"1286 -64 OFFCURVE",
"1368 36 OFFCURVE",
"1368 159 CURVE SMOOTH",
"1368 456 LINE",
"1734 456 LINE SMOOTH",
"1817 456 OFFCURVE",
"1917 517 OFFCURVE",
"1917 661 CURVE SMOOTH",
"1917 725 OFFCURVE",
"1898 782 OFFCURVE",
"1863 818 CURVE SMOOTH",
"1113 1568 LINE"
);
}
);
vertWidth = 0;
width = 1967;
}
);
note = "";
unicode = E008;
},
{
glyphname = shifted;
layers = (
{
layerId = "4E2DFB36-A0B4-46BB-956A-EE2289348F3B";
paths = (
{
closed = 1;
nodes = (
"1056 1552 OFFCURVE",
"1007 1573 OFFCURVE",
"956 1573 CURVE SMOOTH",
"902 1573 OFFCURVE",
"855 1552 OFFCURVE",
"819 1516 CURVE SMOOTH",
"107 803 LINE SMOOTH",
"69 765 OFFCURVE",
"50 720 OFFCURVE",
"50 667 CURVE SMOOTH",
"50 557 OFFCURVE",
"140 474 OFFCURVE",
"242 474 CURVE SMOOTH",
"571 474 LINE",
"571 190 LINE SMOOTH",
"571 82 OFFCURVE",
"657 0 OFFCURVE",
"764 0 CURVE SMOOTH",
"1147 0 LINE SMOOTH",
"1253 0 OFFCURVE",
"1340 82 OFFCURVE",
"1340 190 CURVE SMOOTH",
"1340 474 LINE",
"1668 474 LINE SMOOTH",
"1769 474 OFFCURVE",
"1861 556 OFFCURVE",
"1861 667 CURVE",
"1860 717 OFFCURVE",
"1843 763 OFFCURVE",
"1804 803 CURVE SMOOTH",
"1092 1516 LINE SMOOTH"
);
}
);
vertWidth = 0;
width = 1911;
}
);
note = "";
unicode = E009;
},
{
glyphname = enter;
layers = (
{
layerId = "4E2DFB36-A0B4-46BB-956A-EE2289348F3B";
paths = (
{
closed = 1;
nodes = (
"1972 445 OFFCURVE",
"1976 464 OFFCURVE",
"1976 484 CURVE SMOOTH",
"1976 1298 LINE SMOOTH",
"1976 1379 OFFCURVE",
"1911 1445 OFFCURVE",
"1831 1445 CURVE SMOOTH",
"1673 1445 LINE SMOOTH",
"1592 1445 OFFCURVE",
"1526 1379 OFFCURVE",
"1526 1298 CURVE SMOOTH",
"1526 824 LINE",
"883 824 LINE",
"883 1122 LINE SMOOTH",
"883 1202 OFFCURVE",
"816 1267 OFFCURVE",
"736 1267 CURVE SMOOTH",
"697 1267 OFFCURVE",
"661 1252 OFFCURVE",
"633 1224 CURVE SMOOTH",
"93 684 LINE SMOOTH",
"66 657 OFFCURVE",
"50 621 OFFCURVE",
"50 582 CURVE SMOOTH",
"50 540 OFFCURVE",
"64 505 OFFCURVE",
"93 478 CURVE",
"633 -62 LINE SMOOTH",
"661 -91 OFFCURVE",
"697 -106 OFFCURVE",
"736 -106 CURVE SMOOTH",
"818 -106 OFFCURVE",
"883 -38 OFFCURVE",
"883 41 CURVE SMOOTH",
"883 338 LINE",
"1830 338 LINE SMOOTH",
"1891 338 OFFCURVE",
"1941 375 OFFCURVE",
"1964 427 CURVE SMOOTH"
);
},
{
closed = 1;
nodes = (
"1686 1285 LINE",
"1817 1285 LINE",
"1817 497 LINE",
"737 497 LINE SMOOTH",
"728 497 OFFCURVE",
"723 493 OFFCURVE",
"723 484 CURVE SMOOTH",
"723 72 LINE",
"215 582 LINE",
"723 1090 LINE",
"723 678 LINE SMOOTH",
"723 669 OFFCURVE",
"728 665 OFFCURVE",
"737 665 CURVE SMOOTH",
"1686 665 LINE"
);
}
);
vertWidth = 0;
width = 2026;
}
);
note = "";
unicode = E005;
},
{
glyphname = next;
layers = (
{
layerId = "4E2DFB36-A0B4-46BB-956A-EE2289348F3B";
paths = (
{
closed = 1;
nodes = (
"1361 711 OFFCURVE",
"1375 745 OFFCURVE",
"1375 785 CURVE SMOOTH",
"1375 825 OFFCURVE",
"1361 861 OFFCURVE",
"1332 888 CURVE",
"792 1428 LINE SMOOTH",
"763 1457 OFFCURVE",
"729 1471 OFFCURVE",
"690 1471 CURVE SMOOTH",
"603 1471 OFFCURVE",
"544 1401 OFFCURVE",
"544 1326 CURVE SMOOTH",
"544 1028 LINE",
"196 1028 LINE SMOOTH",
"116 1028 OFFCURVE",
"50 964 OFFCURVE",
"50 882 CURVE SMOOTH",
"50 688 LINE SMOOTH",
"50 608 OFFCURVE",
"116 542 OFFCURVE",
"196 542 CURVE SMOOTH",
"544 542 LINE",
"544 245 LINE SMOOTH",
"544 169 OFFCURVE",
"605 97 OFFCURVE",
"689 97 CURVE SMOOTH",
"728 97 OFFCURVE",
"765 113 OFFCURVE",
"792 142 CURVE",
"1332 682 LINE"
);
},
{
closed = 1;
nodes = (
"209 869 LINE",
"689 869 LINE SMOOTH",
"698 869 OFFCURVE",
"702 873 OFFCURVE",
"702 882 CURVE SMOOTH",
"702 1294 LINE",
"1211 785 LINE",
"702 276 LINE",
"702 688 LINE SMOOTH",
"702 697 OFFCURVE",
"698 701 OFFCURVE",
"689 701 CURVE SMOOTH",
"623 701 LINE",
"209 701 LINE"
);
},
{
closed = 1;
nodes = (
"1895 1618 OFFCURVE",
"1829 1682 OFFCURVE",
"1750 1682 CURVE SMOOTH",
"1591 1682 LINE SMOOTH",
"1510 1682 OFFCURVE",
"1445 1618 OFFCURVE",
"1445 1536 CURVE SMOOTH",
"1445 36 LINE SMOOTH",
"1445 -46 OFFCURVE",
"1510 -110 OFFCURVE",
"1590 -110 CURVE SMOOTH",
"1748 -110 LINE SMOOTH",
"1829 -110 OFFCURVE",
"1895 -46 OFFCURVE",
"1895 36 CURVE SMOOTH",
"1895 1536 LINE"
);
},
{
closed = 1;
nodes = (
"1735 1523 LINE",
"1735 49 LINE",
"1603 49 LINE",
"1603 1523 LINE"
);
}
);
vertWidth = 0;
width = 1945;
}
);
note = "";
unicode = E006;
},
{
glyphname = previous;
layers = (
{
layerId = "4E2DFB36-A0B4-46BB-956A-EE2289348F3B";
paths = (
{
closed = 1;
nodes = (
"584 858 OFFCURVE",
"570 824 OFFCURVE",
"570 784 CURVE SMOOTH",
"569 743 OFFCURVE",
"585 708 OFFCURVE",
"613 681 CURVE SMOOTH",
"1153 141 LINE SMOOTH",
"1182 112 OFFCURVE",
"1216 97 OFFCURVE",
"1255 97 CURVE SMOOTH",
"1338 97 OFFCURVE",
"1402 166 OFFCURVE",
"1402 243 CURVE SMOOTH",
"1402 541 LINE",
"1750 541 LINE SMOOTH",
"1829 541 OFFCURVE",
"1895 605 OFFCURVE",
"1895 687 CURVE SMOOTH",
"1895 881 LINE SMOOTH",
"1895 961 OFFCURVE",
"1829 1027 OFFCURVE",
"1750 1027 CURVE SMOOTH",
"1402 1027 LINE",
"1402 1324 LINE SMOOTH",
"1402 1403 OFFCURVE",
"1336 1471 OFFCURVE",
"1255 1471 CURVE SMOOTH",
"1216 1471 OFFCURVE",
"1180 1456 OFFCURVE",
"1153 1427 CURVE",
"613 887 LINE"
);
},
{
closed = 1;
nodes = (
"1736 700 LINE",
"1256 700 LINE SMOOTH",
"1247 700 OFFCURVE",
"1243 696 OFFCURVE",
"1243 687 CURVE SMOOTH",
"1243 275 LINE",
"734 784 LINE",
"1243 1293 LINE",
"1243 881 LINE SMOOTH",
"1243 872 OFFCURVE",
"1247 868 OFFCURVE",
"1256 868 CURVE SMOOTH",
"1322 868 LINE",
"1736 868 LINE"
);
},
{
closed = 1;
nodes = (
"50 -49 OFFCURVE",
"116 -113 OFFCURVE",
"196 -113 CURVE SMOOTH",
"354 -113 LINE SMOOTH",
"436 -113 OFFCURVE",
"500 -49 OFFCURVE",
"500 33 CURVE SMOOTH",
"500 1533 LINE SMOOTH",
"500 1615 OFFCURVE",
"435 1679 OFFCURVE",
"355 1679 CURVE SMOOTH",
"197 1679 LINE SMOOTH",
"116 1679 OFFCURVE",
"50 1615 OFFCURVE",
"50 1533 CURVE SMOOTH",
"50 33 LINE"
);
},
{
closed = 1;
nodes = (
"210 46 LINE",
"210 1520 LINE",
"342 1520 LINE",
"342 46 LINE"
);
}
);
vertWidth = 0;
width = 1945;
}
);
note = "";
unicode = E007;
},
{
glyphname = alt_1;
layers = (
{
layerId = "4E2DFB36-A0B4-46BB-956A-EE2289348F3B";
paths = (
{
closed = 1;
nodes = (
"523 1060 OFFCURVE",
"534 1082 OFFCURVE",
"545 1114 CURVE",
"560 1086 OFFCURVE",
"566 1058 OFFCURVE",
"573 1033 CURVE",
"696 698 LINE",
"392 698 LINE",
"514 1033 LINE"
);
},
{
closed = 1;
nodes = (
"1213 1323 OFFCURVE",
"1204 1332 OFFCURVE",
"1193 1332 CURVE SMOOTH",
"1100 1332 LINE SMOOTH",
"1089 1332 OFFCURVE",
"1080 1323 OFFCURVE",
"1080 1312 CURVE SMOOTH",
"1080 258 LINE SMOOTH",
"1080 247 OFFCURVE",
"1089 238 OFFCURVE",
"1100 238 CURVE SMOOTH",
"1193 238 LINE SMOOTH",
"1204 238 OFFCURVE",
"1213 247 OFFCURVE",
"1213 258 CURVE SMOOTH",
"1213 1312 LINE"
);
},
{
closed = 1;
nodes = (
"1716 308 OFFCURVE",
"1707 338 OFFCURVE",
"1698 373 CURVE SMOOTH",
"1696 383 OFFCURVE",
"1690 388 OFFCURVE",
"1679 388 CURVE SMOOTH",
"1676 388 OFFCURVE",
"1674 388 OFFCURVE",
"1673 387 CURVE",
"1644 379 OFFCURVE",
"1625 374 OFFCURVE",
"1600 374 CURVE SMOOTH",
"1567 374 OFFCURVE",
"1547 389 OFFCURVE",
"1547 420 CURVE SMOOTH",
"1547 927 LINE",
"1673 927 LINE SMOOTH",
"1684 927 OFFCURVE",
"1693 936 OFFCURVE",
"1693 947 CURVE SMOOTH",
"1693 1039 LINE SMOOTH",
"1693 1050 OFFCURVE",
"1684 1059 OFFCURVE",
"1673 1059 CURVE SMOOTH",
"1547 1059 LINE",
"1547 1239 LINE SMOOTH",
"1547 1250 OFFCURVE",
"1538 1259 OFFCURVE",
"1527 1259 CURVE SMOOTH",
"1434 1259 LINE SMOOTH",
"1423 1259 OFFCURVE",
"1414 1250 OFFCURVE",
"1414 1239 CURVE SMOOTH",
"1414 1059 LINE",
"1330 1059 LINE SMOOTH",
"1319 1059 OFFCURVE",
"1310 1050 OFFCURVE",
"1310 1039 CURVE SMOOTH",
"1310 947 LINE SMOOTH",
"1310 936 OFFCURVE",
"1319 927 OFFCURVE",
"1330 927 CURVE SMOOTH",
"1414 927 LINE",
"1414 409 LINE SMOOTH",
"1414 295 OFFCURVE",
"1473 238 OFFCURVE",
"1591 238 CURVE SMOOTH",
"1623 238 OFFCURVE",
"1654 243 OFFCURVE",
"1685 250 CURVE SMOOTH",
"1711 255 LINE",
"1726 283 LINE"
);
},
{
closed = 1;
nodes = (
"210 238 OFFCURVE",
"219 244 OFFCURVE",
"222 251 CURVE SMOOTH",
"340 563 LINE",
"748 563 LINE",
"866 251 LINE SMOOTH",
"869 244 OFFCURVE",
"878 238 OFFCURVE",
"885 238 CURVE SMOOTH",
"1019 238 LINE SMOOTH",
"1032 238 OFFCURVE",
"1039 244 OFFCURVE",
"1039 257 CURVE SMOOTH",
"1039 260 OFFCURVE",
"1038 263 OFFCURVE",
"1037 264 CURVE SMOOTH",
"639 1319 LINE SMOOTH",
"636 1326 OFFCURVE",
"627 1332 OFFCURVE",
"620 1332 CURVE SMOOTH",
"468 1332 LINE SMOOTH",
"461 1332 OFFCURVE",
"452 1326 OFFCURVE",
"449 1319 CURVE SMOOTH",
"51 265 LINE SMOOTH",
"50 263 OFFCURVE",
"50 260 OFFCURVE",
"50 257 CURVE SMOOTH",
"50 244 OFFCURVE",
"57 238 OFFCURVE",
"70 238 CURVE SMOOTH",
"203 238 LINE"
);
}
);
vertWidth = 0;
width = 1776;
}
);
note = "";
unicode = E019;
},
{
glyphname = caps_1;
layers = (
{
layerId = "4E2DFB36-A0B4-46BB-956A-EE2289348F3B";
paths = (
{
closed = 1;
nodes = (
"863 1134 LINE",
"863 1133 LINE",
"870 1152 OFFCURVE",
"878 1170 OFFCURVE",
"887 1197 CURVE",
"903 1146 OFFCURVE",
"907 1141 OFFCURVE",
"918 1112 CURVE SMOOTH",
"932 1076 LINE",
"932 1077 LINE",
"1072 693 LINE",
"702 693 LINE",
"842 1077 LINE"
);
},
{
closed = 1;
nodes = (
"517 210 OFFCURVE",
"520 212 OFFCURVE",
"521 216 CURVE SMOOTH",
"654 567 LINE",
"1120 567 LINE",
"1253 216 LINE SMOOTH",
"1254 212 OFFCURVE",
"1257 210 OFFCURVE",
"1262 210 CURVE SMOOTH",
"1409 210 LINE SMOOTH",
"1416 210 OFFCURVE",
"1419 213 OFFCURVE",
"1419 220 CURVE SMOOTH",
"1419 222 OFFCURVE",
"1419 223 OFFCURVE",
"1418 224 CURVE SMOOTH",
"980 1383 LINE SMOOTH",
"979 1387 OFFCURVE",
"976 1389 OFFCURVE",
"971 1389 CURVE SMOOTH",
"805 1389 LINE SMOOTH",
"800 1389 OFFCURVE",
"797 1387 OFFCURVE",
"796 1383 CURVE SMOOTH",
"355 224 LINE SMOOTH",
"354 223 OFFCURVE",
"354 222 OFFCURVE",
"354 220 CURVE SMOOTH",
"354 213 OFFCURVE",
"357 210 OFFCURVE",
"364 210 CURVE SMOOTH",
"512 210 LINE"
);
},
{
closed = 1;
nodes = (
"1562 1510 LINE",
"1562 62 LINE",
"202 62 LINE",
"203 1510 LINE"
);
},
{
closed = 1;
nodes = (
"1715 1606 OFFCURVE",
"1657 1663 OFFCURVE",
"1584 1663 CURVE SMOOTH",
"182 1663 LINE SMOOTH",
"107 1663 OFFCURVE",
"50 1606 OFFCURVE",
"50 1531 CURVE SMOOTH",
"50 41 LINE SMOOTH",
"50 -34 OFFCURVE",
"108 -91 OFFCURVE",
"181 -91 CURVE SMOOTH",
"1583 -91 LINE SMOOTH",
"1658 -91 OFFCURVE",
"1715 -34 OFFCURVE",
"1715 41 CURVE SMOOTH",
"1715 1531 LINE"
);
}
);
vertWidth = 0;
width = 1765;
}
);
note = "";
unicode = E020;
},
{
glyphname = back;
layers = (
{
layerId = "4E2DFB36-A0B4-46BB-956A-EE2289348F3B";
paths = (
{
closed = 1;
nodes = (
"857 1624 OFFCURVE",
"813 1609 OFFCURVE",
"774 1579 CURVE",
"98 903 LINE SMOOTH",
"66 871 OFFCURVE",
"50 830 OFFCURVE",
"50 787 CURVE SMOOTH",
"50 744 OFFCURVE",
"66 703 OFFCURVE",
"98 671 CURVE SMOOTH",
"756 16 LINE",
"789 -27 OFFCURVE",
"847 -54 OFFCURVE",
"908 -54 CURVE SMOOTH",
"2263 -54 LINE SMOOTH",
"2377 -54 OFFCURVE",
"2470 37 OFFCURVE",
"2470 152 CURVE SMOOTH",
"2470 1420 LINE SMOOTH",
"2470 1533 OFFCURVE",
"2377 1624 OFFCURVE",
"2263 1624 CURVE SMOOTH",
"908 1624 LINE"
);
},
{
closed = 1;
nodes = (
"1876 320 LINE",
"1611 584 LINE",
"1345 320 LINE",
"1142 522 LINE",
"1408 785 LINE",
"1142 1049 LINE",
"1345 1253 LINE",
"1611 991 LINE",
"1876 1253 LINE",
"2078 1049 LINE",
"1813 785 LINE",
"2078 522 LINE"
);
}
);
vertWidth = 0;
width = 2520;
}
);
note = "";
unicode = E004;
},
{
glyphname = back_1;
layers = (
{
layerId = "4E2DFB36-A0B4-46BB-956A-EE2289348F3B";
paths = (
{
closed = 1;
nodes = (
"1130 1310 LINE SMOOTH",
"1128 1312 OFFCURVE",
"1126 1313 OFFCURVE",
"1123 1313 CURVE SMOOTH",
"1120 1313 OFFCURVE",
"1118 1312 OFFCURVE",
"1116 1310 CURVE SMOOTH",
"1000 1195 LINE SMOOTH",
"998 1193 OFFCURVE",
"997 1191 OFFCURVE",
"997 1188 CURVE SMOOTH",
"997 1185 OFFCURVE",
"998 1183 OFFCURVE",
"1000 1181 CURVE SMOOTH",
"1397 785 LINE",
"1000 389 LINE SMOOTH",
"998 387 OFFCURVE",
"997 385 OFFCURVE",
"997 382 CURVE SMOOTH",
"997 379 OFFCURVE",
"998 377 OFFCURVE",
"1000 375 CURVE SMOOTH",
"1116 260 LINE SMOOTH",
"1118 258 OFFCURVE",
"1120 257 OFFCURVE",
"1123 257 CURVE SMOOTH",
"1126 257 OFFCURVE",
"1128 258 OFFCURVE",
"1130 260 CURVE SMOOTH",
"1525 655 LINE",
"1921 260 LINE SMOOTH",
"1923 258 OFFCURVE",
"1925 257 OFFCURVE",
"1928 257 CURVE SMOOTH",
"1931 257 OFFCURVE",
"1933 258 OFFCURVE",
"1935 260 CURVE SMOOTH",
"2050 375 LINE SMOOTH",
"2052 377 OFFCURVE",
"2053 379 OFFCURVE",
"2053 382 CURVE SMOOTH",
"2053 385 OFFCURVE",
"2052 387 OFFCURVE",
"2050 389 CURVE SMOOTH",
"1655 785 LINE",
"2050 1181 LINE SMOOTH",
"2052 1183 OFFCURVE",
"2053 1185 OFFCURVE",
"2053 1188 CURVE SMOOTH",
"2053 1191 OFFCURVE",
"2052 1193 OFFCURVE",
"2050 1195 CURVE SMOOTH",
"1935 1310 LINE SMOOTH",
"1933 1312 OFFCURVE",
"1931 1313 OFFCURVE",
"1928 1313 CURVE SMOOTH",
"1925 1313 OFFCURVE",
"1923 1312 OFFCURVE",
"1921 1310 CURVE SMOOTH",
"1525 915 LINE"
);
},
{
closed = 1;
nodes = (
"304 785 LINE",
"945 1426 LINE",
"2329 1426 LINE",
"2329 144 LINE",
"945 144 LINE"
);
},
{
closed = 1;
nodes = (
"2512 1606 OFFCURVE",
"2509 1609 OFFCURVE",
"2502 1609 CURVE SMOOTH",
"874 1609 LINE SMOOTH",
"871 1609 OFFCURVE",
"869 1608 OFFCURVE",
"867 1606 CURVE SMOOTH",
"53 792 LINE SMOOTH",
"51 790 OFFCURVE",
"50 788 OFFCURVE",
"50 785 CURVE SMOOTH",
"50 782 OFFCURVE",
"51 780 OFFCURVE",
"53 778 CURVE SMOOTH",
"867 -36 LINE SMOOTH",
"869 -38 OFFCURVE",
"871 -39 OFFCURVE",
"874 -39 CURVE SMOOTH",
"2502 -39 LINE SMOOTH",
"2509 -39 OFFCURVE",
"2512 -36 OFFCURVE",
"2512 -29 CURVE SMOOTH",
"2512 1599 LINE"
);
}
);
vertWidth = 0;
width = 2562;
}
);
note = "";
unicode = E021;
},
{
glyphname = back_2;
layers = (
{
layerId = "4E2DFB36-A0B4-46BB-956A-EE2289348F3B";
paths = (
{
closed = 1;
nodes = (
"665 1310 OFFCURVE",
"663 1311 OFFCURVE",
"660 1311 CURVE SMOOTH",
"657 1311 OFFCURVE",
"655 1310 OFFCURVE",
"653 1308 CURVE SMOOTH",
"539 1193 LINE SMOOTH",
"537 1191 OFFCURVE",
"536 1189 OFFCURVE",
"536 1186 CURVE SMOOTH",
"536 1183 OFFCURVE",
"537 1181 OFFCURVE",
"539 1179 CURVE SMOOTH",
"934 783 LINE",
"539 387 LINE SMOOTH",
"537 385 OFFCURVE",
"536 383 OFFCURVE",
"536 380 CURVE SMOOTH",
"536 377 OFFCURVE",
"537 375 OFFCURVE",
"539 373 CURVE SMOOTH",
"653 258 LINE SMOOTH",
"655 256 OFFCURVE",
"657 255 OFFCURVE",
"660 255 CURVE SMOOTH",
"663 255 OFFCURVE",
"665 256 OFFCURVE",
"667 258 CURVE SMOOTH",
"1064 653 LINE",
"1460 258 LINE SMOOTH",
"1462 256 OFFCURVE",
"1464 255 OFFCURVE",
"1467 255 CURVE SMOOTH",
"1470 255 OFFCURVE",
"1472 256 OFFCURVE",
"1474 258 CURVE SMOOTH",
"1589 373 LINE SMOOTH",
"1591 375 OFFCURVE",
"1592 377 OFFCURVE",
"1592 380 CURVE SMOOTH",
"1592 383 OFFCURVE",
"1591 385 OFFCURVE",
"1589 387 CURVE SMOOTH",
"1192 783 LINE",
"1589 1179 LINE SMOOTH",
"1591 1181 OFFCURVE",
"1592 1183 OFFCURVE",
"1592 1186 CURVE SMOOTH",
"1592 1189 OFFCURVE",
"1591 1191 OFFCURVE",
"1589 1193 CURVE SMOOTH",
"1474 1308 LINE SMOOTH",
"1472 1310 OFFCURVE",
"1470 1311 OFFCURVE",
"1467 1311 CURVE SMOOTH",
"1464 1311 OFFCURVE",
"1462 1310 OFFCURVE",
"1460 1308 CURVE SMOOTH",
"1064 913 LINE",
"667 1308 LINE"
);
},
{
closed = 1;
nodes = (
"1896 1424 LINE",
"1896 142 LINE",
"232 142 LINE",
"232 1424 LINE"
);
},
{
closed = 1;
nodes = (
"2075 -41 OFFCURVE",
"2078 -38 OFFCURVE",
"2078 -31 CURVE SMOOTH",
"2078 1597 LINE SMOOTH",
"2078 1604 OFFCURVE",
"2075 1607 OFFCURVE",
"2068 1607 CURVE SMOOTH",
"60 1607 LINE SMOOTH",
"53 1607 OFFCURVE",
"50 1604 OFFCURVE",
"50 1597 CURVE SMOOTH",
"50 -31 LINE SMOOTH",
"50 -38 OFFCURVE",
"53 -41 OFFCURVE",
"60 -41 CURVE SMOOTH",
"2068 -41 LINE"
);
}
);
vertWidth = 0;
width = 2128;
}
);
note = "";
unicode = E022;
},
{
glyphname = globe;
layers = (
{
layerId = "4E2DFB36-A0B4-46BB-956A-EE2289348F3B";
paths = (
{
closed = 1;
nodes = (
"1580 -360 OFFCURVE",
"1879 -246 OFFCURVE",
"2108 -25 CURVE",
"2220 79 OFFCURVE",
"2304 200 OFFCURVE",
"2365 337 CURVE SMOOTH",
"2429 481 OFFCURVE",
"2457 630 OFFCURVE",
"2458 787 CURVE",
"2458 1103 OFFCURVE",
"2333 1394 OFFCURVE",
"2108 1611 CURVE SMOOTH",
"1880 1831 OFFCURVE",
"1578 1949 OFFCURVE",
"1249 1949 CURVE SMOOTH",
"922 1949 OFFCURVE",
"625 1832 OFFCURVE",
"398 1611 CURVE SMOOTH",
"174 1392 OFFCURVE",
"50 1103 OFFCURVE",
"50 787 CURVE SMOOTH",
"50 630 OFFCURVE",
"78 482 OFFCURVE",
"142 337 CURVE SMOOTH",
"203 199 OFFCURVE",
"288 78 OFFCURVE",
"398 -25 CURVE",
"509 -132 OFFCURVE",
"637 -214 OFFCURVE",
"780 -272 CURVE SMOOTH",
"929 -332 OFFCURVE",
"1082 -360 OFFCURVE",
"1249 -360 CURVE SMOOTH"
);
},
{
closed = 1;
nodes = (
"1006 -82 OFFCURVE",
"930 44 OFFCURVE",
"877 180 CURVE",
"977 217 OFFCURVE",
"1082 236 OFFCURVE",
"1179 239 CURVE",
"1179 -220 LINE",
"1152 -220 OFFCURVE",
"1129 -219 OFFCURVE",
"1106 -214 CURVE"
);
},
{
closed = 1;
nodes = (
"1411 236 OFFCURVE",
"1512 217 OFFCURVE",
"1636 180 CURVE",
"1572 36 OFFCURVE",
"1494 -96 OFFCURVE",
"1402 -213 CURVE",
"1373 -220 OFFCURVE",
"1348 -220 OFFCURVE",
"1323 -220 CURVE",
"1323 239 LINE"
);
},
{
closed = 1;
nodes = (
"1838 93 OFFCURVE",
"1902 55 OFFCURVE",
"1955 23 CURVE",
"1852 -63 OFFCURVE",
"1733 -126 OFFCURVE",
"1600 -167 CURVE",
"1660 -75 OFFCURVE",
"1718 22 OFFCURVE",
"1757 126 CURVE"
);
},
{
closed = 1;
nodes = (
"619 63 OFFCURVE",
"681 97 OFFCURVE",
"745 126 CURVE",
"784 30 OFFCURVE",
"832 -59 OFFCURVE",
"908 -167 CURVE",
"777 -128 OFFCURVE",
"658 -64 OFFCURVE",
"551 23 CURVE"
);
},
{
closed = 1;
nodes = (
"1875 417 OFFCURVE",
"1914 582 OFFCURVE",
"1925 723 CURVE",
"2302 723 LINE",
"2287 484 OFFCURVE",
"2203 283 OFFCURVE",
"2055 126 CURVE",
"2002 163 OFFCURVE",
"1940 190 OFFCURVE",
"1868 223 CURVE SMOOTH",
"1849 232 OFFCURVE",
"1830 239 OFFCURVE",
"1811 250 CURVE"
);
},
{
closed = 1;
nodes = (
"590 571 OFFCURVE",
"628 406 OFFCURVE",
"696 250 CURVE",
"599 204 OFFCURVE",
"519 175 OFFCURVE",
"455 127 CURVE",
"306 284 OFFCURVE",
"219 484 OFFCURVE",
"204 723 CURVE",
"583 723 LINE"
);
},
{
closed = 1;
nodes = (
"1179 381 LINE",
"1062 370 OFFCURVE",
"940 341 OFFCURVE",
"827 298 CURVE",
"768 443 OFFCURVE",
"735 584 OFFCURVE",
"727 723 CURVE",
"1179 723 LINE"
);
},
{
closed = 1;
nodes = (
"1778 723 LINE",
"1775 603 OFFCURVE",
"1744 474 OFFCURVE",
"1681 298 CURVE",
"1564 341 OFFCURVE",
"1440 370 OFFCURVE",
"1323 381 CURVE",
"1323 723 LINE"
);
},
{
closed = 1;
nodes = (
"1916 1000 OFFCURVE",
"1878 1159 OFFCURVE",
"1811 1335 CURVE",
"1911 1375 OFFCURVE",
"1991 1416 OFFCURVE",
"2055 1463 CURVE",
"2203 1294 OFFCURVE",
"2287 1092 OFFCURVE",
"2302 859 CURVE",
"1925 859 LINE"
);
},
{
closed = 1;
nodes = (
"1323 1206 LINE",
"1424 1212 OFFCURVE",
"1543 1240 OFFCURVE",
"1681 1289 CURVE",
"1724 1168 OFFCURVE",
"1773 1016 OFFCURVE",
"1778 859 CURVE",
"1323 859 LINE"
);
},
{
closed = 1;
nodes = (
"734 1000 OFFCURVE",
"768 1144 OFFCURVE",
"827 1290 CURVE",
"956 1241 OFFCURVE",
"1079 1213 OFFCURVE",
"1179 1206 CURVE",
"1179 859 LINE",
"727 859 LINE"
);
},
{
closed = 1;
nodes = (
"219 1092 OFFCURVE",
"306 1295 OFFCURVE",
"455 1463 CURVE",
"516 1416 OFFCURVE",
"596 1375 OFFCURVE",
"696 1335 CURVE",
"624 1142 OFFCURVE",
"590 991 OFFCURVE",
"583 859 CURVE",
"204 859 LINE"
);
},
{
closed = 1;
nodes = (
"1350 1808 OFFCURVE",
"1374 1801 OFFCURVE",
"1401 1793 CURVE",
"1502 1661 OFFCURVE",
"1577 1540 OFFCURVE",
"1636 1408 CURVE",
"1535 1375 OFFCURVE",
"1431 1352 OFFCURVE",
"1323 1341 CURVE",
"1323 1811 LINE"
);
},
{
closed = 1;
nodes = (
"928 1537 OFFCURVE",
"1003 1661 OFFCURVE",
"1107 1794 CURVE",
"1132 1803 OFFCURVE",
"1155 1808 OFFCURVE",
"1179 1811 CURVE",
"1179 1341 LINE",
"1071 1353 OFFCURVE",
"968 1376 OFFCURVE",
"868 1408 CURVE"
);
},
{
closed = 1;
nodes = (
"667 1652 OFFCURVE",
"785 1718 OFFCURVE",
"905 1755 CURVE",
"841 1663 OFFCURVE",
"786 1564 OFFCURVE",
"745 1460 CURVE",
"672 1485 OFFCURVE",
"614 1514 OFFCURVE",
"550 1557 CURVE"
);
},
{
closed = 1;
nodes = (
"1725 1715 OFFCURVE",
"1847 1646 OFFCURVE",
"1955 1557 CURVE",
"1904 1522 OFFCURVE",
"1841 1490 OFFCURVE",
"1764 1461 CURVE",
"1721 1562 OFFCURVE",
"1668 1663 OFFCURVE",
"1604 1755 CURVE"
);
}
);
vertWidth = 0;
width = 2508;
}
);
note = "";
unicode = E00B;
},
{
glyphname = hide;
layers = (
{
layerId = "4E2DFB36-A0B4-46BB-956A-EE2289348F3B";
paths = (
{
closed = 1;
nodes = (
"962 1088 OFFCURVE",
"965 1085 OFFCURVE",
"972 1085 CURVE SMOOTH",
"1117 1085 LINE SMOOTH",
"1124 1085 OFFCURVE",
"1127 1088 OFFCURVE",
"1127 1095 CURVE SMOOTH",
"1127 1240 LINE SMOOTH",
"1127 1247 OFFCURVE",
"1124 1250 OFFCURVE",
"1117 1250 CURVE SMOOTH",
"972 1250 LINE SMOOTH",
"965 1250 OFFCURVE",
"962 1247 OFFCURVE",
"962 1240 CURVE SMOOTH",
"962 1095 LINE"
);
},
{
closed = 1;
nodes = (
"1262 1088 OFFCURVE",
"1265 1085 OFFCURVE",
"1272 1085 CURVE SMOOTH",
"1417 1085 LINE SMOOTH",
"1424 1085 OFFCURVE",
"1427 1088 OFFCURVE",
"1427 1095 CURVE SMOOTH",
"1427 1240 LINE SMOOTH",
"1427 1247 OFFCURVE",
"1424 1250 OFFCURVE",
"1417 1250 CURVE SMOOTH",
"1272 1250 LINE SMOOTH",
"1265 1250 OFFCURVE",
"1262 1247 OFFCURVE",
"1262 1240 CURVE SMOOTH",
"1262 1095 LINE"
);
},
{
closed = 1;
nodes = (
"1862 1088 OFFCURVE",
"1865 1085 OFFCURVE",
"1872 1085 CURVE SMOOTH",
"2017 1085 LINE SMOOTH",
"2024 1085 OFFCURVE",
"2027 1088 OFFCURVE",
"2027 1095 CURVE SMOOTH",
"2027 1240 LINE SMOOTH",
"2027 1247 OFFCURVE",
"2024 1250 OFFCURVE",
"2017 1250 CURVE SMOOTH",
"1872 1250 LINE SMOOTH",
"1865 1250 OFFCURVE",
"1862 1247 OFFCURVE",
"1862 1240 CURVE SMOOTH",
"1862 1095 LINE"
);
},
{
closed = 1;
nodes = (
"812 1268 OFFCURVE",
"815 1265 OFFCURVE",
"822 1265 CURVE SMOOTH",
"967 1265 LINE SMOOTH",
"974 1265 OFFCURVE",
"977 1268 OFFCURVE",
"977 1275 CURVE SMOOTH",
"977 1420 LINE SMOOTH",
"977 1427 OFFCURVE",
"974 1430 OFFCURVE",
"967 1430 CURVE SMOOTH",
"822 1430 LINE SMOOTH",
"815 1430 OFFCURVE",
"812 1427 OFFCURVE",
"812 1420 CURVE SMOOTH",
"812 1275 LINE"
);
},
{
closed = 1;
nodes = (
"362 1088 OFFCURVE",
"365 1085 OFFCURVE",
"372 1085 CURVE SMOOTH",
"517 1085 LINE SMOOTH",
"524 1085 OFFCURVE",
"527 1088 OFFCURVE",
"527 1095 CURVE SMOOTH",
"527 1240 LINE SMOOTH",
"527 1247 OFFCURVE",
"524 1250 OFFCURVE",
"517 1250 CURVE SMOOTH",
"372 1250 LINE SMOOTH",
"365 1250 OFFCURVE",
"362 1247 OFFCURVE",
"362 1240 CURVE SMOOTH",
"362 1095 LINE"
);
},
{
closed = 1;
nodes = (
"1712 1268 OFFCURVE",
"1715 1265 OFFCURVE",
"1722 1265 CURVE SMOOTH",
"1867 1265 LINE SMOOTH",
"1874 1265 OFFCURVE",
"1877 1268 OFFCURVE",
"1877 1275 CURVE SMOOTH",
"1877 1420 LINE SMOOTH",
"1877 1427 OFFCURVE",
"1874 1430 OFFCURVE",
"1867 1430 CURVE SMOOTH",
"1722 1430 LINE SMOOTH",
"1715 1430 OFFCURVE",
"1712 1427 OFFCURVE",
"1712 1420 CURVE SMOOTH",
"1712 1275 LINE"
);
},
{
closed = 1;
nodes = (
"1412 1268 OFFCURVE",
"1415 1265 OFFCURVE",
"1422 1265 CURVE SMOOTH",
"1567 1265 LINE SMOOTH",
"1574 1265 OFFCURVE",
"1577 1268 OFFCURVE",
"1577 1275 CURVE SMOOTH",
"1577 1420 LINE SMOOTH",
"1577 1427 OFFCURVE",
"1574 1430 OFFCURVE",
"1567 1430 CURVE SMOOTH",
"1422 1430 LINE SMOOTH",
"1415 1430 OFFCURVE",
"1412 1427 OFFCURVE",
"1412 1420 CURVE SMOOTH",
"1412 1275 LINE"
);
},
{
closed = 1;
nodes = (
"1562 1088 OFFCURVE",
"1565 1085 OFFCURVE",
"1572 1085 CURVE SMOOTH",
"1717 1085 LINE SMOOTH",
"1724 1085 OFFCURVE",
"1727 1088 OFFCURVE",
"1727 1095 CURVE SMOOTH",
"1727 1240 LINE SMOOTH",
"1727 1247 OFFCURVE",
"1724 1250 OFFCURVE",
"1717 1250 CURVE SMOOTH",
"1572 1250 LINE SMOOTH",
"1565 1250 OFFCURVE",
"1562 1247 OFFCURVE",
"1562 1240 CURVE SMOOTH",
"1562 1095 LINE"
);
},
{
closed = 1;
nodes = (
"662 1088 OFFCURVE",
"665 1085 OFFCURVE",
"672 1085 CURVE SMOOTH",
"817 1085 LINE SMOOTH",
"824 1085 OFFCURVE",
"827 1088 OFFCURVE",
"827 1095 CURVE SMOOTH",
"827 1240 LINE SMOOTH",
"827 1247 OFFCURVE",
"824 1250 OFFCURVE",
"817 1250 CURVE SMOOTH",
"672 1250 LINE SMOOTH",
"665 1250 OFFCURVE",
"662 1247 OFFCURVE",
"662 1240 CURVE SMOOTH",
"662 1095 LINE"
);
},
{
closed = 1;
nodes = (
"512 1268 OFFCURVE",
"515 1265 OFFCURVE",
"522 1265 CURVE SMOOTH",
"667 1265 LINE SMOOTH",
"674 1265 OFFCURVE",
"677 1268 OFFCURVE",
"677 1275 CURVE SMOOTH",
"677 1420 LINE SMOOTH",
"677 1427 OFFCURVE",
"674 1430 OFFCURVE",
"667 1430 CURVE SMOOTH",
"522 1430 LINE SMOOTH",
"515 1430 OFFCURVE",
"512 1427 OFFCURVE",
"512 1420 CURVE SMOOTH",
"512 1275 LINE"
);
},
{
closed = 1;
nodes = (
"1862 1458 OFFCURVE",
"1865 1455 OFFCURVE",
"1872 1455 CURVE SMOOTH",
"2017 1455 LINE SMOOTH",
"2024 1455 OFFCURVE",
"2027 1458 OFFCURVE",
"2027 1465 CURVE SMOOTH",
"2027 1610 LINE SMOOTH",
"2027 1617 OFFCURVE",
"2024 1620 OFFCURVE",
"2017 1620 CURVE SMOOTH",
"1872 1620 LINE SMOOTH",
"1865 1620 OFFCURVE",
"1862 1617 OFFCURVE",
"1862 1610 CURVE SMOOTH",
"1862 1465 LINE"
);
},
{
closed = 1;
nodes = (
"1562 1458 OFFCURVE",
"1565 1455 OFFCURVE",
"1572 1455 CURVE SMOOTH",
"1717 1455 LINE SMOOTH",
"1724 1455 OFFCURVE",
"1727 1458 OFFCURVE",
"1727 1465 CURVE SMOOTH",
"1727 1610 LINE SMOOTH",
"1727 1617 OFFCURVE",
"1724 1620 OFFCURVE",
"1717 1620 CURVE SMOOTH",
"1572 1620 LINE SMOOTH",
"1565 1620 OFFCURVE",
"1562 1617 OFFCURVE",
"1562 1610 CURVE SMOOTH",
"1562 1465 LINE"
);
},
{
closed = 1;
nodes = (
"1262 1458 OFFCURVE",
"1265 1455 OFFCURVE",
"1272 1455 CURVE SMOOTH",
"1417 1455 LINE SMOOTH",
"1424 1455 OFFCURVE",
"1427 1458 OFFCURVE",
"1427 1465 CURVE SMOOTH",
"1427 1610 LINE SMOOTH",
"1427 1617 OFFCURVE",
"1424 1620 OFFCURVE",
"1417 1620 CURVE SMOOTH",
"1272 1620 LINE SMOOTH",
"1265 1620 OFFCURVE",
"1262 1617 OFFCURVE",
"1262 1610 CURVE SMOOTH",
"1262 1465 LINE"
);
},
{
closed = 1;
nodes = (
"962 1458 OFFCURVE",
"965 1455 OFFCURVE",
"972 1455 CURVE SMOOTH",
"1117 1455 LINE SMOOTH",
"1124 1455 OFFCURVE",
"1127 1458 OFFCURVE",
"1127 1465 CURVE SMOOTH",
"1127 1610 LINE SMOOTH",
"1127 1617 OFFCURVE",
"1124 1620 OFFCURVE",
"1117 1620 CURVE SMOOTH",
"972 1620 LINE SMOOTH",
"965 1620 OFFCURVE",
"962 1617 OFFCURVE",
"962 1610 CURVE SMOOTH",
"962 1465 LINE"
);
},
{
closed = 1;
nodes = (
"662 1458 OFFCURVE",
"665 1455 OFFCURVE",
"672 1455 CURVE SMOOTH",
"817 1455 LINE SMOOTH",
"824 1455 OFFCURVE",
"827 1458 OFFCURVE",
"827 1465 CURVE SMOOTH",
"827 1610 LINE SMOOTH",
"827 1617 OFFCURVE",
"824 1620 OFFCURVE",
"817 1620 CURVE SMOOTH",
"672 1620 LINE SMOOTH",
"665 1620 OFFCURVE",
"662 1617 OFFCURVE",
"662 1610 CURVE SMOOTH",
"662 1465 LINE"
);
},
{
closed = 1;
nodes = (
"362 1458 OFFCURVE",
"365 1455 OFFCURVE",
"372 1455 CURVE SMOOTH",
"517 1455 LINE SMOOTH",
"524 1455 OFFCURVE",
"527 1458 OFFCURVE",
"527 1465 CURVE SMOOTH",
"527 1610 LINE SMOOTH",
"527 1617 OFFCURVE",
"524 1620 OFFCURVE",
"517 1620 CURVE SMOOTH",
"372 1620 LINE SMOOTH",
"365 1620 OFFCURVE",
"362 1617 OFFCURVE",
"362 1610 CURVE SMOOTH",
"362 1465 LINE"
);
},
{
closed = 1;
nodes = (
"1112 1268 OFFCURVE",
"1115 1265 OFFCURVE",
"1122 1265 CURVE SMOOTH",
"1267 1265 LINE SMOOTH",
"1274 1265 OFFCURVE",
"1277 1268 OFFCURVE",
"1277 1275 CURVE SMOOTH",
"1277 1420 LINE SMOOTH",
"1277 1427 OFFCURVE",
"1274 1430 OFFCURVE",
"1267 1430 CURVE SMOOTH",
"1122 1430 LINE SMOOTH",
"1115 1430 OFFCURVE",
"1112 1427 OFFCURVE",
"1112 1420 CURVE SMOOTH",
"1112 1275 LINE"
);
},
{
closed = 1;
nodes = (
"1735 858 OFFCURVE",
"1738 861 OFFCURVE",
"1738 868 CURVE SMOOTH",
"1738 1057 LINE SMOOTH",
"1738 1064 OFFCURVE",
"1735 1067 OFFCURVE",
"1728 1067 CURVE SMOOTH",
"652 1067 LINE SMOOTH",
"645 1067 OFFCURVE",
"642 1064 OFFCURVE",
"642 1057 CURVE SMOOTH",
"642 868 LINE SMOOTH",
"642 861 OFFCURVE",
"645 858 OFFCURVE",
"652 858 CURVE SMOOTH",
"1728 858 LINE"
);
},
{
closed = 1;
nodes = (
"2096 1704 OFFCURVE",
"2150 1696 OFFCURVE",
"2165 1681 CURVE SMOOTH",
"2180 1666 OFFCURVE",
"2187 1613 OFFCURVE",
"2187 1521 CURVE SMOOTH",
"2187 960 LINE SMOOTH",
"2187 867 OFFCURVE",
"2180 813 OFFCURVE",
"2165 798 CURVE SMOOTH",
"2151 783 OFFCURVE",
"2098 776 OFFCURVE",
"2005 776 CURVE SMOOTH",
"376 776 LINE SMOOTH",
"283 776 OFFCURVE",
"230 783 OFFCURVE",
"215 798 CURVE SMOOTH",
"200 813 OFFCURVE",
"193 867 OFFCURVE",
"193 960 CURVE SMOOTH",
"193 1521 LINE SMOOTH",
"193 1613 OFFCURVE",
"200 1666 OFFCURVE",
"215 1681 CURVE SMOOTH",
"230 1696 OFFCURVE",
"284 1704 OFFCURVE",
"376 1704 CURVE SMOOTH",
"2005 1704 LINE"
);
},
{
closed = 1;
nodes = (
"210 1846 OFFCURVE",
"123 1826 OFFCURVE",
"93 1787 CURVE SMOOTH",
"64 1750 OFFCURVE",
"50 1662 OFFCURVE",
"50 1521 CURVE SMOOTH",
"50 958 LINE SMOOTH",
"50 816 OFFCURVE",
"69 726 OFFCURVE",
"107 688 CURVE SMOOTH",
"144 651 OFFCURVE",
"234 632 OFFCURVE",
"376 632 CURVE SMOOTH",
"2005 632 LINE SMOOTH",
"2152 632 OFFCURVE",
"2243 649 OFFCURVE",
"2278 684 CURVE SMOOTH",
"2313 719 OFFCURVE",
"2331 811 OFFCURVE",
"2331 958 CURVE SMOOTH",
"2331 1521 LINE SMOOTH",
"2331 1671 OFFCURVE",
"2314 1763 OFFCURVE",
"2281 1796 CURVE SMOOTH",
"2248 1829 OFFCURVE",
"2156 1846 OFFCURVE",
"2005 1846 CURVE SMOOTH",
"354 1846 LINE"
);
},
{
closed = 1;
nodes = (
"1123 -465 OFFCURVE",
"1152 -477 OFFCURVE",
"1185 -477 CURVE SMOOTH",
"1218 -477 OFFCURVE",
"1245 -467 OFFCURVE",
"1271 -441 CURVE SMOOTH",
"1721 9 LINE SMOOTH",
"1745 33 OFFCURVE",
"1757 61 OFFCURVE",
"1757 94 CURVE SMOOTH",
"1757 165 OFFCURVE",
"1698 216 OFFCURVE",
"1636 216 CURVE SMOOTH",
"1388 216 LINE",
"1388 456 LINE SMOOTH",
"1388 523 OFFCURVE",
"1334 577 OFFCURVE",
"1266 577 CURVE SMOOTH",
"1104 577 LINE SMOOTH",
"1037 577 OFFCURVE",
"983 523 OFFCURVE",
"983 456 CURVE SMOOTH",
"983 216 LINE",
"735 216 LINE SMOOTH",
"671 216 OFFCURVE",
"612 162 OFFCURVE",
"612 94 CURVE SMOOTH",
"612 62 OFFCURVE",
"625 33 OFFCURVE",
"649 9 CURVE SMOOTH",
"1099 -441 LINE"
);
},
{
closed = 1;
nodes = (
"1255 445 LINE",
"1255 95 LINE SMOOTH",
"1255 88 OFFCURVE",
"1259 84 OFFCURVE",
"1266 84 CURVE SMOOTH",
"1609 84 LINE",
"1185 -340 LINE",
"761 84 LINE",
"1104 84 LINE SMOOTH",
"1111 84 OFFCURVE",
"1115 88 OFFCURVE",
"1115 95 CURVE SMOOTH",
"1115 150 LINE",
"1115 445 LINE"
);
}
);
vertWidth = 0;
width = 2381;
}
);
note = "";
unicode = E00A;
},
{
glyphname = bullet;
layers = (
{
layerId = "4E2DFB36-A0B4-46BB-956A-EE2289348F3B";
paths = (
{
closed = 1;
nodes = (
"50 576 OFFCURVE",
"182 444 OFFCURVE",
"346 444 CURVE SMOOTH",
"508 444 OFFCURVE",
"642 577 OFFCURVE",
"642 740 CURVE SMOOTH",
"642 903 OFFCURVE",
"508 1036 OFFCURVE",
"345 1036 CURVE SMOOTH",
"184 1036 OFFCURVE",
"50 902 OFFCURVE",
"50 740 CURVE SMOOTH"
);
}
);
vertWidth = 0;
width = 692;
}
);
note = "";
unicode = 2022;
},
{
glyphname = sterling;
layers = (
{
layerId = "4E2DFB36-A0B4-46BB-956A-EE2289348F3B";
paths = (
{
closed = 1;
nodes = (
"918 1499 OFFCURVE",
"813 1520 OFFCURVE",
"732 1520 CURVE SMOOTH",
"423 1520 OFFCURVE",
"286 1364 OFFCURVE",
"286 1016 CURVE SMOOTH",
"286 778 LINE",
"87 778 LINE",
"87 635 LINE",
"286 635 LINE",
"286 170 LINE",
"50 170 LINE",
"50 0 LINE",
"1043 0 LINE",
"1043 170 LINE",
"486 170 LINE",
"486 635 LINE",
"877 635 LINE",
"877 778 LINE",
"486 778 LINE",
"486 993 LINE SMOOTH",
"486 1280 OFFCURVE",
"554 1360 OFFCURVE",
"750 1360 CURVE SMOOTH",
"831 1360 OFFCURVE",
"922 1333 OFFCURVE",
"1023 1278 CURVE",
"1023 1460 LINE"
);
}
);
vertWidth = 0;
width = 1093;
}
);
note = "";
unicode = 00A3;
},
{
glyphname = yen;
layers = (
{
layerId = "4E2DFB36-A0B4-46BB-956A-EE2289348F3B";
paths = (
{
closed = 1;
nodes = (
"718 578 LINE",
"718 629 LINE",
"802 784 LINE",
"1133 784 LINE",
"1133 907 LINE",
"869 907 LINE",
"1187 1493 LINE",
"996 1493 LINE",
"619 793 LINE",
"240 1493 LINE",
"50 1493 LINE",
"367 907 LINE",
"103 907 LINE",
"103 784 LINE",
"435 784 LINE",
"519 629 LINE",
"519 578 LINE",
"103 578 LINE",
"103 455 LINE",
"519 455 LINE",
"519 0 LINE",
"720 0 LINE",
"720 455 LINE",
"1133 455 LINE",
"1133 578 LINE"
);
}
);
vertWidth = 0;
width = 1237;
}
);
note = "";
unicode = 00A5;
},
{
glyphname = questiondown;
layers = (
{
layerId = "4E2DFB36-A0B4-46BB-956A-EE2289348F3B";
paths = (
{
closed = 1;
nodes = (
"407 853 OFFCURVE",
"399 824 OFFCURVE",
"367 782 CURVE SMOOTH",
"354 765 OFFCURVE",
"332 740 OFFCURVE",
"300 709 CURVE SMOOTH",
"212 623 LINE SMOOTH",
"153 566 OFFCURVE",
"111 515 OFFCURVE",
"86 468 CURVE SMOOTH",
"62 423 OFFCURVE",
"50 375 OFFCURVE",
"50 324 CURVE SMOOTH",
"50 112 OFFCURVE",
"214 -29 OFFCURVE",
"458 -29 CURVE SMOOTH",
"593 -29 OFFCURVE",
"723 9 OFFCURVE",
"847 84 CURVE",
"847 272 LINE",
"718 183 OFFCURVE",
"597 135 OFFCURVE",
"493 135 CURVE SMOOTH",
"348 135 OFFCURVE",
"253 215 OFFCURVE",
"253 334 CURVE SMOOTH",
"253 399 OFFCURVE",
"285 458 OFFCURVE",
"362 530 CURVE",
"452 618 LINE SMOOTH",
"512 676 OFFCURVE",
"551 727 OFFCURVE",
"569 770 CURVE",
"588 812 OFFCURVE",
"597 867 OFFCURVE",
"597 936 CURVE SMOOTH",
"597 1092 LINE",
"407 1092 LINE",
"407 969 LINE"
);
},
{
closed = 1;
nodes = (
"407 1493 LINE",
"407 1239 LINE",
"603 1239 LINE",
"603 1493 LINE"
);
}
);
vertWidth = 0;
width = 897;
}
);
note = "";
unicode = 00BF;
},
{
glyphname = exclamdown;
layers = (
{
layerId = "4E2DFB36-A0B4-46BB-956A-EE2289348F3B";
paths = (
{
closed = 1;
nodes = (
"50 1493 LINE",
"50 1239 LINE",
"253 1239 LINE",
"253 1493 LINE"
);
},
{
closed = 1;
nodes = (
"253 1012 LINE",
"71 1012 LINE",
"71 655 LINE",
"71 0 LINE",
"253 0 LINE",
"253 655 LINE"
);
}
);
vertWidth = 0;
width = 303;
}
);
note = "";
unicode = 00A1;
},
{
glyphname = ellipsis;
layers = (
{
layerId = "4E2DFB36-A0B4-46BB-956A-EE2289348F3B";
paths = (
{
closed = 1;
nodes = (
"944 0 LINE",
"944 254 LINE",
"732 254 LINE",
"732 0 LINE"
);
},
{
closed = 1;
nodes = (
"1626 0 LINE",
"1626 254 LINE",
"1413 254 LINE",
"1413 0 LINE"
);
},
{
closed = 1;
nodes = (
"263 0 LINE",
"263 254 LINE",
"50 254 LINE",
"50 0 LINE"
);
}
);
vertWidth = 0;
width = 1676;
}
);
note = "";
unicode = 2026;
},
{
glyphname = pin;
layers = (
{
layerId = "4E2DFB36-A0B4-46BB-956A-EE2289348F3B";
paths = (
{
closed = 1;
nodes = (
"828 1171 OFFCURVE",
"727 1193 OFFCURVE",
"626 1193 CURVE SMOOTH",
"459 1193 OFFCURVE",
"298 1133 OFFCURVE",
"173 1008 CURVE",
"586 595 LINE",
"50 59 LINE",
"177 -68 LINE",
"713 468 LINE",
"1126 55 LINE",
"1251 180 OFFCURVE",
"1311 341 OFFCURVE",
"1311 508 CURVE SMOOTH",
"1311 609 OFFCURVE",
"1289 710 OFFCURVE",
"1242 806 CURVE",
"1546 1109 LINE",
"1641 1014 LINE",
"1762 1134 LINE",
"1252 1644 LINE",
"1132 1523 LINE",
"1227 1428 LINE",
"924 1124 LINE"
);
}
);
vertWidth = 0;
width = 1812;
}
);
note = "";
unicode = E024;
},
{
glyphname = resize;
layers = (
{
layerId = "4E2DFB36-A0B4-46BB-956A-EE2289348F3B";
paths = (
{
closed = 1;
nodes = (
"1584 1222 LINE",
"1456 1350 LINE",
"50 -56 LINE",
"178 -184 LINE"
);
},
{
closed = 1;
nodes = (
"1584 711 LINE",
"1456 839 LINE",
"560 -56 LINE",
"688 -184 LINE"
);
},
{
closed = 1;
nodes = (
"1584 202 LINE",
"1456 330 LINE",
"1070 -56 LINE",
"1198 -184 LINE"
);
}
);
vertWidth = 0;
width = 1634;
}
);
note = "";
unicode = E023;
},
{
glyphname = close;
layers = (
{
layerId = "4E2DFB36-A0B4-46BB-956A-EE2289348F3B";
paths = (
{
closed = 1;
nodes = (
"50 1181 LINE",
"524 707 LINE",
"50 233 LINE",
"185 97 LINE",
"660 571 LINE",
"1134 97 LINE",
"1270 233 LINE",
"795 707 LINE",
"1270 1181 LINE",
"1134 1317 LINE",
"660 843 LINE",
"185 1317 LINE"
);
}
);
vertWidth = 0;
width = 1320;
}
);
note = "";
unicode = E025;
},
{
glyphname = pin_1;
layers = (
{
layerId = "4E2DFB36-A0B4-46BB-956A-EE2289348F3B";
paths = (
{
closed = 1;
nodes = (
"814 1196 OFFCURVE",
"729 1212 OFFCURVE",
"637 1212 CURVE SMOOTH",
"470 1212 OFFCURVE",
"306 1151 OFFCURVE",
"181 1024 CURVE SMOOTH",
"170 1013 OFFCURVE",
"165 1000 OFFCURVE",
"165 985 CURVE SMOOTH",
"165 970 OFFCURVE",
"170 957 OFFCURVE",
"181 947 CURVE SMOOTH",
"288 840 OFFCURVE",
"413 711 OFFCURVE",
"522 604 CURVE",
"66 149 LINE SMOOTH",
"55 138 OFFCURVE",
"50 124 OFFCURVE",
"50 109 CURVE SMOOTH",
"50 94 OFFCURVE",
"55 81 OFFCURVE",
"66 71 CURVE SMOOTH",
"184 -46 LINE",
"194 -57 OFFCURVE",
"207 -62 OFFCURVE",
"222 -62 CURVE SMOOTH",
"237 -62 OFFCURVE",
"250 -57 OFFCURVE",
"261 -46 CURVE SMOOTH",
"716 409 LINE",
"1058 66 LINE SMOOTH",
"1069 55 OFFCURVE",
"1083 49 OFFCURVE",
"1098 49 CURVE SMOOTH",
"1113 49 OFFCURVE",
"1127 55 OFFCURVE",
"1138 66 CURVE SMOOTH",
"1263 194 OFFCURVE",
"1324 357 OFFCURVE",
"1324 524 CURVE SMOOTH",
"1324 616 OFFCURVE",
"1308 701 OFFCURVE",
"1271 788 CURVE",
"1351 865 OFFCURVE",
"1413 928 OFFCURVE",
"1486 1001 CURVE",
"1534 952 LINE SMOOTH",
"1545 941 OFFCURVE",
"1558 936 OFFCURVE",
"1573 936 CURVE SMOOTH",
"1588 936 OFFCURVE",
"1601 941 OFFCURVE",
"1612 952 CURVE SMOOTH",
"1724 1063 LINE SMOOTH",
"1735 1074 OFFCURVE",
"1740 1086 OFFCURVE",
"1740 1101 CURVE SMOOTH",
"1740 1115 OFFCURVE",
"1736 1128 OFFCURVE",
"1724 1140 CURVE SMOOTH",
"1253 1611 LINE SMOOTH",
"1241 1623 OFFCURVE",
"1228 1627 OFFCURVE",
"1214 1627 CURVE SMOOTH",
"1199 1627 OFFCURVE",
"1187 1622 OFFCURVE",
"1176 1611 CURVE SMOOTH",
"1065 1499 LINE SMOOTH",
"1054 1488 OFFCURVE",
"1049 1475 OFFCURVE",
"1049 1460 CURVE SMOOTH",
"1049 1445 OFFCURVE",
"1054 1433 OFFCURVE",
"1065 1422 CURVE SMOOTH",
"1114 1373 LINE",
"901 1159 LINE"
);
},
{
closed = 1;
nodes = (
"1104 1461 LINE",
"1214 1572 LINE",
"1685 1102 LINE",
"1573 991 LINE",
"1486 1079 LINE",
"1205 799 LINE",
"1248 711 OFFCURVE",
"1269 618 OFFCURVE",
"1269 523 CURVE SMOOTH",
"1269 370 OFFCURVE",
"1213 221 OFFCURVE",
"1098 106 CURVE",
"1098 105 LINE",
"717 487 LINE",
"222 -7 LINE",
"105 110 LINE",
"600 604 LINE",
"219 985 LINE",
"220 985 LINE",
"335 1101 OFFCURVE",
"484 1156 OFFCURVE",
"637 1156 CURVE SMOOTH",
"732 1156 OFFCURVE",
"824 1136 OFFCURVE",
"912 1093 CURVE",
"1205 1373 LINE"
);
}
);
vertWidth = 0;
width = 1790;
}
);
note = "";
unicode = E026;
},
{
glyphname = close_1;
layers = (
{
layerId = "4E2DFB36-A0B4-46BB-956A-EE2289348F3B";
paths = (
{
closed = 1;
nodes = (
"257 1320 OFFCURVE",
"244 1326 OFFCURVE",
"229 1325 CURVE",
"215 1326 OFFCURVE",
"202 1320 OFFCURVE",
"191 1309 CURVE SMOOTH",
"66 1184 LINE SMOOTH",
"55 1173 OFFCURVE",
"50 1160 OFFCURVE",
"50 1145 CURVE SMOOTH",
"50 1130 OFFCURVE",
"55 1117 OFFCURVE",
"66 1106 CURVE SMOOTH",
"465 708 LINE",
"66 309 LINE SMOOTH",
"55 298 OFFCURVE",
"50 285 OFFCURVE",
"50 270 CURVE SMOOTH",
"50 255 OFFCURVE",
"55 242 OFFCURVE",
"66 232 CURVE",
"191 106 LINE SMOOTH",
"201 95 OFFCURVE",
"214 90 OFFCURVE",
"229 90 CURVE SMOOTH",
"244 90 OFFCURVE",
"257 95 OFFCURVE",
"268 106 CURVE SMOOTH",
"668 505 LINE",
"1067 106 LINE SMOOTH",
"1077 95 OFFCURVE",
"1090 90 OFFCURVE",
"1105 90 CURVE SMOOTH",
"1120 90 OFFCURVE",
"1133 95 OFFCURVE",
"1144 106 CURVE SMOOTH",
"1270 232 LINE SMOOTH",
"1281 243 OFFCURVE",
"1286 255 OFFCURVE",
"1286 270 CURVE SMOOTH",
"1286 284 OFFCURVE",
"1281 297 OFFCURVE",
"1270 309 CURVE",
"870 708 LINE",
"1270 1106 LINE SMOOTH",
"1281 1117 OFFCURVE",
"1285 1130 OFFCURVE",
"1286 1145 CURVE SMOOTH",
"1286 1159 OFFCURVE",
"1281 1172 OFFCURVE",
"1270 1184 CURVE",
"1144 1309 LINE SMOOTH",
"1133 1320 OFFCURVE",
"1120 1326 OFFCURVE",
"1105 1325 CURVE",
"1091 1326 OFFCURVE",
"1078 1320 OFFCURVE",
"1067 1309 CURVE SMOOTH",
"668 911 LINE",
"268 1309 LINE"
);
},
{
closed = 1;
nodes = (
"1105 1271 LINE",
"1231 1145 LINE",
"793 708 LINE",
"1231 270 LINE",
"1105 145 LINE",
"668 582 LINE",
"230 145 LINE",
"105 270 LINE",
"543 708 LINE",
"105 1145 LINE",
"230 1271 LINE",
"668 833 LINE"
);
}
);
vertWidth = 0;
width = 1336;
}
);
note = "";
unicode = E027;
},
{
glyphname = resize_1;
layers = (
{
layerId = "4E2DFB36-A0B4-46BB-956A-EE2289348F3B";
paths = (
{
closed = 1;
nodes = (
"1403 360 LINE",
"1521 242 LINE",
"1165 -114 LINE",
"1046 4 LINE"
);
},
{
closed = 1;
nodes = (
"1403 830 LINE",
"1521 711 LINE",
"694 -114 LINE",
"576 4 LINE"
);
},
{
closed = 1;
nodes = (
"1403 1301 LINE",
"1521 1183 LINE",
"223 -114 LINE",
"105 4 LINE"
);
},
{
closed = 1;
nodes = (
"195 -164 OFFCURVE",
"208 -169 OFFCURVE",
"223 -169 CURVE SMOOTH",
"238 -169 OFFCURVE",
"251 -164 OFFCURVE",
"262 -153 CURVE SMOOTH",
"1559 1144 LINE SMOOTH",
"1570 1155 OFFCURVE",
"1576 1168 OFFCURVE",
"1575 1182 CURVE",
"1575 1197 OFFCURVE",
"1570 1211 OFFCURVE",
"1559 1222 CURVE SMOOTH",
"1441 1340 LINE SMOOTH",
"1429 1351 OFFCURVE",
"1416 1356 OFFCURVE",
"1402 1356 CURVE SMOOTH",
"1387 1356 OFFCURVE",
"1375 1351 OFFCURVE",
"1364 1340 CURVE SMOOTH",
"67 42 LINE SMOOTH",
"56 31 OFFCURVE",
"50 18 OFFCURVE",
"50 3 CURVE SMOOTH",
"50 -12 OFFCURVE",
"56 -25 OFFCURVE",
"67 -35 CURVE SMOOTH",
"185 -153 LINE"
);
},
{
closed = 1;
nodes = (
"665 -164 OFFCURVE",
"678 -169 OFFCURVE",
"693 -169 CURVE SMOOTH",
"708 -169 OFFCURVE",
"722 -164 OFFCURVE",
"733 -153 CURVE SMOOTH",
"1559 673 LINE SMOOTH",
"1570 684 OFFCURVE",
"1576 697 OFFCURVE",
"1575 711 CURVE",
"1576 726 OFFCURVE",
"1570 739 OFFCURVE",
"1559 750 CURVE SMOOTH",
"1441 868 LINE SMOOTH",
"1430 879 OFFCURVE",
"1417 885 OFFCURVE",
"1402 884 CURVE",
"1388 885 OFFCURVE",
"1375 879 OFFCURVE",
"1364 868 CURVE SMOOTH",
"537 42 LINE SMOOTH",
"526 31 OFFCURVE",
"521 18 OFFCURVE",
"521 3 CURVE SMOOTH",
"521 -12 OFFCURVE",
"526 -25 OFFCURVE",
"537 -35 CURVE SMOOTH",
"655 -153 LINE"
);
},
{
closed = 1;
nodes = (
"1136 -164 OFFCURVE",
"1149 -169 OFFCURVE",
"1164 -169 CURVE SMOOTH",
"1179 -169 OFFCURVE",
"1192 -164 OFFCURVE",
"1203 -153 CURVE SMOOTH",
"1559 203 LINE SMOOTH",
"1570 214 OFFCURVE",
"1576 227 OFFCURVE",
"1575 241 CURVE",
"1575 256 OFFCURVE",
"1570 270 OFFCURVE",
"1559 281 CURVE SMOOTH",
"1441 399 LINE SMOOTH",
"1429 410 OFFCURVE",
"1416 415 OFFCURVE",
"1402 415 CURVE SMOOTH",
"1387 415 OFFCURVE",
"1375 410 OFFCURVE",
"1364 399 CURVE SMOOTH",
"1008 42 LINE SMOOTH",
"997 31 OFFCURVE",
"991 18 OFFCURVE",
"991 3 CURVE SMOOTH",
"991 -11 OFFCURVE",
"997 -24 OFFCURVE",
"1008 -35 CURVE SMOOTH",
"1126 -153 LINE"
);
}
);
vertWidth = 0;
width = 1625;
}
);
note = "";
unicode = E028;
},
{
glyphname = gearwheel;
layers = (
{
layerId = "4E2DFB36-A0B4-46BB-956A-EE2289348F3B";
paths = (
{
closed = 1;
nodes = (
"1135 1153 OFFCURVE",
"1335 953 OFFCURVE",
"1335 707 CURVE SMOOTH",
"1335 461 OFFCURVE",
"1135 260 OFFCURVE",
"889 260 CURVE SMOOTH",
"643 260 OFFCURVE",
"442 461 OFFCURVE",
"442 707 CURVE SMOOTH",
"442 953 OFFCURVE",
"643 1153 OFFCURVE",
"889 1153 CURVE SMOOTH"
);
},
{
closed = 1;
nodes = (
"784 1347 LINE",
"741 1340 OFFCURVE",
"700 1329 OFFCURVE",
"661 1314 CURVE",
"530 1469 LINE",
"409 1398 LINE",
"478 1208 LINE",
"445 1181 OFFCURVE",
"415 1151 OFFCURVE",
"388 1118 CURVE",
"197 1188 LINE",
"128 1065 LINE",
"283 935 LINE",
"268 896 OFFCURVE",
"257 855 OFFCURVE",
"250 812 CURVE",
"50 777 LINE",
"50 636 LINE",
"250 602 LINE",
"257 559 OFFCURVE",
"268 518 OFFCURVE",
"283 479 CURVE",
"128 348 LINE",
"197 227 LINE",
"388 296 LINE",
"415 263 OFFCURVE",
"445 233 OFFCURVE",
"478 206 CURVE",
"409 15 LINE",
"530 -54 LINE",
"661 101 LINE",
"700 86 OFFCURVE",
"741 75 OFFCURVE",
"784 68 CURVE",
"818 -132 LINE",
"959 -132 LINE",
"994 68 LINE",
"1037 75 OFFCURVE",
"1078 86 OFFCURVE",
"1118 101 CURVE",
"1247 -54 LINE",
"1370 15 LINE",
"1300 206 LINE",
"1333 233 OFFCURVE",
"1363 263 OFFCURVE",
"1390 296 CURVE",
"1580 227 LINE",
"1651 348 LINE",
"1496 479 LINE",
"1511 518 OFFCURVE",
"1522 559 OFFCURVE",
"1529 602 CURVE",
"1729 636 LINE",
"1729 777 LINE",
"1529 812 LINE",
"1522 855 OFFCURVE",
"1511 896 OFFCURVE",
"1496 935 CURVE",
"1651 1065 LINE",
"1580 1188 LINE",
"1390 1118 LINE",
"1363 1151 OFFCURVE",
"1333 1181 OFFCURVE",
"1300 1208 CURVE",
"1370 1398 LINE",
"1247 1469 LINE",
"1118 1314 LINE",
"1078 1329 OFFCURVE",
"1037 1340 OFFCURVE",
"994 1347 CURVE",
"959 1545 LINE",
"818 1545 LINE"
);
}
);
vertWidth = 0;
width = 1779;
}
);
note = "";
unicode = E030;
},
{
glyphname = info;
layers = (
{
layerId = "4E2DFB36-A0B4-46BB-956A-EE2289348F3B";
paths = (
{
closed = 1;
nodes = (
"208 808 OFFCURVE",
"248 837 OFFCURVE",
"273 852 CURVE",
"269 805 OFFCURVE",
"240 676 OFFCURVE",
"195 500 CURVE",
"141 307 OFFCURVE",
"134 259 OFFCURVE",
"134 195 CURVE SMOOTH",
"134 122 OFFCURVE",
"176 70 OFFCURVE",
"256 70 CURVE SMOOTH",
"321 70 OFFCURVE",
"373 91 OFFCURVE",
"488 168 CURVE SMOOTH",
"551 211 OFFCURVE",
"622 261 OFFCURVE",
"669 294 CURVE",
"676 312 LINE",
"640 374 LINE",
"574 375 LINE",
"519 336 OFFCURVE",
"483 311 OFFCURVE",
"460 296 CURVE",
"461 331 OFFCURVE",
"489 450 OFFCURVE",
"543 652 CURVE SMOOTH",
"555 696 OFFCURVE",
"602 883 OFFCURVE",
"606 898 CURVE SMOOTH",
"618 946 OFFCURVE",
"623 985 OFFCURVE",
"623 1012 CURVE SMOOTH",
"623 1070 OFFCURVE",
"575 1111 OFFCURVE",
"515 1111 CURVE SMOOTH",
"468 1111 OFFCURVE",
"410 1090 OFFCURVE",
"342 1051 CURVE SMOOTH",
"269 1008 OFFCURVE",
"173 941 OFFCURVE",
"52 848 CURVE",
"50 829 LINE",
"82 772 LINE",
"149 769 LINE"
);
},
{
closed = 1;
nodes = (
"375 1301 OFFCURVE",
"422 1242 OFFCURVE",
"533 1242 CURVE SMOOTH",
"669 1242 OFFCURVE",
"714 1348 OFFCURVE",
"714 1420 CURVE SMOOTH",
"714 1501 OFFCURVE",
"657 1555 OFFCURVE",
"557 1555 CURVE SMOOTH",
"452 1555 OFFCURVE",
"375 1479 OFFCURVE",
"375 1384 CURVE SMOOTH"
);
}
);
vertWidth = 0;
width = 764;
}
);
note = "";
unicode = E031;
},
{
glyphname = help;
layers = (
{
layerId = "4E2DFB36-A0B4-46BB-956A-EE2289348F3B";
paths = (
{
closed = 1;
nodes = (
"63 73 OFFCURVE",
"118 25 OFFCURVE",
"228 25 CURVE SMOOTH",
"365 25 OFFCURVE",
"421 139 OFFCURVE",
"421 222 CURVE SMOOTH",
"421 310 OFFCURVE",
"359 366 OFFCURVE",
"255 366 CURVE SMOOTH",
"135 366 OFFCURVE",
"63 278 OFFCURVE",
"63 169 CURVE SMOOTH"
);
},
{
closed = 1;
nodes = (
"396 473 LINE",
"396 492 LINE",
"373 515 OFFCURVE",
"362 539 OFFCURVE",
"362 566 CURVE SMOOTH",
"362 629 OFFCURVE",
"411 669 OFFCURVE",
"523 744 CURVE",
"754 903 OFFCURVE",
"852 998 OFFCURVE",
"852 1164 CURVE SMOOTH",
"852 1361 OFFCURVE",
"679 1488 OFFCURVE",
"447 1488 CURVE SMOOTH",
"343 1488 OFFCURVE",
"257 1466 OFFCURVE",
"132 1386 CURVE",
"115 1315 OFFCURVE",
"89 1233 OFFCURVE",
"50 1134 CURVE",
"62 1106 LINE",
"156 1092 LINE",
"203 1110 LINE",
"234 1187 OFFCURVE",
"260 1237 OFFCURVE",
"281 1252 CURVE SMOOTH",
"308 1271 OFFCURVE",
"340 1280 OFFCURVE",
"371 1280 CURVE SMOOTH",
"451 1280 OFFCURVE",
"507 1228 OFFCURVE",
"507 1151 CURVE SMOOTH",
"507 1104 OFFCURVE",
"497 1063 OFFCURVE",
"474 1027 CURVE SMOOTH",
"446 982 OFFCURVE",
"398 925 OFFCURVE",
"329 854 CURVE SMOOTH",
"262 786 OFFCURVE",
"221 737 OFFCURVE",
"206 704 CURVE",
"206 706 LINE",
"187 667 OFFCURVE",
"177 634 OFFCURVE",
"177 605 CURVE SMOOTH",
"177 554 OFFCURVE",
"199 504 OFFCURVE",
"279 430 CURVE",
"342 430 LINE"
);
}
);
vertWidth = 0;
width = 902;
}
);
note = "";
unicode = E032;
},
{
glyphname = facebook;
layers = (
{
layerId = "4E2DFB36-A0B4-46BB-956A-EE2289348F3B";
paths = (
{
closed = 1;
nodes = (
"206 821 LINE",
"206 0 LINE",
"507 0 LINE",
"507 821 LINE",
"727 821 LINE",
"747 1032 LINE",
"507 1032 LINE",
"507 1107 LINE SMOOTH",
"507 1215 OFFCURVE",
"537 1245 OFFCURVE",
"611 1245 CURVE SMOOTH",
"650 1245 OFFCURVE",
"696 1239 OFFCURVE",
"749 1226 CURVE",
"788 1423 LINE",
"706 1448 OFFCURVE",
"624 1461 OFFCURVE",
"543 1461 CURVE SMOOTH",
"375 1461 OFFCURVE",
"270 1392 OFFCURVE",
"235 1312 CURVE SMOOTH",
"215 1267 OFFCURVE",
"206 1200 OFFCURVE",
"206 1112 CURVE SMOOTH",
"206 1032 LINE",
"50 1032 LINE",
"50 821 LINE"
);
}
);
vertWidth = 0;
width = 838;
}
);
note = "";
unicode = E033;
},
{
glyphname = twitter;
layers = (
{
layerId = "4E2DFB36-A0B4-46BB-956A-EE2289348F3B";
paths = (
{
closed = 1;
nodes = (
"149 256 OFFCURVE",
"273 160 OFFCURVE",
"425 89 CURVE SMOOTH",
"572 21 OFFCURVE",
"707 0 OFFCURVE",
"846 0 CURVE SMOOTH",
"901 0 OFFCURVE",
"952 3 OFFCURVE",
"1008 8 CURVE SMOOTH",
"1213 25 OFFCURVE",
"1413 104 OFFCURVE",
"1598 269 CURVE",
"1737 395 OFFCURVE",
"1806 532 OFFCURVE",
"1838 670 CURVE",
"1863 670 LINE SMOOTH",
"1930 670 OFFCURVE",
"1996 677 OFFCURVE",
"2084 760 CURVE",
"2061 758 OFFCURVE",
"2038 757 OFFCURVE",
"2015 757 CURVE SMOOTH",
"1959 757 OFFCURVE",
"1908 763 OFFCURVE",
"1857 782 CURVE",
"1942 785 OFFCURVE",
"2022 817 OFFCURVE",
"2073 893 CURVE",
"2037 877 OFFCURVE",
"1990 872 OFFCURVE",
"1949 872 CURVE SMOOTH",
"1909 872 OFFCURVE",
"1869 878 OFFCURVE",
"1829 890 CURVE",
"1824 946 OFFCURVE",
"1803 998 OFFCURVE",
"1770 1050 CURVE SMOOTH",
"1673 1207 OFFCURVE",
"1551 1278 OFFCURVE",
"1399 1282 CURVE",
"1442 1295 OFFCURVE",
"1562 1314 OFFCURVE",
"1562 1361 CURVE SMOOTH",
"1562 1370 OFFCURVE",
"1555 1378 OFFCURVE",
"1539 1378 CURVE SMOOTH",
"1496 1378 OFFCURVE",
"1441 1355 OFFCURVE",
"1399 1339 CURVE SMOOTH",
"1442 1355 OFFCURVE",
"1462 1379 OFFCURVE",
"1470 1410 CURVE",
"1404 1410 OFFCURVE",
"1368 1369 OFFCURVE",
"1321 1343 CURVE",
"1332 1359 OFFCURVE",
"1338 1375 OFFCURVE",
"1338 1391 CURVE",
"1180 1296 OFFCURVE",
"1071 1023 OFFCURVE",
"1027 900 CURVE",
"925 1000 OFFCURVE",
"741 1106 OFFCURVE",
"349 1255 CURVE",
"348 1247 OFFCURVE",
"347 1240 OFFCURVE",
"347 1232 CURVE SMOOTH",
"347 1150 OFFCURVE",
"407 1052 OFFCURVE",
"515 997 CURVE",
"507 998 OFFCURVE",
"499 998 OFFCURVE",
"491 998 CURVE SMOOTH",
"456 998 OFFCURVE",
"425 991 OFFCURVE",
"394 980 CURVE",
"402 946 OFFCURVE",
"404 916 OFFCURVE",
"449 873 CURVE",
"494 828 OFFCURVE",
"555 797 OFFCURVE",
"626 774 CURVE",
"615 775 OFFCURVE",
"605 776 OFFCURVE",
"596 776 CURVE SMOOTH",
"541 776 OFFCURVE",
"514 751 OFFCURVE",
"487 724 CURVE",
"505 648 OFFCURVE",
"613 597 OFFCURVE",
"683 597 CURVE SMOOTH",
"698 597 OFFCURVE",
"712 598 OFFCURVE",
"728 601 CURVE",
"688 577 OFFCURVE",
"651 553 OFFCURVE",
"651 510 CURVE SMOOTH",
"651 462 OFFCURVE",
"710 422 OFFCURVE",
"766 422 CURVE SMOOTH",
"777 422 OFFCURVE",
"788 423 OFFCURVE",
"799 425 CURVE",
"675 303 OFFCURVE",
"536 259 OFFCURVE",
"412 259 CURVE SMOOTH",
"258 259 OFFCURVE",
"122 325 OFFCURVE",
"50 392 CURVE"
);
}
);
vertWidth = 0;
width = 2134;
}
);
note = "";
unicode = E034;
},
{
glyphname = download;
layers = (
{
layerId = "4E2DFB36-A0B4-46BB-956A-EE2289348F3B";
paths = (
{
closed = 1;
nodes = (
"446 583 LINE",
"50 583 LINE",
"742 100 LINE",
"1435 583 LINE",
"1039 583 LINE",
"1039 1027 LINE",
"446 1027 LINE"
);
},
{
closed = 1;
nodes = (
"446 1085 LINE",
"1039 1085 LINE",
"1039 1290 LINE",
"446 1290 LINE"
);
},
{
closed = 1;
nodes = (
"56 -85 LINE",
"1429 -85 LINE",
"1429 50 LINE",
"56 50 LINE"
);
},
{
closed = 1;
nodes = (
"446 1345 LINE",
"1039 1345 LINE",
"1039 1480 LINE",
"446 1480 LINE"
);
},
{
closed = 1;
nodes = (
"446 1535 LINE",
"1039 1535 LINE",
"1039 1590 LINE",
"446 1590 LINE"
);
}
);
vertWidth = 0;
width = 1485;
}
);
note = "";
unicode = E035;
},
{
glyphname = info_1;
layers = (
{
layerId = "4E2DFB36-A0B4-46BB-956A-EE2289348F3B";
paths = (
{
closed = 1;
nodes = (
"50 236 OFFCURVE",
"495 -208 OFFCURVE",
"1045 -208 CURVE SMOOTH",
"1594 -208 OFFCURVE",
"2040 237 OFFCURVE",
"2040 787 CURVE SMOOTH",
"2040 1336 OFFCURVE",
"1594 1782 OFFCURVE",
"1045 1782 CURVE SMOOTH",
"494 1782 OFFCURVE",
"50 1336 OFFCURVE",
"50 787 CURVE SMOOTH"
);
},
{
closed = 1;
nodes = (
"745 832 LINE",
"747 848 LINE",
"847 925 OFFCURVE",
"928 981 OFFCURVE",
"989 1017 CURVE SMOOTH",
"1046 1050 OFFCURVE",
"1094 1067 OFFCURVE",
"1133 1067 CURVE SMOOTH",
"1184 1067 OFFCURVE",
"1223 1033 OFFCURVE",
"1223 985 CURVE SMOOTH",
"1223 929 OFFCURVE",
"1215 905 OFFCURVE",
"1156 685 CURVE SMOOTH",
"1111 517 OFFCURVE",
"1088 418 OFFCURVE",
"1087 388 CURVE",
"1106 400 OFFCURVE",
"1137 422 OFFCURVE",
"1182 454 CURVE",
"1237 453 LINE",
"1267 401 LINE",
"1261 386 LINE",
"1183 332 OFFCURVE",
"1047 235 OFFCURVE",
"991 214 CURVE SMOOTH",
"968 205 OFFCURVE",
"943 200 OFFCURVE",
"917 200 CURVE SMOOTH",
"849 200 OFFCURVE",
"815 243 OFFCURVE",
"815 304 CURVE SMOOTH",
"815 358 OFFCURVE",
"821 398 OFFCURVE",
"866 558 CURVE",
"905 706 OFFCURVE",
"928 812 OFFCURVE",
"931 851 CURVE",
"910 839 OFFCURVE",
"876 815 OFFCURVE",
"828 782 CURVE",
"772 785 LINE"
);
},
{
closed = 1;
nodes = (
"1016 1374 OFFCURVE",
"1080 1437 OFFCURVE",
"1168 1437 CURVE SMOOTH",
"1251 1437 OFFCURVE",
"1299 1393 OFFCURVE",
"1299 1325 CURVE SMOOTH",
"1299 1263 OFFCURVE",
"1259 1176 OFFCURVE",
"1148 1176 CURVE SMOOTH",
"1055 1176 OFFCURVE",
"1016 1226 OFFCURVE",
"1016 1295 CURVE SMOOTH"
);
}
);
vertWidth = 0;
width = 2090;
}
);
note = "";
unicode = E041;
},
{
glyphname = help_1;
layers = (
{
layerId = "4E2DFB36-A0B4-46BB-956A-EE2289348F3B";
paths = (
{
closed = 1;
nodes = (
"50 238 OFFCURVE",
"495 -206 OFFCURVE",
"1045 -206 CURVE SMOOTH",
"1594 -206 OFFCURVE",
"2040 239 OFFCURVE",
"2040 789 CURVE SMOOTH",
"2040 1338 OFFCURVE",
"1594 1784 OFFCURVE",
"1045 1784 CURVE SMOOTH",
"494 1784 OFFCURVE",
"50 1338 OFFCURVE",
"50 789 CURVE SMOOTH"
);
},
{
closed = 1;
nodes = (
"773 340 OFFCURVE",
"833 413 OFFCURVE",
"933 413 CURVE SMOOTH",
"1020 413 OFFCURVE",
"1071 366 OFFCURVE",
"1071 293 CURVE SMOOTH",
"1071 225 OFFCURVE",
"1025 129 OFFCURVE",
"910 129 CURVE SMOOTH",
"819 129 OFFCURVE",
"773 169 OFFCURVE",
"773 249 CURVE SMOOTH"
);
},
{
closed = 1;
nodes = (
"886 530 OFFCURVE",
"868 569 OFFCURVE",
"868 612 CURVE SMOOTH",
"868 636 OFFCURVE",
"877 664 OFFCURVE",
"892 696 CURVE",
"892 695 LINE",
"912 739 OFFCURVE",
"1078 903 OFFCURVE",
"1115 964 CURVE SMOOTH",
"1134 995 OFFCURVE",
"1143 1030 OFFCURVE",
"1143 1067 CURVE SMOOTH",
"1143 1131 OFFCURVE",
"1097 1175 OFFCURVE",
"1029 1175 CURVE SMOOTH",
"1004 1175 OFFCURVE",
"977 1166 OFFCURVE",
"954 1151 CURVE SMOOTH",
"937 1139 OFFCURVE",
"914 1097 OFFCURVE",
"889 1033 CURVE",
"850 1018 LINE",
"772 1030 LINE",
"762 1053 LINE",
"794 1136 OFFCURVE",
"815 1204 OFFCURVE",
"830 1263 CURVE",
"933 1329 OFFCURVE",
"1008 1348 OFFCURVE",
"1093 1348 CURVE SMOOTH",
"1287 1348 OFFCURVE",
"1430 1242 OFFCURVE",
"1430 1078 CURVE SMOOTH",
"1430 939 OFFCURVE",
"1349 862 OFFCURVE",
"1156 728 CURVE SMOOTH",
"1064 665 OFFCURVE",
"1022 632 OFFCURVE",
"1022 580 CURVE SMOOTH",
"1022 557 OFFCURVE",
"1031 537 OFFCURVE",
"1050 518 CURVE",
"1050 502 LINE",
"1005 466 LINE",
"953 466 LINE"
);
}
);
vertWidth = 0;
width = 2090;
}
);
note = "";
unicode = E042;
},
{
glyphname = facebook_1;
layers = (
{
layerId = "4E2DFB36-A0B4-46BB-956A-EE2289348F3B";
paths = (
{
closed = 1;
nodes = (
"844 1052 LINE",
"844 1132 LINE SMOOTH",
"844 1305 OFFCURVE",
"867 1378 OFFCURVE",
"982 1439 CURVE SMOOTH",
"1033 1467 OFFCURVE",
"1099 1481 OFFCURVE",
"1181 1481 CURVE SMOOTH",
"1262 1481 OFFCURVE",
"1344 1468 OFFCURVE",
"1426 1443 CURVE",
"1387 1246 LINE",
"1334 1259 OFFCURVE",
"1288 1265 OFFCURVE",
"1249 1265 CURVE SMOOTH",
"1175 1265 OFFCURVE",
"1145 1235 OFFCURVE",
"1145 1127 CURVE SMOOTH",
"1145 1052 LINE",
"1385 1052 LINE",
"1365 841 LINE",
"1145 841 LINE",
"1145 20 LINE",
"844 20 LINE",
"844 841 LINE",
"688 841 LINE",
"688 1052 LINE"
);
},
{
closed = 1;
nodes = (
"50 238 OFFCURVE",
"495 -206 OFFCURVE",
"1045 -206 CURVE SMOOTH",
"1594 -206 OFFCURVE",
"2040 239 OFFCURVE",
"2040 789 CURVE SMOOTH",
"2040 1338 OFFCURVE",
"1594 1784 OFFCURVE",
"1045 1784 CURVE SMOOTH",
"494 1784 OFFCURVE",
"50 1338 OFFCURVE",
"50 789 CURVE SMOOTH"
);
}
);
vertWidth = 0;
width = 2090;
}
);
note = "";
unicode = E043;
},
{
glyphname = twitter_1;
layers = (
{
layerId = "4E2DFB36-A0B4-46BB-956A-EE2289348F3B";
paths = (
{
closed = 1;
nodes = (
"50 238 OFFCURVE",
"494 -206 OFFCURVE",
"1045 -206 CURVE SMOOTH",
"1594 -206 OFFCURVE",
"2040 238 OFFCURVE",
"2040 789 CURVE SMOOTH",
"2040 1338 OFFCURVE",
"1594 1784 OFFCURVE",
"1045 1784 CURVE SMOOTH",
"494 1784 OFFCURVE",
"50 1338 OFFCURVE",
"50 789 CURVE SMOOTH"
);
},
{
closed = 1;
nodes = (
"353 482 OFFCURVE",
"450 436 OFFCURVE",
"560 436 CURVE SMOOTH",
"649 436 OFFCURVE",
"747 466 OFFCURVE",
"836 553 CURVE",
"790 542 OFFCURVE",
"730 573 OFFCURVE",
"730 615 CURVE SMOOTH",
"730 644 OFFCURVE",
"756 661 OFFCURVE",
"785 678 CURVE",
"725 662 OFFCURVE",
"630 704 OFFCURVE",
"614 766 CURVE",
"633 791 OFFCURVE",
"672 812 OFFCURVE",
"713 802 CURVE",
"639 822 OFFCURVE",
"556 876 OFFCURVE",
"547 949 CURVE",
"575 959 OFFCURVE",
"604 964 OFFCURVE",
"634 961 CURVE",
"552 1005 OFFCURVE",
"508 1076 OFFCURVE",
"515 1144 CURVE",
"795 1040 OFFCURVE",
"926 964 OFFCURVE",
"998 892 CURVE",
"1030 979 OFFCURVE",
"1108 1174 OFFCURVE",
"1220 1241 CURVE",
"1220 1230 OFFCURVE",
"1216 1218 OFFCURVE",
"1207 1207 CURVE",
"1241 1226 OFFCURVE",
"1266 1256 OFFCURVE",
"1314 1256 CURVE",
"1309 1235 OFFCURVE",
"1294 1218 OFFCURVE",
"1271 1207 CURVE",
"1285 1216 OFFCURVE",
"1379 1250 OFFCURVE",
"1379 1221 CURVE SMOOTH",
"1379 1187 OFFCURVE",
"1295 1174 OFFCURVE",
"1264 1164 CURVE",
"1372 1161 OFFCURVE",
"1459 1112 OFFCURVE",
"1528 999 CURVE SMOOTH",
"1551 962 OFFCURVE",
"1566 925 OFFCURVE",
"1569 885 CURVE",
"1624 869 OFFCURVE",
"1688 865 OFFCURVE",
"1743 887 CURVE",
"1710 831 OFFCURVE",
"1649 808 OFFCURVE",
"1589 808 CURVE",
"1640 787 OFFCURVE",
"1697 789 OFFCURVE",
"1752 792 CURVE",
"1692 734 OFFCURVE",
"1643 728 OFFCURVE",
"1576 728 CURVE",
"1552 628 OFFCURVE",
"1505 533 OFFCURVE",
"1405 442 CURVE SMOOTH",
"1237 290 OFFCURVE",
"1070 250 OFFCURVE",
"871 250 CURVE",
"771 249 OFFCURVE",
"674 265 OFFCURVE",
"569 314 CURVE SMOOTH",
"462 363 OFFCURVE",
"373 435 OFFCURVE",
"302 530 CURVE"
);
}
);
vertWidth = 0;
width = 2090;
}
);
note = "";
unicode = E044;
},
{
glyphname = download_1;
layers = (
{
layerId = "4E2DFB36-A0B4-46BB-956A-EE2289348F3B";
paths = (
{
closed = 1;
nodes = (
"1281 666 LINE",
"1597 666 LINE",
"1043 279 LINE",
"489 666 LINE",
"806 666 LINE",
"806 1021 LINE",
"1281 1021 LINE"
);
},
{
closed = 1;
nodes = (
"1281 1067 LINE",
"806 1067 LINE",
"806 1231 LINE",
"1281 1231 LINE"
);
},
{
closed = 1;
nodes = (
"1593 131 LINE",
"494 131 LINE",
"494 239 LINE",
"1593 239 LINE"
);
},
{
closed = 1;
nodes = (
"1281 1275 LINE",
"806 1275 LINE",
"806 1383 LINE",
"1281 1383 LINE"
);
},
{
closed = 1;
nodes = (
"1281 1427 LINE",
"806 1427 LINE",
"806 1471 LINE",
"1281 1471 LINE"
);
},
{
closed = 1;
nodes = (
"50 237 OFFCURVE",
"495 -207 OFFCURVE",
"1045 -207 CURVE SMOOTH",
"1594 -207 OFFCURVE",
"2040 238 OFFCURVE",
"2040 788 CURVE SMOOTH",
"2040 1337 OFFCURVE",
"1594 1783 OFFCURVE",
"1045 1783 CURVE SMOOTH",
"494 1783 OFFCURVE",
"50 1337 OFFCURVE",
"50 788 CURVE SMOOTH"
);
}
);
vertWidth = 0;
width = 2090;
}
);
note = "";
unicode = E045;
},
{
glyphname = info_2;
layers = (
{
layerId = "4E2DFB36-A0B4-46BB-956A-EE2289348F3B";
paths = (
{
closed = 1;
nodes = (
"249 1228 OFFCURVE",
"606 1585 OFFCURVE",
"1045 1585 CURVE SMOOTH",
"1484 1585 OFFCURVE",
"1841 1228 OFFCURVE",
"1841 789 CURVE SMOOTH",
"1841 350 OFFCURVE",
"1484 -7 OFFCURVE",
"1045 -7 CURVE SMOOTH",
"606 -7 OFFCURVE",
"249 350 OFFCURVE",
"249 789 CURVE SMOOTH"
);
},
{
closed = 1;
nodes = (
"50 238 OFFCURVE",
"495 -206 OFFCURVE",
"1045 -206 CURVE SMOOTH",
"1594 -206 OFFCURVE",
"2040 239 OFFCURVE",
"2040 789 CURVE SMOOTH",
"2040 1338 OFFCURVE",
"1594 1784 OFFCURVE",
"1045 1784 CURVE SMOOTH",
"494 1784 OFFCURVE",
"50 1338 OFFCURVE",
"50 789 CURVE SMOOTH"
);
},
{
closed = 1;
nodes = (
"880 815 OFFCURVE",
"914 839 OFFCURVE",
"935 851 CURVE",
"932 812 OFFCURVE",
"909 706 OFFCURVE",
"870 558 CURVE",
"825 398 OFFCURVE",
"819 358 OFFCURVE",
"819 304 CURVE SMOOTH",
"819 243 OFFCURVE",
"853 200 OFFCURVE",
"921 200 CURVE SMOOTH",
"976 200 OFFCURVE",
"1017 217 OFFCURVE",
"1114 281 CURVE",
"1165 316 OFFCURVE",
"1228 359 OFFCURVE",
"1265 386 CURVE",
"1271 401 LINE",
"1241 453 LINE",
"1186 454 LINE",
"1141 422 OFFCURVE",
"1110 400 OFFCURVE",
"1091 388 CURVE",
"1092 418 OFFCURVE",
"1115 517 OFFCURVE",
"1160 685 CURVE SMOOTH",
"1219 905 OFFCURVE",
"1227 929 OFFCURVE",
"1227 985 CURVE SMOOTH",
"1227 1033 OFFCURVE",
"1188 1067 OFFCURVE",
"1137 1067 CURVE SMOOTH",
"1098 1067 OFFCURVE",
"1050 1050 OFFCURVE",
"993 1017 CURVE SMOOTH",
"932 981 OFFCURVE",
"851 925 OFFCURVE",
"751 848 CURVE",
"749 832 LINE",
"776 785 LINE",
"832 782 LINE"
);
},
{
closed = 1;
nodes = (
"1020 1226 OFFCURVE",
"1059 1176 OFFCURVE",
"1152 1176 CURVE SMOOTH",
"1263 1176 OFFCURVE",
"1303 1263 OFFCURVE",
"1303 1325 CURVE SMOOTH",
"1303 1393 OFFCURVE",
"1255 1437 OFFCURVE",
"1172 1437 CURVE SMOOTH",
"1084 1437 OFFCURVE",
"1020 1374 OFFCURVE",
"1020 1295 CURVE SMOOTH"
);
}
);
vertWidth = 0;
width = 2090;
}
);
note = "";
unicode = E051;
},
{
glyphname = help_2;
layers = (
{
layerId = "4E2DFB36-A0B4-46BB-956A-EE2289348F3B";
paths = (
{
closed = 1;
nodes = (
"249 1152 OFFCURVE",
"606 1509 OFFCURVE",
"1045 1509 CURVE SMOOTH",
"1484 1509 OFFCURVE",
"1841 1152 OFFCURVE",
"1841 713 CURVE SMOOTH",
"1841 274 OFFCURVE",
"1484 -83 OFFCURVE",
"1045 -83 CURVE SMOOTH",
"606 -83 OFFCURVE",
"249 274 OFFCURVE",
"249 713 CURVE SMOOTH"
);
},
{
closed = 1;
nodes = (
"50 162 OFFCURVE",
"495 -282 OFFCURVE",
"1045 -282 CURVE SMOOTH",
"1594 -282 OFFCURVE",
"2040 163 OFFCURVE",
"2040 713 CURVE SMOOTH",
"2040 1262 OFFCURVE",
"1594 1708 OFFCURVE",
"1045 1708 CURVE SMOOTH",
"494 1708 OFFCURVE",
"50 1262 OFFCURVE",
"50 713 CURVE SMOOTH"
);
},
{
closed = 1;
nodes = (
"785 119 OFFCURVE",
"831 79 OFFCURVE",
"922 79 CURVE SMOOTH",
"1037 79 OFFCURVE",
"1083 175 OFFCURVE",
"1083 243 CURVE SMOOTH",
"1083 316 OFFCURVE",
"1032 363 OFFCURVE",
"945 363 CURVE SMOOTH",
"845 363 OFFCURVE",
"785 290 OFFCURVE",
"785 199 CURVE SMOOTH"
);
},
{
closed = 1;
nodes = (
"1062 452 LINE",
"1062 468 LINE",
"1043 487 OFFCURVE",
"1034 507 OFFCURVE",
"1034 530 CURVE SMOOTH",
"1034 582 OFFCURVE",
"1076 615 OFFCURVE",
"1168 678 CURVE SMOOTH",
"1361 809 OFFCURVE",
"1442 890 OFFCURVE",
"1442 1028 CURVE SMOOTH",
"1442 1192 OFFCURVE",
"1299 1298 OFFCURVE",
"1105 1298 CURVE SMOOTH",
"1020 1298 OFFCURVE",
"945 1279 OFFCURVE",
"842 1213 CURVE",
"827 1154 OFFCURVE",
"806 1086 OFFCURVE",
"774 1003 CURVE",
"784 980 LINE",
"862 968 LINE",
"901 983 LINE",
"926 1047 OFFCURVE",
"949 1090 OFFCURVE",
"966 1101 CURVE SMOOTH",
"989 1116 OFFCURVE",
"1016 1125 OFFCURVE",
"1041 1125 CURVE SMOOTH",
"1109 1125 OFFCURVE",
"1155 1081 OFFCURVE",
"1155 1017 CURVE SMOOTH",
"1155 931 OFFCURVE",
"1113 877 OFFCURVE",
"1006 770 CURVE SMOOTH",
"950 714 OFFCURVE",
"916 672 OFFCURVE",
"904 645 CURVE",
"904 646 LINE",
"889 614 OFFCURVE",
"880 586 OFFCURVE",
"880 562 CURVE SMOOTH",
"880 519 OFFCURVE",
"898 480 OFFCURVE",
"965 416 CURVE",
"1017 416 LINE"
);
}
);
vertWidth = 0;
width = 2090;
}
);
note = "";
unicode = E052;
},
{
glyphname = facebook_2;
layers = (
{
layerId = "4E2DFB36-A0B4-46BB-956A-EE2289348F3B";
paths = (
{
closed = 1;
nodes = (
"822 821 LINE",
"822 90 LINE",
"1123 90 LINE",
"1123 821 LINE",
"1343 821 LINE",
"1363 1032 LINE",
"1123 1032 LINE",
"1123 1107 LINE SMOOTH",
"1123 1215 OFFCURVE",
"1153 1245 OFFCURVE",
"1227 1245 CURVE SMOOTH",
"1266 1245 OFFCURVE",
"1312 1239 OFFCURVE",
"1365 1226 CURVE",
"1404 1423 LINE",
"1322 1448 OFFCURVE",
"1240 1461 OFFCURVE",
"1159 1461 CURVE SMOOTH",
"991 1461 OFFCURVE",
"886 1392 OFFCURVE",
"851 1312 CURVE SMOOTH",
"831 1267 OFFCURVE",
"822 1200 OFFCURVE",
"822 1112 CURVE SMOOTH",
"822 1032 LINE",
"666 1032 LINE",
"666 821 LINE"
);
},
{
closed = 1;
nodes = (
"249 1228 OFFCURVE",
"606 1585 OFFCURVE",
"1045 1585 CURVE SMOOTH",
"1484 1585 OFFCURVE",
"1841 1228 OFFCURVE",
"1841 789 CURVE SMOOTH",
"1841 350 OFFCURVE",
"1484 -7 OFFCURVE",
"1045 -7 CURVE SMOOTH",
"606 -7 OFFCURVE",
"249 350 OFFCURVE",
"249 789 CURVE SMOOTH"
);
},
{
closed = 1;
nodes = (
"50 238 OFFCURVE",
"495 -206 OFFCURVE",
"1045 -206 CURVE SMOOTH",
"1594 -206 OFFCURVE",
"2040 239 OFFCURVE",
"2040 789 CURVE SMOOTH",
"2040 1338 OFFCURVE",
"1594 1784 OFFCURVE",
"1045 1784 CURVE SMOOTH",
"494 1784 OFFCURVE",
"50 1338 OFFCURVE",
"50 789 CURVE SMOOTH"
);
}
);
vertWidth = 0;
width = 2090;
}
);
note = "";
unicode = E053;
},
{
glyphname = twitter_2;
layers = (
{
layerId = "4E2DFB36-A0B4-46BB-956A-EE2289348F3B";
paths = (
{
closed = 1;
nodes = (
"50 240 OFFCURVE",
"494 -204 OFFCURVE",
"1045 -204 CURVE SMOOTH",
"1594 -204 OFFCURVE",
"2040 240 OFFCURVE",
"2040 791 CURVE SMOOTH",
"2040 1340 OFFCURVE",
"1594 1786 OFFCURVE",
"1045 1786 CURVE SMOOTH",
"494 1786 OFFCURVE",
"50 1340 OFFCURVE",
"50 791 CURVE SMOOTH"
);
},
{
closed = 1;
nodes = (
"249 1230 OFFCURVE",
"606 1587 OFFCURVE",
"1045 1587 CURVE SMOOTH",
"1484 1587 OFFCURVE",
"1841 1230 OFFCURVE",
"1841 791 CURVE SMOOTH",
"1841 352 OFFCURVE",
"1484 -5 OFFCURVE",
"1045 -5 CURVE SMOOTH",
"606 -5 OFFCURVE",
"249 352 OFFCURVE",
"249 791 CURVE SMOOTH"
);
},
{
closed = 1;
nodes = (
"409 465 OFFCURVE",
"498 393 OFFCURVE",
"605 344 CURVE SMOOTH",
"710 296 OFFCURVE",
"807 280 OFFCURVE",
"907 280 CURVE SMOOTH",
"920 280 OFFCURVE",
"1008 286 OFFCURVE",
"1021 286 CURVE",
"1168 298 OFFCURVE",
"1308 352 OFFCURVE",
"1441 472 CURVE",
"1541 564 OFFCURVE",
"1588 658 OFFCURVE",
"1612 758 CURVE",
"1633 758 LINE SMOOTH",
"1679 758 OFFCURVE",
"1728 764 OFFCURVE",
"1788 822 CURVE",
"1771 821 OFFCURVE",
"1755 820 OFFCURVE",
"1739 820 CURVE SMOOTH",
"1699 820 OFFCURVE",
"1661 823 OFFCURVE",
"1625 838 CURVE",
"1685 838 OFFCURVE",
"1746 861 OFFCURVE",
"1779 917 CURVE",
"1752 905 OFFCURVE",
"1722 902 OFFCURVE",
"1694 902 CURVE SMOOTH",
"1663 902 OFFCURVE",
"1633 906 OFFCURVE",
"1605 915 CURVE",
"1602 955 OFFCURVE",
"1587 992 OFFCURVE",
"1564 1029 CURVE SMOOTH",
"1495 1142 OFFCURVE",
"1408 1191 OFFCURVE",
"1300 1194 CURVE",
"1331 1204 OFFCURVE",
"1415 1217 OFFCURVE",
"1415 1251 CURVE SMOOTH",
"1415 1259 OFFCURVE",
"1410 1263 OFFCURVE",
"1399 1263 CURVE SMOOTH",
"1372 1263 OFFCURVE",
"1336 1248 OFFCURVE",
"1308 1237 CURVE",
"1331 1248 OFFCURVE",
"1345 1264 OFFCURVE",
"1350 1286 CURVE",
"1302 1286 OFFCURVE",
"1277 1256 OFFCURVE",
"1243 1237 CURVE",
"1252 1248 OFFCURVE",
"1256 1259 OFFCURVE",
"1256 1268 CURVE SMOOTH",
"1256 1271 LINE",
"1144 1204 OFFCURVE",
"1066 1009 OFFCURVE",
"1034 922 CURVE",
"962 994 OFFCURVE",
"831 1070 OFFCURVE",
"551 1174 CURVE",
"550 1172 OFFCURVE",
"550 1167 OFFCURVE",
"550 1159 CURVE SMOOTH",
"550 1099 OFFCURVE",
"593 1031 OFFCURVE",
"670 991 CURVE",
"663 991 OFFCURVE",
"659 992 OFFCURVE",
"652 992 CURVE SMOOTH",
"628 992 OFFCURVE",
"606 987 OFFCURVE",
"583 979 CURVE",
"588 954 OFFCURVE",
"591 934 OFFCURVE",
"622 903 CURVE SMOOTH",
"654 870 OFFCURVE",
"698 848 OFFCURVE",
"749 832 CURVE",
"741 833 OFFCURVE",
"734 834 OFFCURVE",
"727 834 CURVE SMOOTH",
"688 834 OFFCURVE",
"669 815 OFFCURVE",
"650 796 CURVE",
"660 744 OFFCURVE",
"739 705 OFFCURVE",
"789 705 CURVE SMOOTH",
"798 705 OFFCURVE",
"809 706 OFFCURVE",
"821 708 CURVE",
"792 691 OFFCURVE",
"766 674 OFFCURVE",
"766 645 CURVE SMOOTH",
"766 610 OFFCURVE",
"807 581 OFFCURVE",
"850 581 CURVE SMOOTH",
"857 581 OFFCURVE",
"864 582 OFFCURVE",
"872 583 CURVE",
"783 496 OFFCURVE",
"685 466 OFFCURVE",
"596 466 CURVE SMOOTH",
"486 466 OFFCURVE",
"389 512 OFFCURVE",
"338 560 CURVE"
);
}
);
vertWidth = 0;
width = 2090;
}
);
note = "";
unicode = E054;
},
{
glyphname = download_2;
layers = (
{
layerId = "4E2DFB36-A0B4-46BB-956A-EE2289348F3B";
paths = (
{
closed = 1;
nodes = (
"813 697 LINE",
"516 697 LINE",
"1035 335 LINE",
"1555 697 LINE",
"1258 697 LINE",
"1258 1030 LINE",
"813 1030 LINE"
);
},
{
closed = 1;
nodes = (
"813 1074 LINE",
"1258 1074 LINE",
"1258 1227 LINE",
"813 1227 LINE"
);
},
{
closed = 1;
nodes = (
"560 196 LINE",
"1510 196 LINE",
"1510 297 LINE",
"560 297 LINE"
);
},
{
closed = 1;
nodes = (
"813 1269 LINE",
"1258 1269 LINE",
"1258 1370 LINE",
"813 1370 LINE"
);
},
{
closed = 1;
nodes = (
"813 1411 LINE",
"1258 1411 LINE",
"1258 1452 LINE",
"813 1452 LINE"
);
},
{
closed = 1;
nodes = (
"249 1224 OFFCURVE",
"606 1581 OFFCURVE",
"1045 1581 CURVE SMOOTH",
"1484 1581 OFFCURVE",
"1841 1224 OFFCURVE",
"1841 785 CURVE SMOOTH",
"1841 346 OFFCURVE",
"1484 -11 OFFCURVE",
"1045 -11 CURVE SMOOTH",
"606 -11 OFFCURVE",
"249 346 OFFCURVE",
"249 785 CURVE SMOOTH"
);
},
{
closed = 1;
nodes = (
"50 234 OFFCURVE",
"495 -210 OFFCURVE",
"1045 -210 CURVE SMOOTH",
"1594 -210 OFFCURVE",
"2040 235 OFFCURVE",
"2040 785 CURVE SMOOTH",
"2040 1334 OFFCURVE",
"1594 1780 OFFCURVE",
"1045 1780 CURVE SMOOTH",
"494 1780 OFFCURVE",
"50 1334 OFFCURVE",
"50 785 CURVE SMOOTH"
);
}
);
vertWidth = 0;
width = 2090;
}
);
note = "";
unicode = E055;
},
{
glyphname = left_alt;
layers = (
{
layerId = "4E2DFB36-A0B4-46BB-956A-EE2289348F3B";
paths = (
{
closed = 1;
nodes = (
"1193 1060 OFFCURVE",
"1204 1082 OFFCURVE",
"1215 1114 CURVE",
"1230 1086 OFFCURVE",
"1236 1058 OFFCURVE",
"1243 1033 CURVE",
"1366 698 LINE",
"1062 698 LINE",
"1184 1033 LINE"
);
},
{
closed = 1;
nodes = (
"1883 1323 OFFCURVE",
"1874 1332 OFFCURVE",
"1863 1332 CURVE SMOOTH",
"1770 1332 LINE SMOOTH",
"1759 1332 OFFCURVE",
"1750 1323 OFFCURVE",
"1750 1312 CURVE SMOOTH",
"1750 258 LINE SMOOTH",
"1750 247 OFFCURVE",
"1759 238 OFFCURVE",
"1770 238 CURVE SMOOTH",
"1863 238 LINE SMOOTH",
"1874 238 OFFCURVE",
"1883 247 OFFCURVE",
"1883 258 CURVE SMOOTH",
"1883 1312 LINE"
);
},
{
closed = 1;
nodes = (
"2386 308 OFFCURVE",
"2377 338 OFFCURVE",
"2368 373 CURVE SMOOTH",
"2366 383 OFFCURVE",
"2360 388 OFFCURVE",
"2349 388 CURVE SMOOTH",
"2346 388 OFFCURVE",
"2344 388 OFFCURVE",
"2343 387 CURVE",
"2314 379 OFFCURVE",
"2295 374 OFFCURVE",
"2270 374 CURVE SMOOTH",
"2237 374 OFFCURVE",
"2217 389 OFFCURVE",
"2217 420 CURVE SMOOTH",
"2217 927 LINE",
"2343 927 LINE SMOOTH",
"2354 927 OFFCURVE",
"2363 936 OFFCURVE",
"2363 947 CURVE SMOOTH",
"2363 1039 LINE SMOOTH",
"2363 1050 OFFCURVE",
"2354 1059 OFFCURVE",
"2343 1059 CURVE SMOOTH",
"2217 1059 LINE",
"2217 1239 LINE SMOOTH",
"2217 1250 OFFCURVE",
"2208 1259 OFFCURVE",
"2197 1259 CURVE SMOOTH",
"2104 1259 LINE SMOOTH",
"2093 1259 OFFCURVE",
"2084 1250 OFFCURVE",
"2084 1239 CURVE SMOOTH",
"2084 1059 LINE",
"2000 1059 LINE SMOOTH",
"1989 1059 OFFCURVE",
"1980 1050 OFFCURVE",
"1980 1039 CURVE SMOOTH",
"1980 947 LINE SMOOTH",
"1980 936 OFFCURVE",
"1989 927 OFFCURVE",
"2000 927 CURVE SMOOTH",
"2084 927 LINE",
"2084 409 LINE SMOOTH",
"2084 295 OFFCURVE",
"2143 238 OFFCURVE",
"2261 238 CURVE SMOOTH",
"2293 238 OFFCURVE",
"2324 243 OFFCURVE",
"2355 250 CURVE SMOOTH",
"2381 255 LINE",
"2396 283 LINE"
);
},
{
closed = 1;
nodes = (
"880 238 OFFCURVE",
"889 244 OFFCURVE",
"892 251 CURVE SMOOTH",
"1010 563 LINE",
"1418 563 LINE",
"1536 251 LINE SMOOTH",
"1539 244 OFFCURVE",
"1548 238 OFFCURVE",
"1555 238 CURVE SMOOTH",
"1689 238 LINE SMOOTH",
"1702 238 OFFCURVE",
"1709 244 OFFCURVE",
"1709 257 CURVE SMOOTH",
"1709 260 OFFCURVE",
"1708 263 OFFCURVE",
"1707 264 CURVE SMOOTH",
"1309 1319 LINE SMOOTH",
"1306 1326 OFFCURVE",
"1297 1332 OFFCURVE",
"1290 1332 CURVE SMOOTH",
"1138 1332 LINE SMOOTH",
"1131 1332 OFFCURVE",
"1122 1326 OFFCURVE",
"1119 1319 CURVE SMOOTH",
"721 265 LINE SMOOTH",
"720 263 OFFCURVE",
"720 260 OFFCURVE",
"720 257 CURVE SMOOTH",
"720 244 OFFCURVE",
"727 238 OFFCURVE",
"740 238 CURVE SMOOTH",
"873 238 LINE"
);
},
{
closed = 1;
nodes = (
"215 373 LINE",
"215 1332 LINE",
"50 1332 LINE",
"50 238 LINE",
"676 238 LINE",
"676 373 LINE"
);
}
);
vertWidth = 0;
width = 2446;
}
);
note = "";
unicode = E056;
},
{
glyphname = right_alt;
layers = (
{
layerId = "4E2DFB36-A0B4-46BB-956A-EE2289348F3B";
paths = (
{
closed = 1;
nodes = (
"1323 1060 OFFCURVE",
"1334 1082 OFFCURVE",
"1345 1114 CURVE",
"1360 1086 OFFCURVE",
"1366 1058 OFFCURVE",
"1373 1033 CURVE",
"1496 698 LINE",
"1192 698 LINE",
"1314 1033 LINE"
);
},
{
closed = 1;
nodes = (
"2013 1323 OFFCURVE",
"2004 1332 OFFCURVE",
"1993 1332 CURVE SMOOTH",
"1900 1332 LINE SMOOTH",
"1889 1332 OFFCURVE",
"1880 1323 OFFCURVE",
"1880 1312 CURVE SMOOTH",
"1880 258 LINE SMOOTH",
"1880 247 OFFCURVE",
"1889 238 OFFCURVE",
"1900 238 CURVE SMOOTH",
"1993 238 LINE SMOOTH",
"2004 238 OFFCURVE",
"2013 247 OFFCURVE",
"2013 258 CURVE SMOOTH",
"2013 1312 LINE"
);
},
{
closed = 1;
nodes = (
"2516 308 OFFCURVE",
"2507 338 OFFCURVE",
"2498 373 CURVE SMOOTH",
"2496 383 OFFCURVE",
"2490 388 OFFCURVE",
"2479 388 CURVE SMOOTH",
"2476 388 OFFCURVE",
"2474 388 OFFCURVE",
"2473 387 CURVE",
"2444 379 OFFCURVE",
"2425 374 OFFCURVE",
"2400 374 CURVE SMOOTH",
"2367 374 OFFCURVE",
"2347 389 OFFCURVE",
"2347 420 CURVE SMOOTH",
"2347 927 LINE",
"2473 927 LINE SMOOTH",
"2484 927 OFFCURVE",
"2493 936 OFFCURVE",
"2493 947 CURVE SMOOTH",
"2493 1039 LINE SMOOTH",
"2493 1050 OFFCURVE",
"2484 1059 OFFCURVE",
"2473 1059 CURVE SMOOTH",
"2347 1059 LINE",
"2347 1239 LINE SMOOTH",
"2347 1250 OFFCURVE",
"2338 1259 OFFCURVE",
"2327 1259 CURVE SMOOTH",
"2234 1259 LINE SMOOTH",
"2223 1259 OFFCURVE",
"2214 1250 OFFCURVE",
"2214 1239 CURVE SMOOTH",
"2214 1059 LINE",
"2130 1059 LINE SMOOTH",
"2119 1059 OFFCURVE",
"2110 1050 OFFCURVE",
"2110 1039 CURVE SMOOTH",
"2110 947 LINE SMOOTH",
"2110 936 OFFCURVE",
"2119 927 OFFCURVE",
"2130 927 CURVE SMOOTH",
"2214 927 LINE",
"2214 409 LINE SMOOTH",
"2214 295 OFFCURVE",
"2273 238 OFFCURVE",
"2391 238 CURVE SMOOTH",
"2423 238 OFFCURVE",
"2454 243 OFFCURVE",
"2485 250 CURVE SMOOTH",
"2511 255 LINE",
"2526 283 LINE"
);
},
{
closed = 1;
nodes = (
"1010 238 OFFCURVE",
"1019 244 OFFCURVE",
"1022 251 CURVE SMOOTH",
"1140 563 LINE",
"1548 563 LINE",
"1666 251 LINE SMOOTH",
"1669 244 OFFCURVE",
"1678 238 OFFCURVE",
"1685 238 CURVE SMOOTH",
"1819 238 LINE SMOOTH",
"1832 238 OFFCURVE",
"1839 244 OFFCURVE",
"1839 257 CURVE SMOOTH",
"1839 260 OFFCURVE",
"1838 263 OFFCURVE",
"1837 264 CURVE SMOOTH",
"1439 1319 LINE SMOOTH",
"1436 1326 OFFCURVE",
"1427 1332 OFFCURVE",
"1420 1332 CURVE SMOOTH",
"1268 1332 LINE SMOOTH",
"1261 1332 OFFCURVE",
"1252 1326 OFFCURVE",
"1249 1319 CURVE SMOOTH",
"851 265 LINE SMOOTH",
"850 263 OFFCURVE",
"850 260 OFFCURVE",
"850 257 CURVE SMOOTH",
"850 244 OFFCURVE",
"857 238 OFFCURVE",
"870 238 CURVE SMOOTH",
"1003 238 LINE"
);
},
{
closed = 1;
nodes = (
"825 280 OFFCURVE",
"799 335 OFFCURVE",
"740 458 CURVE SMOOTH",
"673 598 OFFCURVE",
"645 646 OFFCURVE",
"611 678 CURVE SMOOTH",
"587 700 OFFCURVE",
"555 735 OFFCURVE",
"555 738 CURVE SMOOTH",
"555 747 OFFCURVE",
"587 753 OFFCURVE",
"645 774 CURVE SMOOTH",
"751 812 OFFCURVE",
"796 906 OFFCURVE",
"796 1041 CURVE SMOOTH",
"796 1225 OFFCURVE",
"667 1332 OFFCURVE",
"484 1332 CURVE SMOOTH",
"50 1332 LINE",
"50 238 LINE",
"215 238 LINE",
"215 727 LINE",
"302 727 LINE SMOOTH",
"363 727 OFFCURVE",
"417 704 OFFCURVE",
"486 578 CURVE SMOOTH",
"555 452 OFFCURVE",
"619 303 OFFCURVE",
"656 238 CURVE",
"846 238 LINE"
);
},
{
closed = 1;
nodes = (
"633 918 OFFCURVE",
"534 862 OFFCURVE",
"414 862 CURVE SMOOTH",
"215 862 LINE",
"215 1197 LINE",
"452 1197 LINE SMOOTH",
"578 1197 OFFCURVE",
"633 1137 OFFCURVE",
"633 1025 CURVE SMOOTH"
);
}
);
vertWidth = 0;
width = 2576;
}
);
note = "";
unicode = E057;
},
{
glyphname = shift_alt;
layers = (
{
layerId = "4E2DFB36-A0B4-46BB-956A-EE2289348F3B";
paths = (
{
closed = 1;
nodes = (
"1513 1060 OFFCURVE",
"1524 1082 OFFCURVE",
"1535 1114 CURVE",
"1550 1086 OFFCURVE",
"1556 1058 OFFCURVE",
"1563 1033 CURVE",
"1686 698 LINE",
"1382 698 LINE",
"1504 1033 LINE"
);
},
{
closed = 1;
nodes = (
"2203 1323 OFFCURVE",
"2194 1332 OFFCURVE",
"2183 1332 CURVE SMOOTH",
"2090 1332 LINE SMOOTH",
"2079 1332 OFFCURVE",
"2070 1323 OFFCURVE",
"2070 1312 CURVE SMOOTH",
"2070 258 LINE SMOOTH",
"2070 247 OFFCURVE",
"2079 238 OFFCURVE",
"2090 238 CURVE SMOOTH",
"2183 238 LINE SMOOTH",
"2194 238 OFFCURVE",
"2203 247 OFFCURVE",
"2203 258 CURVE SMOOTH",
"2203 1312 LINE"
);
},
{
closed = 1;
nodes = (
"2706 308 OFFCURVE",
"2697 338 OFFCURVE",
"2688 373 CURVE SMOOTH",
"2686 383 OFFCURVE",
"2680 388 OFFCURVE",
"2669 388 CURVE SMOOTH",
"2666 388 OFFCURVE",
"2664 388 OFFCURVE",
"2663 387 CURVE",
"2634 379 OFFCURVE",
"2615 374 OFFCURVE",
"2590 374 CURVE SMOOTH",
"2557 374 OFFCURVE",
"2537 389 OFFCURVE",
"2537 420 CURVE SMOOTH",
"2537 927 LINE",
"2663 927 LINE SMOOTH",
"2674 927 OFFCURVE",
"2683 936 OFFCURVE",
"2683 947 CURVE SMOOTH",
"2683 1039 LINE SMOOTH",
"2683 1050 OFFCURVE",
"2674 1059 OFFCURVE",
"2663 1059 CURVE SMOOTH",
"2537 1059 LINE",
"2537 1239 LINE SMOOTH",
"2537 1250 OFFCURVE",
"2528 1259 OFFCURVE",
"2517 1259 CURVE SMOOTH",
"2424 1259 LINE SMOOTH",
"2413 1259 OFFCURVE",
"2404 1250 OFFCURVE",
"2404 1239 CURVE SMOOTH",
"2404 1059 LINE",
"2320 1059 LINE SMOOTH",
"2309 1059 OFFCURVE",
"2300 1050 OFFCURVE",
"2300 1039 CURVE SMOOTH",
"2300 947 LINE SMOOTH",
"2300 936 OFFCURVE",
"2309 927 OFFCURVE",
"2320 927 CURVE SMOOTH",
"2404 927 LINE",
"2404 409 LINE SMOOTH",
"2404 295 OFFCURVE",
"2463 238 OFFCURVE",
"2581 238 CURVE SMOOTH",
"2613 238 OFFCURVE",
"2644 243 OFFCURVE",
"2675 250 CURVE SMOOTH",
"2701 255 LINE",
"2716 283 LINE"
);
},
{
closed = 1;
nodes = (
"1200 238 OFFCURVE",
"1209 244 OFFCURVE",
"1212 251 CURVE SMOOTH",
"1330 563 LINE",
"1738 563 LINE",
"1856 251 LINE SMOOTH",
"1859 244 OFFCURVE",
"1868 238 OFFCURVE",
"1875 238 CURVE SMOOTH",
"2009 238 LINE SMOOTH",
"2022 238 OFFCURVE",
"2029 244 OFFCURVE",
"2029 257 CURVE SMOOTH",
"2029 260 OFFCURVE",
"2028 263 OFFCURVE",
"2027 264 CURVE SMOOTH",
"1629 1319 LINE SMOOTH",
"1626 1326 OFFCURVE",
"1617 1332 OFFCURVE",
"1610 1332 CURVE SMOOTH",
"1458 1332 LINE SMOOTH",
"1451 1332 OFFCURVE",
"1442 1326 OFFCURVE",
"1439 1319 CURVE SMOOTH",
"1041 265 LINE SMOOTH",
"1040 263 OFFCURVE",
"1040 260 OFFCURVE",
"1040 257 CURVE SMOOTH",
"1040 244 OFFCURVE",
"1047 238 OFFCURVE",
"1060 238 CURVE SMOOTH",
"1193 238 LINE"
);
},
{
closed = 1;
nodes = (
"495 374 LINE",
"495 720 LINE",
"198 720 LINE",
"568 1170 LINE",
"586 1170 LINE",
"956 720 LINE",
"659 720 LINE",
"659 374 LINE"
);
},
{
closed = 1;
nodes = (
"632 1326 OFFCURVE",
"604 1340 OFFCURVE",
"577 1340 CURVE SMOOTH",
"549 1340 OFFCURVE",
"518 1328 OFFCURVE",
"493 1298 CURVE SMOOTH",
"86 810 LINE SMOOTH",
"66 786 OFFCURVE",
"50 751 OFFCURVE",
"50 708 CURVE SMOOTH",
"50 617 OFFCURVE",
"115 576 OFFCURVE",
"169 576 CURVE SMOOTH",
"377 576 LINE",
"377 382 LINE SMOOTH",
"377 302 OFFCURVE",
"430 237 OFFCURVE",
"496 237 CURVE SMOOTH",
"658 237 LINE SMOOTH",
"723 237 OFFCURVE",
"777 302 OFFCURVE",
"777 382 CURVE SMOOTH",
"777 575 LINE",
"984 575 LINE SMOOTH",
"1038 575 OFFCURVE",
"1103 615 OFFCURVE",
"1103 708 CURVE SMOOTH",
"1103 750 OFFCURVE",
"1089 785 OFFCURVE",
"1068 810 CURVE SMOOTH",
"661 1298 LINE"
);
}
);
vertWidth = 0;
width = 2766;
}
);
note = "";
unicode = E064;
},
{
glyphname = left_ctrl;
layers = (
{
layerId = "4E2DFB36-A0B4-46BB-956A-EE2289348F3B";
paths = (
{
closed = 1;
nodes = (
"2869 1320 OFFCURVE",
"2860 1329 OFFCURVE",
"2849 1329 CURVE SMOOTH",
"2756 1329 LINE SMOOTH",
"2745 1329 OFFCURVE",
"2736 1320 OFFCURVE",
"2736 1309 CURVE SMOOTH",
"2736 257 LINE SMOOTH",
"2736 246 OFFCURVE",
"2745 237 OFFCURVE",
"2756 237 CURVE SMOOTH",
"2849 237 LINE SMOOTH",
"2860 237 OFFCURVE",
"2869 246 OFFCURVE",
"2869 257 CURVE SMOOTH",
"2869 1309 LINE"
);
},
{
closed = 1;
nodes = (
"2615 1009 OFFCURVE",
"2558 1056 OFFCURVE",
"2483 1056 CURVE SMOOTH",
"2426 1056 OFFCURVE",
"2380 1035 OFFCURVE",
"2343 996 CURVE",
"2343 1021 LINE SMOOTH",
"2343 1032 OFFCURVE",
"2334 1041 OFFCURVE",
"2323 1041 CURVE SMOOTH",
"2225 1041 LINE SMOOTH",
"2214 1041 OFFCURVE",
"2205 1032 OFFCURVE",
"2205 1021 CURVE SMOOTH",
"2205 257 LINE SMOOTH",
"2205 246 OFFCURVE",
"2214 237 OFFCURVE",
"2225 237 CURVE SMOOTH",
"2318 237 LINE SMOOTH",
"2329 237 OFFCURVE",
"2338 246 OFFCURVE",
"2338 257 CURVE SMOOTH",
"2338 686 LINE SMOOTH",
"2338 766 OFFCURVE",
"2394 925 OFFCURVE",
"2478 925 CURVE SMOOTH",
"2506 925 OFFCURVE",
"2545 910 OFFCURVE",
"2572 890 CURVE",
"2590 890 OFFCURVE",
"2650 955 OFFCURVE",
"2656 972 CURVE",
"2644 998 LINE"
);
},
{
closed = 1;
nodes = (
"2096 303 OFFCURVE",
"2088 332 OFFCURVE",
"2079 371 CURVE SMOOTH",
"2076 382 OFFCURVE",
"2068 387 OFFCURVE",
"2059 387 CURVE SMOOTH",
"2056 387 OFFCURVE",
"2053 387 OFFCURVE",
"2052 386 CURVE SMOOTH",
"2023 375 OFFCURVE",
"2004 372 OFFCURVE",
"1980 372 CURVE SMOOTH",
"1945 372 OFFCURVE",
"1927 388 OFFCURVE",
"1927 419 CURVE SMOOTH",
"1927 924 LINE",
"2052 924 LINE SMOOTH",
"2063 924 OFFCURVE",
"2072 933 OFFCURVE",
"2072 944 CURVE SMOOTH",
"2072 1036 LINE SMOOTH",
"2072 1047 OFFCURVE",
"2063 1056 OFFCURVE",
"2052 1056 CURVE SMOOTH",
"1927 1056 LINE",
"1927 1237 LINE SMOOTH",
"1927 1248 OFFCURVE",
"1918 1257 OFFCURVE",
"1907 1257 CURVE SMOOTH",
"1814 1257 LINE SMOOTH",
"1803 1257 OFFCURVE",
"1794 1248 OFFCURVE",
"1794 1237 CURVE SMOOTH",
"1794 1056 LINE",
"1710 1056 LINE SMOOTH",
"1699 1056 OFFCURVE",
"1690 1047 OFFCURVE",
"1690 1036 CURVE SMOOTH",
"1690 944 LINE SMOOTH",
"1690 933 OFFCURVE",
"1699 924 OFFCURVE",
"1710 924 CURVE SMOOTH",
"1794 924 LINE",
"1794 408 LINE SMOOTH",
"1794 294 OFFCURVE",
"1853 237 OFFCURVE",
"1970 237 CURVE SMOOTH",
"2003 237 OFFCURVE",
"2032 242 OFFCURVE",
"2063 249 CURVE SMOOTH",
"2090 254 LINE",
"2105 282 LINE"
);
},
{
closed = 1;
nodes = (
"1603 1003 OFFCURVE",
"1608 1009 OFFCURVE",
"1608 1020 CURVE SMOOTH",
"1608 1023 OFFCURVE",
"1608 1025 OFFCURVE",
"1607 1026 CURVE",
"1548 1236 OFFCURVE",
"1411 1341 OFFCURVE",
"1197 1341 CURVE SMOOTH",
"1185 1341 LINE SMOOTH",
"852 1336 OFFCURVE",
"684 1152 OFFCURVE",
"680 791 CURVE SMOOTH",
"680 778 LINE SMOOTH",
"680 413 OFFCURVE",
"846 230 OFFCURVE",
"1178 229 CURVE SMOOTH",
"1181 229 LINE SMOOTH",
"1421 229 OFFCURVE",
"1561 345 OFFCURVE",
"1608 577 CURVE",
"1608 581 LINE SMOOTH",
"1608 592 OFFCURVE",
"1603 599 OFFCURVE",
"1592 601 CURVE SMOOTH",
"1475 624 LINE",
"1464 624 OFFCURVE",
"1457 619 OFFCURVE",
"1454 608 CURVE",
"1419 443 OFFCURVE",
"1322 362 OFFCURVE",
"1169 359 CURVE",
"958 374 OFFCURVE",
"842 521 OFFCURVE",
"842 772 CURVE SMOOTH",
"842 782 LINE SMOOTH",
"845 1036 OFFCURVE",
"970 1184 OFFCURVE",
"1178 1197 CURVE",
"1319 1194 OFFCURVE",
"1414 1128 OFFCURVE",
"1453 992 CURVE SMOOTH",
"1456 982 OFFCURVE",
"1463 977 OFFCURVE",
"1473 977 CURVE SMOOTH",
"1476 977 LINE",
"1592 1001 LINE"
);
},
{
closed = 1;
nodes = (
"215 373 LINE",
"215 1332 LINE",
"50 1332 LINE",
"50 238 LINE",
"676 238 LINE",
"676 373 LINE"
);
}
);
vertWidth = 0;
width = 2919;
}
);
note = "";
unicode = E058;
},
{
glyphname = right_ctrl;
layers = (
{
layerId = "4E2DFB36-A0B4-46BB-956A-EE2289348F3B";
paths = (
{
closed = 1;
nodes = (
"3029 1320 OFFCURVE",
"3020 1329 OFFCURVE",
"3009 1329 CURVE SMOOTH",
"2916 1329 LINE SMOOTH",
"2905 1329 OFFCURVE",
"2896 1320 OFFCURVE",
"2896 1309 CURVE SMOOTH",
"2896 257 LINE SMOOTH",
"2896 246 OFFCURVE",
"2905 237 OFFCURVE",
"2916 237 CURVE SMOOTH",
"3009 237 LINE SMOOTH",
"3020 237 OFFCURVE",
"3029 246 OFFCURVE",
"3029 257 CURVE SMOOTH",
"3029 1309 LINE"
);
},
{
closed = 1;
nodes = (
"2775 1009 OFFCURVE",
"2718 1056 OFFCURVE",
"2643 1056 CURVE SMOOTH",
"2586 1056 OFFCURVE",
"2540 1035 OFFCURVE",
"2503 996 CURVE",
"2503 1021 LINE SMOOTH",
"2503 1032 OFFCURVE",
"2494 1041 OFFCURVE",
"2483 1041 CURVE SMOOTH",
"2385 1041 LINE SMOOTH",
"2374 1041 OFFCURVE",
"2365 1032 OFFCURVE",
"2365 1021 CURVE SMOOTH",
"2365 257 LINE SMOOTH",
"2365 246 OFFCURVE",
"2374 237 OFFCURVE",
"2385 237 CURVE SMOOTH",
"2478 237 LINE SMOOTH",
"2489 237 OFFCURVE",
"2498 246 OFFCURVE",
"2498 257 CURVE SMOOTH",
"2498 686 LINE SMOOTH",
"2498 766 OFFCURVE",
"2554 925 OFFCURVE",
"2638 925 CURVE SMOOTH",
"2666 925 OFFCURVE",
"2705 910 OFFCURVE",
"2732 890 CURVE",
"2750 890 OFFCURVE",
"2810 955 OFFCURVE",
"2816 972 CURVE",
"2804 998 LINE"
);
},
{
closed = 1;
nodes = (
"2256 303 OFFCURVE",
"2248 332 OFFCURVE",
"2239 371 CURVE SMOOTH",
"2236 382 OFFCURVE",
"2228 387 OFFCURVE",
"2219 387 CURVE SMOOTH",
"2216 387 OFFCURVE",
"2213 387 OFFCURVE",
"2212 386 CURVE SMOOTH",
"2183 375 OFFCURVE",
"2164 372 OFFCURVE",
"2140 372 CURVE SMOOTH",
"2105 372 OFFCURVE",
"2087 388 OFFCURVE",
"2087 419 CURVE SMOOTH",
"2087 924 LINE",
"2212 924 LINE SMOOTH",
"2223 924 OFFCURVE",
"2232 933 OFFCURVE",
"2232 944 CURVE SMOOTH",
"2232 1036 LINE SMOOTH",
"2232 1047 OFFCURVE",
"2223 1056 OFFCURVE",
"2212 1056 CURVE SMOOTH",
"2087 1056 LINE",
"2087 1237 LINE SMOOTH",
"2087 1248 OFFCURVE",
"2078 1257 OFFCURVE",
"2067 1257 CURVE SMOOTH",
"1974 1257 LINE SMOOTH",
"1963 1257 OFFCURVE",
"1954 1248 OFFCURVE",
"1954 1237 CURVE SMOOTH",
"1954 1056 LINE",
"1870 1056 LINE SMOOTH",
"1859 1056 OFFCURVE",
"1850 1047 OFFCURVE",
"1850 1036 CURVE SMOOTH",
"1850 944 LINE SMOOTH",
"1850 933 OFFCURVE",
"1859 924 OFFCURVE",
"1870 924 CURVE SMOOTH",
"1954 924 LINE",
"1954 408 LINE SMOOTH",
"1954 294 OFFCURVE",
"2013 237 OFFCURVE",
"2130 237 CURVE SMOOTH",
"2163 237 OFFCURVE",
"2192 242 OFFCURVE",
"2223 249 CURVE SMOOTH",
"2250 254 LINE",
"2265 282 LINE"
);
},
{
closed = 1;
nodes = (
"1763 1003 OFFCURVE",
"1768 1009 OFFCURVE",
"1768 1020 CURVE SMOOTH",
"1768 1023 OFFCURVE",
"1768 1025 OFFCURVE",
"1767 1026 CURVE",
"1708 1236 OFFCURVE",
"1571 1341 OFFCURVE",
"1357 1341 CURVE SMOOTH",
"1345 1341 LINE SMOOTH",
"1012 1336 OFFCURVE",
"844 1152 OFFCURVE",
"840 791 CURVE SMOOTH",
"840 778 LINE SMOOTH",
"840 413 OFFCURVE",
"1006 230 OFFCURVE",
"1338 229 CURVE SMOOTH",
"1341 229 LINE SMOOTH",
"1581 229 OFFCURVE",
"1721 345 OFFCURVE",
"1768 577 CURVE",
"1768 581 LINE SMOOTH",
"1768 592 OFFCURVE",
"1763 599 OFFCURVE",
"1752 601 CURVE SMOOTH",
"1635 624 LINE",
"1624 624 OFFCURVE",
"1617 619 OFFCURVE",
"1614 608 CURVE",
"1579 443 OFFCURVE",
"1482 362 OFFCURVE",
"1329 359 CURVE",
"1118 374 OFFCURVE",
"1002 521 OFFCURVE",
"1002 772 CURVE SMOOTH",
"1002 782 LINE SMOOTH",
"1005 1036 OFFCURVE",
"1130 1184 OFFCURVE",
"1338 1197 CURVE",
"1479 1194 OFFCURVE",
"1574 1128 OFFCURVE",
"1613 992 CURVE SMOOTH",
"1616 982 OFFCURVE",
"1623 977 OFFCURVE",
"1633 977 CURVE SMOOTH",
"1636 977 LINE",
"1752 1001 LINE"
);
},
{
closed = 1;
nodes = (
"825 280 OFFCURVE",
"799 335 OFFCURVE",
"740 458 CURVE SMOOTH",
"673 598 OFFCURVE",
"645 646 OFFCURVE",
"611 678 CURVE SMOOTH",
"587 700 OFFCURVE",
"555 735 OFFCURVE",
"555 738 CURVE SMOOTH",
"555 747 OFFCURVE",
"587 753 OFFCURVE",
"645 774 CURVE SMOOTH",
"751 812 OFFCURVE",
"796 906 OFFCURVE",
"796 1041 CURVE SMOOTH",
"796 1225 OFFCURVE",
"667 1332 OFFCURVE",
"484 1332 CURVE SMOOTH",
"50 1332 LINE",
"50 238 LINE",
"215 238 LINE",
"215 727 LINE",
"302 727 LINE SMOOTH",
"363 727 OFFCURVE",
"417 704 OFFCURVE",
"486 578 CURVE SMOOTH",
"555 452 OFFCURVE",
"619 303 OFFCURVE",
"656 238 CURVE",
"846 238 LINE"
);
},
{
closed = 1;
nodes = (
"633 918 OFFCURVE",
"534 862 OFFCURVE",
"414 862 CURVE SMOOTH",
"215 862 LINE",
"215 1197 LINE",
"452 1197 LINE SMOOTH",
"578 1197 OFFCURVE",
"633 1137 OFFCURVE",
"633 1025 CURVE SMOOTH"
);
}
);
vertWidth = 0;
width = 3079;
}
);
note = "";
unicode = E059;
},
{
glyphname = shift_ctrl;
layers = (
{
layerId = "4E2DFB36-A0B4-46BB-956A-EE2289348F3B";
paths = (
{
closed = 1;
nodes = (
"3378 1320 OFFCURVE",
"3369 1329 OFFCURVE",
"3358 1329 CURVE SMOOTH",
"3265 1329 LINE SMOOTH",
"3254 1329 OFFCURVE",
"3245 1320 OFFCURVE",
"3245 1309 CURVE SMOOTH",
"3245 257 LINE SMOOTH",
"3245 246 OFFCURVE",
"3254 237 OFFCURVE",
"3265 237 CURVE SMOOTH",
"3358 237 LINE SMOOTH",
"3369 237 OFFCURVE",
"3378 246 OFFCURVE",
"3378 257 CURVE SMOOTH",
"3378 1309 LINE"
);
},
{
closed = 1;
nodes = (
"3124 1009 OFFCURVE",
"3067 1056 OFFCURVE",
"2992 1056 CURVE SMOOTH",
"2935 1056 OFFCURVE",
"2889 1035 OFFCURVE",
"2852 996 CURVE",
"2852 1021 LINE SMOOTH",
"2852 1032 OFFCURVE",
"2843 1041 OFFCURVE",
"2832 1041 CURVE SMOOTH",
"2734 1041 LINE SMOOTH",
"2723 1041 OFFCURVE",
"2714 1032 OFFCURVE",
"2714 1021 CURVE SMOOTH",
"2714 257 LINE SMOOTH",
"2714 246 OFFCURVE",
"2723 237 OFFCURVE",
"2734 237 CURVE SMOOTH",
"2827 237 LINE SMOOTH",
"2838 237 OFFCURVE",
"2847 246 OFFCURVE",
"2847 257 CURVE SMOOTH",
"2847 686 LINE SMOOTH",
"2847 766 OFFCURVE",
"2903 925 OFFCURVE",
"2987 925 CURVE SMOOTH",
"3015 925 OFFCURVE",
"3054 910 OFFCURVE",
"3081 890 CURVE",
"3099 890 OFFCURVE",
"3159 955 OFFCURVE",
"3165 972 CURVE",
"3153 998 LINE"
);
},
{
closed = 1;
nodes = (
"2605 303 OFFCURVE",
"2597 332 OFFCURVE",
"2588 371 CURVE SMOOTH",
"2585 382 OFFCURVE",
"2577 387 OFFCURVE",
"2568 387 CURVE SMOOTH",
"2565 387 OFFCURVE",
"2562 387 OFFCURVE",
"2561 386 CURVE SMOOTH",
"2532 375 OFFCURVE",
"2513 372 OFFCURVE",
"2489 372 CURVE SMOOTH",
"2454 372 OFFCURVE",
"2436 388 OFFCURVE",
"2436 419 CURVE SMOOTH",
"2436 924 LINE",
"2561 924 LINE SMOOTH",
"2572 924 OFFCURVE",
"2581 933 OFFCURVE",
"2581 944 CURVE SMOOTH",
"2581 1036 LINE SMOOTH",
"2581 1047 OFFCURVE",
"2572 1056 OFFCURVE",
"2561 1056 CURVE SMOOTH",
"2436 1056 LINE",
"2436 1237 LINE SMOOTH",
"2436 1248 OFFCURVE",
"2427 1257 OFFCURVE",
"2416 1257 CURVE SMOOTH",
"2323 1257 LINE SMOOTH",
"2312 1257 OFFCURVE",
"2303 1248 OFFCURVE",
"2303 1237 CURVE SMOOTH",
"2303 1056 LINE",
"2219 1056 LINE SMOOTH",
"2208 1056 OFFCURVE",
"2199 1047 OFFCURVE",
"2199 1036 CURVE SMOOTH",
"2199 944 LINE SMOOTH",
"2199 933 OFFCURVE",
"2208 924 OFFCURVE",
"2219 924 CURVE SMOOTH",
"2303 924 LINE",
"2303 408 LINE SMOOTH",
"2303 294 OFFCURVE",
"2362 237 OFFCURVE",
"2479 237 CURVE SMOOTH",
"2512 237 OFFCURVE",
"2541 242 OFFCURVE",
"2572 249 CURVE SMOOTH",
"2599 254 LINE",
"2614 282 LINE"
);
},
{
closed = 1;
nodes = (
"2112 1003 OFFCURVE",
"2117 1009 OFFCURVE",
"2117 1020 CURVE SMOOTH",
"2117 1023 OFFCURVE",
"2117 1025 OFFCURVE",
"2116 1026 CURVE",
"2057 1236 OFFCURVE",
"1920 1341 OFFCURVE",
"1706 1341 CURVE SMOOTH",
"1694 1341 LINE SMOOTH",
"1361 1336 OFFCURVE",
"1193 1152 OFFCURVE",
"1189 791 CURVE SMOOTH",
"1189 778 LINE SMOOTH",
"1189 413 OFFCURVE",
"1355 230 OFFCURVE",
"1687 229 CURVE SMOOTH",
"1690 229 LINE SMOOTH",
"1930 229 OFFCURVE",
"2070 345 OFFCURVE",
"2117 577 CURVE",
"2117 581 LINE SMOOTH",
"2117 592 OFFCURVE",
"2112 599 OFFCURVE",
"2101 601 CURVE SMOOTH",
"1984 624 LINE",
"1973 624 OFFCURVE",
"1966 619 OFFCURVE",
"1963 608 CURVE",
"1928 443 OFFCURVE",
"1831 362 OFFCURVE",
"1678 359 CURVE",
"1467 374 OFFCURVE",
"1351 521 OFFCURVE",
"1351 772 CURVE SMOOTH",
"1351 782 LINE SMOOTH",
"1354 1036 OFFCURVE",
"1479 1184 OFFCURVE",
"1687 1197 CURVE",
"1828 1194 OFFCURVE",
"1923 1128 OFFCURVE",
"1962 992 CURVE SMOOTH",
"1965 982 OFFCURVE",
"1972 977 OFFCURVE",
"1982 977 CURVE SMOOTH",
"1985 977 LINE",
"2101 1001 LINE"
);
},
{
closed = 1;
nodes = (
"495 374 LINE",
"495 720 LINE",
"198 720 LINE",
"568 1170 LINE",
"586 1170 LINE",
"956 720 LINE",
"659 720 LINE",
"659 374 LINE"
);
},
{
closed = 1;
nodes = (
"632 1326 OFFCURVE",
"604 1340 OFFCURVE",
"577 1340 CURVE SMOOTH",
"549 1340 OFFCURVE",
"518 1328 OFFCURVE",
"493 1298 CURVE SMOOTH",
"86 810 LINE SMOOTH",
"66 786 OFFCURVE",
"50 751 OFFCURVE",
"50 708 CURVE SMOOTH",
"50 617 OFFCURVE",
"115 576 OFFCURVE",
"169 576 CURVE SMOOTH",
"377 576 LINE",
"377 382 LINE SMOOTH",
"377 302 OFFCURVE",
"430 237 OFFCURVE",
"496 237 CURVE SMOOTH",
"658 237 LINE SMOOTH",
"723 237 OFFCURVE",
"777 302 OFFCURVE",
"777 382 CURVE SMOOTH",
"777 575 LINE",
"984 575 LINE SMOOTH",
"1038 575 OFFCURVE",
"1103 615 OFFCURVE",
"1103 708 CURVE SMOOTH",
"1103 750 OFFCURVE",
"1089 785 OFFCURVE",
"1068 810 CURVE SMOOTH",
"661 1298 LINE"
);
}
);
vertWidth = 0;
width = 3428;
}
);
note = "";
unicode = E065;
},
{
glyphname = left_alt_ctrl;
layers = (
{
layerId = "4E2DFB36-A0B4-46BB-956A-EE2289348F3B";
paths = (
{
closed = 1;
nodes = (
"1369 1667 OFFCURVE",
"1378 1688 OFFCURVE",
"1389 1719 CURVE",
"1420 1640 LINE",
"1542 1306 LINE",
"1238 1306 LINE",
"1360 1640 LINE"
);
},
{
closed = 1;
nodes = (
"2088 1930 OFFCURVE",
"2079 1939 OFFCURVE",
"2068 1939 CURVE SMOOTH",
"1975 1939 LINE SMOOTH",
"1964 1939 OFFCURVE",
"1955 1930 OFFCURVE",
"1955 1919 CURVE SMOOTH",
"1955 867 LINE SMOOTH",
"1955 856 OFFCURVE",
"1964 847 OFFCURVE",
"1975 847 CURVE SMOOTH",
"2068 847 LINE SMOOTH",
"2079 847 OFFCURVE",
"2088 856 OFFCURVE",
"2088 867 CURVE SMOOTH",
"2088 1919 LINE"
);
},
{
closed = 1;
nodes = (
"2865 722 OFFCURVE",
"2856 731 OFFCURVE",
"2845 731 CURVE SMOOTH",
"2752 731 LINE SMOOTH",
"2741 731 OFFCURVE",
"2732 722 OFFCURVE",
"2732 711 CURVE SMOOTH",
"2732 -342 LINE SMOOTH",
"2732 -353 OFFCURVE",
"2741 -362 OFFCURVE",
"2752 -362 CURVE SMOOTH",
"2845 -362 LINE SMOOTH",
"2856 -362 OFFCURVE",
"2865 -353 OFFCURVE",
"2865 -342 CURVE SMOOTH",
"2865 711 LINE"
);
},
{
closed = 1;
nodes = (
"2640 401 OFFCURVE",
"2633 404 OFFCURVE",
"2626 408 CURVE SMOOTH",
"2617 413 LINE SMOOTH",
"2585 430 OFFCURVE",
"2536 457 OFFCURVE",
"2481 457 CURVE SMOOTH",
"2418 457 OFFCURVE",
"2379 442 OFFCURVE",
"2340 398 CURVE",
"2340 423 LINE SMOOTH",
"2340 434 OFFCURVE",
"2331 443 OFFCURVE",
"2320 443 CURVE SMOOTH",
"2223 443 LINE SMOOTH",
"2212 443 OFFCURVE",
"2203 434 OFFCURVE",
"2203 423 CURVE SMOOTH",
"2203 -342 LINE SMOOTH",
"2203 -353 OFFCURVE",
"2212 -362 OFFCURVE",
"2223 -362 CURVE SMOOTH",
"2316 -362 LINE SMOOTH",
"2327 -362 OFFCURVE",
"2336 -353 OFFCURVE",
"2336 -342 CURVE SMOOTH",
"2336 87 LINE SMOOTH",
"2336 167 OFFCURVE",
"2391 325 OFFCURVE",
"2475 325 CURVE SMOOTH",
"2504 325 OFFCURVE",
"2544 311 OFFCURVE",
"2571 292 CURVE",
"2587 292 OFFCURVE",
"2648 357 OFFCURVE",
"2654 374 CURVE",
"2640 400 LINE"
);
},
{
closed = 1;
nodes = (
"2103 -306 OFFCURVE",
"2094 -276 OFFCURVE",
"2085 -241 CURVE SMOOTH",
"2083 -231 OFFCURVE",
"2077 -226 OFFCURVE",
"2066 -226 CURVE SMOOTH",
"2063 -226 OFFCURVE",
"2061 -226 OFFCURVE",
"2060 -227 CURVE",
"2052 -229 LINE SMOOTH",
"2028 -236 OFFCURVE",
"2010 -241 OFFCURVE",
"1989 -241 CURVE SMOOTH",
"1954 -241 OFFCURVE",
"1936 -225 OFFCURVE",
"1936 -194 CURVE SMOOTH",
"1936 311 LINE",
"2061 311 LINE SMOOTH",
"2072 311 OFFCURVE",
"2081 320 OFFCURVE",
"2081 331 CURVE SMOOTH",
"2081 423 LINE SMOOTH",
"2081 434 OFFCURVE",
"2072 443 OFFCURVE",
"2061 443 CURVE SMOOTH",
"1936 443 LINE",
"1936 624 LINE SMOOTH",
"1936 635 OFFCURVE",
"1927 644 OFFCURVE",
"1916 644 CURVE SMOOTH",
"1823 644 LINE SMOOTH",
"1812 644 OFFCURVE",
"1803 635 OFFCURVE",
"1803 624 CURVE SMOOTH",
"1803 443 LINE",
"1719 443 LINE SMOOTH",
"1708 443 OFFCURVE",
"1699 434 OFFCURVE",
"1699 423 CURVE SMOOTH",
"1699 331 LINE SMOOTH",
"1699 320 OFFCURVE",
"1708 311 OFFCURVE",
"1719 311 CURVE SMOOTH",
"1803 311 LINE",
"1803 -205 LINE SMOOTH",
"1803 -319 OFFCURVE",
"1862 -376 OFFCURVE",
"1979 -376 CURVE SMOOTH",
"2012 -376 OFFCURVE",
"2041 -371 OFFCURVE",
"2072 -364 CURVE SMOOTH",
"2099 -359 LINE",
"2114 -332 LINE"
);
},
{
closed = 1;
nodes = (
"2626 917 OFFCURVE",
"2617 947 OFFCURVE",
"2608 982 CURVE SMOOTH",
"2606 992 OFFCURVE",
"2600 997 OFFCURVE",
"2589 997 CURVE SMOOTH",
"2586 997 OFFCURVE",
"2583 997 OFFCURVE",
"2582 996 CURVE SMOOTH",
"2553 985 OFFCURVE",
"2535 982 OFFCURVE",
"2510 982 CURVE SMOOTH",
"2475 982 OFFCURVE",
"2458 998 OFFCURVE",
"2458 1029 CURVE SMOOTH",
"2458 1534 LINE",
"2583 1534 LINE SMOOTH",
"2594 1534 OFFCURVE",
"2603 1543 OFFCURVE",
"2603 1554 CURVE SMOOTH",
"2603 1646 LINE SMOOTH",
"2603 1657 OFFCURVE",
"2594 1666 OFFCURVE",
"2583 1666 CURVE SMOOTH",
"2458 1666 LINE",
"2458 1847 LINE SMOOTH",
"2458 1858 OFFCURVE",
"2449 1867 OFFCURVE",
"2438 1867 CURVE SMOOTH",
"2345 1867 LINE SMOOTH",
"2334 1867 OFFCURVE",
"2325 1858 OFFCURVE",
"2325 1847 CURVE SMOOTH",
"2325 1666 LINE",
"2241 1666 LINE SMOOTH",
"2230 1666 OFFCURVE",
"2221 1657 OFFCURVE",
"2221 1646 CURVE SMOOTH",
"2221 1554 LINE SMOOTH",
"2221 1543 OFFCURVE",
"2230 1534 OFFCURVE",
"2241 1534 CURVE SMOOTH",
"2325 1534 LINE",
"2325 1018 LINE SMOOTH",
"2325 904 OFFCURVE",
"2384 847 OFFCURVE",
"2501 847 CURVE SMOOTH",
"2534 847 OFFCURVE",
"2563 852 OFFCURVE",
"2594 859 CURVE SMOOTH",
"2621 864 LINE",
"2636 892 LINE"
);
},
{
closed = 1;
nodes = (
"1603 406 OFFCURVE",
"1608 412 OFFCURVE",
"1608 423 CURVE",
"1607 428 LINE SMOOTH",
"1549 637 OFFCURVE",
"1413 742 OFFCURVE",
"1198 742 CURVE SMOOTH",
"1186 742 LINE SMOOTH",
"855 737 OFFCURVE",
"684 553 OFFCURVE",
"680 193 CURVE SMOOTH",
"680 180 LINE SMOOTH",
"680 -185 OFFCURVE",
"846 -366 OFFCURVE",
"1177 -369 CURVE SMOOTH",
"1183 -369 LINE SMOOTH",
"1423 -369 OFFCURVE",
"1563 -251 OFFCURVE",
"1608 -22 CURVE",
"1608 -18 LINE SMOOTH",
"1608 -7 OFFCURVE",
"1603 0 OFFCURVE",
"1592 2 CURVE SMOOTH",
"1474 25 LINE",
"1463 25 OFFCURVE",
"1456 20 OFFCURVE",
"1454 9 CURVE SMOOTH",
"1419 -156 OFFCURVE",
"1323 -237 OFFCURVE",
"1170 -240 CURVE",
"958 -225 OFFCURVE",
"842 -78 OFFCURVE",
"842 173 CURVE SMOOTH",
"842 183 LINE SMOOTH",
"845 437 OFFCURVE",
"970 586 OFFCURVE",
"1177 599 CURVE",
"1320 596 OFFCURVE",
"1415 530 OFFCURVE",
"1454 394 CURVE SMOOTH",
"1457 384 OFFCURVE",
"1464 379 OFFCURVE",
"1474 379 CURVE SMOOTH",
"1477 379 LINE",
"1592 403 LINE"
);
},
{
closed = 1;
nodes = (
"1056 847 OFFCURVE",
"1065 853 OFFCURVE",
"1068 860 CURVE SMOOTH",
"1187 1171 LINE",
"1594 1171 LINE",
"1711 860 LINE SMOOTH",
"1714 853 OFFCURVE",
"1723 847 OFFCURVE",
"1730 847 CURVE SMOOTH",
"1863 847 LINE SMOOTH",
"1876 847 OFFCURVE",
"1883 853 OFFCURVE",
"1883 866 CURVE SMOOTH",
"1883 869 OFFCURVE",
"1883 872 OFFCURVE",
"1882 874 CURVE SMOOTH",
"1486 1926 LINE SMOOTH",
"1483 1933 OFFCURVE",
"1474 1939 OFFCURVE",
"1467 1939 CURVE SMOOTH",
"1314 1939 LINE SMOOTH",
"1307 1939 OFFCURVE",
"1298 1933 OFFCURVE",
"1295 1926 CURVE SMOOTH",
"1218 1719 OFFCURVE",
"1135 1500 OFFCURVE",
"1056 1293 CURVE SMOOTH",
"897 874 LINE SMOOTH",
"896 872 OFFCURVE",
"896 869 OFFCURVE",
"896 866 CURVE SMOOTH",
"896 853 OFFCURVE",
"903 847 OFFCURVE",
"916 847 CURVE SMOOTH",
"1049 847 LINE"
);
},
{
closed = 1;
nodes = (
"395 982 LINE",
"395 1939 LINE",
"230 1939 LINE",
"230 847 LINE",
"856 847 LINE",
"856 982 LINE"
);
},
{
closed = 1;
nodes = (
"215 -227 LINE",
"215 730 LINE",
"50 730 LINE",
"50 -362 LINE",
"676 -362 LINE",
"676 -227 LINE"
);
}
);
vertWidth = 0;
width = 2915;
}
);
note = "";
unicode = E060;
},
